<?xml version="1.0" encoding="utf-8" standalone="no"?>
<!DOCTYPE svg PUBLIC "-//W3C//DTD SVG 1.1//EN"
  "http://www.w3.org/Graphics/SVG/1.1/DTD/svg11.dtd">
<!-- Created with matplotlib (https://matplotlib.org/) -->
<svg height="108pt" version="1.1" viewBox="0 0 864 108" width="864pt" xmlns="http://www.w3.org/2000/svg" xmlns:xlink="http://www.w3.org/1999/xlink">
 <defs>
  <style type="text/css">
*{stroke-linecap:butt;stroke-linejoin:round;}
  </style>
 </defs>
 <g id="figure_1">
  <g id="patch_1">
   <path d="M 0 108 
L 864 108 
L 864 0 
L 0 0 
z
" style="fill:#f4f7f7;"/>
  </g>
  <g id="axes_1">
   <g id="patch_2">
    <path d="M 108 96.12 
L 324 96.12 
L 324 12.96 
L 108 12.96 
z
" style="fill:#a6c2bc;"/>
   </g>
   <g id="matplotlib.axis_1">
    <g id="xtick_1">
     <g id="line2d_1">
      <path clip-path="url(#pcc135b902f)" d="M 108 96.12 
L 108 12.96 
" style="fill:none;stroke:#c8d9cd;stroke-linecap:square;stroke-width:0.8;"/>
     </g>
     <g id="line2d_2">
      <defs>
       <path d="M 0 0 
L 0 3.5 
" id="m155d4eb37f" style="stroke:#000000;stroke-width:0.8;"/>
      </defs>
      <g>
       <use style="stroke:#000000;stroke-width:0.8;" x="108" xlink:href="#m155d4eb37f" y="96.12"/>
      </g>
     </g>
     <g id="text_1">
      <!-- 00:00 -->
      <defs>
       <path d="M 31.78125 66.40625 
Q 24.171875 66.40625 20.328125 58.90625 
Q 16.5 51.421875 16.5 36.375 
Q 16.5 21.390625 20.328125 13.890625 
Q 24.171875 6.390625 31.78125 6.390625 
Q 39.453125 6.390625 43.28125 13.890625 
Q 47.125 21.390625 47.125 36.375 
Q 47.125 51.421875 43.28125 58.90625 
Q 39.453125 66.40625 31.78125 66.40625 
z
M 31.78125 74.21875 
Q 44.046875 74.21875 50.515625 64.515625 
Q 56.984375 54.828125 56.984375 36.375 
Q 56.984375 17.96875 50.515625 8.265625 
Q 44.046875 -1.421875 31.78125 -1.421875 
Q 19.53125 -1.421875 13.0625 8.265625 
Q 6.59375 17.96875 6.59375 36.375 
Q 6.59375 54.828125 13.0625 64.515625 
Q 19.53125 74.21875 31.78125 74.21875 
z
" id="DejaVuSans-48"/>
       <path d="M 11.71875 12.40625 
L 22.015625 12.40625 
L 22.015625 0 
L 11.71875 0 
z
M 11.71875 51.703125 
L 22.015625 51.703125 
L 22.015625 39.3125 
L 11.71875 39.3125 
z
" id="DejaVuSans-58"/>
      </defs>
      <g transform="translate(93.590625 110.718438)scale(0.1 -0.1)">
       <use xlink:href="#DejaVuSans-48"/>
       <use x="63.623047" xlink:href="#DejaVuSans-48"/>
       <use x="127.246094" xlink:href="#DejaVuSans-58"/>
       <use x="160.9375" xlink:href="#DejaVuSans-48"/>
       <use x="224.560547" xlink:href="#DejaVuSans-48"/>
      </g>
     </g>
    </g>
    <g id="xtick_2">
     <g id="line2d_3">
      <path clip-path="url(#pcc135b902f)" d="M 162 96.12 
L 162 12.96 
" style="fill:none;stroke:#c8d9cd;stroke-linecap:square;stroke-width:0.8;"/>
     </g>
     <g id="line2d_4">
      <g>
       <use style="stroke:#000000;stroke-width:0.8;" x="162" xlink:href="#m155d4eb37f" y="96.12"/>
      </g>
     </g>
     <g id="text_2">
      <!-- 06:00 -->
      <defs>
       <path d="M 33.015625 40.375 
Q 26.375 40.375 22.484375 35.828125 
Q 18.609375 31.296875 18.609375 23.390625 
Q 18.609375 15.53125 22.484375 10.953125 
Q 26.375 6.390625 33.015625 6.390625 
Q 39.65625 6.390625 43.53125 10.953125 
Q 47.40625 15.53125 47.40625 23.390625 
Q 47.40625 31.296875 43.53125 35.828125 
Q 39.65625 40.375 33.015625 40.375 
z
M 52.59375 71.296875 
L 52.59375 62.3125 
Q 48.875 64.0625 45.09375 64.984375 
Q 41.3125 65.921875 37.59375 65.921875 
Q 27.828125 65.921875 22.671875 59.328125 
Q 17.53125 52.734375 16.796875 39.40625 
Q 19.671875 43.65625 24.015625 45.921875 
Q 28.375 48.1875 33.59375 48.1875 
Q 44.578125 48.1875 50.953125 41.515625 
Q 57.328125 34.859375 57.328125 23.390625 
Q 57.328125 12.15625 50.6875 5.359375 
Q 44.046875 -1.421875 33.015625 -1.421875 
Q 20.359375 -1.421875 13.671875 8.265625 
Q 6.984375 17.96875 6.984375 36.375 
Q 6.984375 53.65625 15.1875 63.9375 
Q 23.390625 74.21875 37.203125 74.21875 
Q 40.921875 74.21875 44.703125 73.484375 
Q 48.484375 72.75 52.59375 71.296875 
z
" id="DejaVuSans-54"/>
      </defs>
      <g transform="translate(147.590625 110.718438)scale(0.1 -0.1)">
       <use xlink:href="#DejaVuSans-48"/>
       <use x="63.623047" xlink:href="#DejaVuSans-54"/>
       <use x="127.246094" xlink:href="#DejaVuSans-58"/>
       <use x="160.9375" xlink:href="#DejaVuSans-48"/>
       <use x="224.560547" xlink:href="#DejaVuSans-48"/>
      </g>
     </g>
    </g>
    <g id="xtick_3">
     <g id="line2d_5">
      <path clip-path="url(#pcc135b902f)" d="M 216 96.12 
L 216 12.96 
" style="fill:none;stroke:#c8d9cd;stroke-linecap:square;stroke-width:0.8;"/>
     </g>
     <g id="line2d_6">
      <g>
       <use style="stroke:#000000;stroke-width:0.8;" x="216" xlink:href="#m155d4eb37f" y="96.12"/>
      </g>
     </g>
     <g id="text_3">
      <!-- 12:00 -->
      <defs>
       <path d="M 12.40625 8.296875 
L 28.515625 8.296875 
L 28.515625 63.921875 
L 10.984375 60.40625 
L 10.984375 69.390625 
L 28.421875 72.90625 
L 38.28125 72.90625 
L 38.28125 8.296875 
L 54.390625 8.296875 
L 54.390625 0 
L 12.40625 0 
z
" id="DejaVuSans-49"/>
       <path d="M 19.1875 8.296875 
L 53.609375 8.296875 
L 53.609375 0 
L 7.328125 0 
L 7.328125 8.296875 
Q 12.9375 14.109375 22.625 23.890625 
Q 32.328125 33.6875 34.8125 36.53125 
Q 39.546875 41.84375 41.421875 45.53125 
Q 43.3125 49.21875 43.3125 52.78125 
Q 43.3125 58.59375 39.234375 62.25 
Q 35.15625 65.921875 28.609375 65.921875 
Q 23.96875 65.921875 18.8125 64.3125 
Q 13.671875 62.703125 7.8125 59.421875 
L 7.8125 69.390625 
Q 13.765625 71.78125 18.9375 73 
Q 24.125 74.21875 28.421875 74.21875 
Q 39.75 74.21875 46.484375 68.546875 
Q 53.21875 62.890625 53.21875 53.421875 
Q 53.21875 48.921875 51.53125 44.890625 
Q 49.859375 40.875 45.40625 35.40625 
Q 44.1875 33.984375 37.640625 27.21875 
Q 31.109375 20.453125 19.1875 8.296875 
z
" id="DejaVuSans-50"/>
      </defs>
      <g transform="translate(201.590625 110.718438)scale(0.1 -0.1)">
       <use xlink:href="#DejaVuSans-49"/>
       <use x="63.623047" xlink:href="#DejaVuSans-50"/>
       <use x="127.246094" xlink:href="#DejaVuSans-58"/>
       <use x="160.9375" xlink:href="#DejaVuSans-48"/>
       <use x="224.560547" xlink:href="#DejaVuSans-48"/>
      </g>
     </g>
    </g>
    <g id="xtick_4">
     <g id="line2d_7">
      <path clip-path="url(#pcc135b902f)" d="M 270 96.12 
L 270 12.96 
" style="fill:none;stroke:#c8d9cd;stroke-linecap:square;stroke-width:0.8;"/>
     </g>
     <g id="line2d_8">
      <g>
       <use style="stroke:#000000;stroke-width:0.8;" x="270" xlink:href="#m155d4eb37f" y="96.12"/>
      </g>
     </g>
     <g id="text_4">
      <!-- 18:00 -->
      <defs>
       <path d="M 31.78125 34.625 
Q 24.75 34.625 20.71875 30.859375 
Q 16.703125 27.09375 16.703125 20.515625 
Q 16.703125 13.921875 20.71875 10.15625 
Q 24.75 6.390625 31.78125 6.390625 
Q 38.8125 6.390625 42.859375 10.171875 
Q 46.921875 13.96875 46.921875 20.515625 
Q 46.921875 27.09375 42.890625 30.859375 
Q 38.875 34.625 31.78125 34.625 
z
M 21.921875 38.8125 
Q 15.578125 40.375 12.03125 44.71875 
Q 8.5 49.078125 8.5 55.328125 
Q 8.5 64.0625 14.71875 69.140625 
Q 20.953125 74.21875 31.78125 74.21875 
Q 42.671875 74.21875 48.875 69.140625 
Q 55.078125 64.0625 55.078125 55.328125 
Q 55.078125 49.078125 51.53125 44.71875 
Q 48 40.375 41.703125 38.8125 
Q 48.828125 37.15625 52.796875 32.3125 
Q 56.78125 27.484375 56.78125 20.515625 
Q 56.78125 9.90625 50.3125 4.234375 
Q 43.84375 -1.421875 31.78125 -1.421875 
Q 19.734375 -1.421875 13.25 4.234375 
Q 6.78125 9.90625 6.78125 20.515625 
Q 6.78125 27.484375 10.78125 32.3125 
Q 14.796875 37.15625 21.921875 38.8125 
z
M 18.3125 54.390625 
Q 18.3125 48.734375 21.84375 45.5625 
Q 25.390625 42.390625 31.78125 42.390625 
Q 38.140625 42.390625 41.71875 45.5625 
Q 45.3125 48.734375 45.3125 54.390625 
Q 45.3125 60.0625 41.71875 63.234375 
Q 38.140625 66.40625 31.78125 66.40625 
Q 25.390625 66.40625 21.84375 63.234375 
Q 18.3125 60.0625 18.3125 54.390625 
z
" id="DejaVuSans-56"/>
      </defs>
      <g transform="translate(255.590625 110.718438)scale(0.1 -0.1)">
       <use xlink:href="#DejaVuSans-49"/>
       <use x="63.623047" xlink:href="#DejaVuSans-56"/>
       <use x="127.246094" xlink:href="#DejaVuSans-58"/>
       <use x="160.9375" xlink:href="#DejaVuSans-48"/>
       <use x="224.560547" xlink:href="#DejaVuSans-48"/>
      </g>
     </g>
    </g>
    <g id="text_5">
     <!-- UTC in Hours  2019 06 06 -->
     <defs>
      <path d="M 7.171875 27.984375 
L 7.171875 72.90625 
L 17.09375 72.90625 
L 17.09375 23.484375 
Q 17.09375 18.171875 17.375 15.890625 
Q 17.671875 13.625 18.40625 12.40625 
Q 19.96875 9.515625 22.921875 8.046875 
Q 25.875 6.59375 30.078125 6.59375 
Q 34.328125 6.59375 37.25 8.046875 
Q 40.1875 9.515625 41.796875 12.40625 
Q 42.53125 13.625 42.8125 15.859375 
Q 43.109375 18.109375 43.109375 23.390625 
L 43.109375 72.90625 
L 52.984375 72.90625 
L 52.984375 27.984375 
Q 52.984375 16.796875 51.59375 12.078125 
Q 50.203125 7.375 46.78125 4.296875 
Q 43.5625 1.421875 39.40625 0 
Q 35.25 -1.421875 30.078125 -1.421875 
Q 24.953125 -1.421875 20.796875 0 
Q 16.65625 1.421875 13.375 4.296875 
Q 10.015625 7.328125 8.59375 12.125 
Q 7.171875 16.9375 7.171875 27.984375 
z
" id="DejaVuSansMono-85"/>
      <path d="M 2.296875 72.90625 
L 57.90625 72.90625 
L 57.90625 64.59375 
L 35.109375 64.59375 
L 35.109375 0 
L 25.203125 0 
L 25.203125 64.59375 
L 2.296875 64.59375 
z
" id="DejaVuSansMono-84"/>
      <path d="M 52.390625 2.59375 
Q 48.640625 0.59375 44.671875 -0.40625 
Q 40.71875 -1.421875 36.28125 -1.421875 
Q 22.265625 -1.421875 14.515625 8.484375 
Q 6.78125 18.40625 6.78125 36.375 
Q 6.78125 54.25 14.5625 64.234375 
Q 22.359375 74.21875 36.28125 74.21875 
Q 40.71875 74.21875 44.671875 73.21875 
Q 48.640625 72.21875 52.390625 70.21875 
L 52.390625 60.109375 
Q 48.78125 63.09375 44.625 64.65625 
Q 40.484375 66.21875 36.28125 66.21875 
Q 26.65625 66.21875 21.875 58.796875 
Q 17.09375 51.375 17.09375 36.375 
Q 17.09375 21.4375 21.875 14.015625 
Q 26.65625 6.59375 36.28125 6.59375 
Q 40.578125 6.59375 44.703125 8.15625 
Q 48.828125 9.71875 52.390625 12.703125 
z
" id="DejaVuSansMono-67"/>
      <path id="DejaVuSansMono-32"/>
      <path d="M 12.5 54.6875 
L 35.5 54.6875 
L 35.5 6.984375 
L 53.328125 6.984375 
L 53.328125 0 
L 8.6875 0 
L 8.6875 6.984375 
L 26.515625 6.984375 
L 26.515625 47.703125 
L 12.5 47.703125 
z
M 26.515625 75.984375 
L 35.5 75.984375 
L 35.5 64.59375 
L 26.515625 64.59375 
z
" id="DejaVuSansMono-105"/>
      <path d="M 51.3125 33.890625 
L 51.3125 0 
L 42.28125 0 
L 42.28125 33.890625 
Q 42.28125 41.265625 39.6875 44.71875 
Q 37.109375 48.1875 31.59375 48.1875 
Q 25.296875 48.1875 21.890625 43.71875 
Q 18.5 39.265625 18.5 30.90625 
L 18.5 0 
L 9.515625 0 
L 9.515625 54.6875 
L 18.5 54.6875 
L 18.5 46.484375 
Q 20.90625 51.171875 25 53.578125 
Q 29.109375 56 34.71875 56 
Q 43.0625 56 47.1875 50.5 
Q 51.3125 45.015625 51.3125 33.890625 
z
" id="DejaVuSansMono-110"/>
      <path d="M 6.6875 72.90625 
L 16.609375 72.90625 
L 16.609375 43.015625 
L 43.609375 43.015625 
L 43.609375 72.90625 
L 53.515625 72.90625 
L 53.515625 0 
L 43.609375 0 
L 43.609375 34.71875 
L 16.609375 34.71875 
L 16.609375 0 
L 6.6875 0 
z
" id="DejaVuSansMono-72"/>
      <path d="M 30.078125 48.390625 
Q 23.25 48.390625 19.734375 43.0625 
Q 16.21875 37.75 16.21875 27.296875 
Q 16.21875 16.890625 19.734375 11.546875 
Q 23.25 6.203125 30.078125 6.203125 
Q 36.96875 6.203125 40.484375 11.546875 
Q 44 16.890625 44 27.296875 
Q 44 37.75 40.484375 43.0625 
Q 36.96875 48.390625 30.078125 48.390625 
z
M 30.078125 56 
Q 41.453125 56 47.484375 48.625 
Q 53.515625 41.265625 53.515625 27.296875 
Q 53.515625 13.28125 47.5 5.921875 
Q 41.5 -1.421875 30.078125 -1.421875 
Q 18.703125 -1.421875 12.6875 5.921875 
Q 6.6875 13.28125 6.6875 27.296875 
Q 6.6875 41.265625 12.6875 48.625 
Q 18.703125 56 30.078125 56 
z
" id="DejaVuSansMono-111"/>
      <path d="M 9.515625 20.703125 
L 9.515625 54.59375 
L 18.5 54.59375 
L 18.5 20.703125 
Q 18.5 13.328125 21.109375 9.859375 
Q 23.734375 6.390625 29.203125 6.390625 
Q 35.546875 6.390625 38.90625 10.859375 
Q 42.28125 15.328125 42.28125 23.6875 
L 42.28125 54.59375 
L 51.3125 54.59375 
L 51.3125 0 
L 42.28125 0 
L 42.28125 8.203125 
Q 39.890625 3.46875 35.765625 1.015625 
Q 31.640625 -1.421875 26.125 -1.421875 
Q 17.71875 -1.421875 13.609375 4.078125 
Q 9.515625 9.578125 9.515625 20.703125 
z
" id="DejaVuSansMono-117"/>
      <path d="M 56.390625 43.40625 
Q 53.515625 45.65625 50.53125 46.671875 
Q 47.5625 47.703125 44 47.703125 
Q 35.59375 47.703125 31.140625 42.421875 
Q 26.703125 37.15625 26.703125 27.203125 
L 26.703125 0 
L 17.671875 0 
L 17.671875 54.6875 
L 26.703125 54.6875 
L 26.703125 44 
Q 28.953125 49.8125 33.609375 52.90625 
Q 38.28125 56 44.671875 56 
Q 48 56 50.875 55.171875 
Q 53.765625 54.34375 56.390625 52.59375 
z
" id="DejaVuSansMono-114"/>
      <path d="M 47.515625 52.78125 
L 47.515625 44 
Q 43.65625 46.234375 39.75 47.359375 
Q 35.84375 48.484375 31.78125 48.484375 
Q 25.6875 48.484375 22.671875 46.5 
Q 19.671875 44.53125 19.671875 40.484375 
Q 19.671875 36.8125 21.921875 35 
Q 24.171875 33.203125 33.109375 31.5 
L 36.71875 30.8125 
Q 43.40625 29.546875 46.84375 25.734375 
Q 50.296875 21.921875 50.296875 15.828125 
Q 50.296875 7.71875 44.53125 3.140625 
Q 38.765625 -1.421875 28.515625 -1.421875 
Q 24.46875 -1.421875 20.015625 -0.5625 
Q 15.578125 0.296875 10.40625 2 
L 10.40625 11.28125 
Q 15.4375 8.6875 20.015625 7.390625 
Q 24.609375 6.109375 28.71875 6.109375 
Q 34.671875 6.109375 37.9375 8.515625 
Q 41.21875 10.9375 41.21875 15.28125 
Q 41.21875 21.53125 29.25 23.921875 
L 28.859375 24.03125 
L 25.484375 24.703125 
Q 17.71875 26.21875 14.15625 29.8125 
Q 10.59375 33.40625 10.59375 39.59375 
Q 10.59375 47.46875 15.90625 51.734375 
Q 21.234375 56 31.109375 56 
Q 35.5 56 39.546875 55.1875 
Q 43.609375 54.390625 47.515625 52.78125 
z
" id="DejaVuSansMono-115"/>
      <path d="M 18.21875 8.296875 
L 51.703125 8.296875 
L 51.703125 0 
L 7.421875 0 
L 7.421875 8.296875 
Q 16.546875 17.921875 23.375 25.296875 
Q 30.21875 32.671875 32.8125 35.6875 
Q 37.703125 41.65625 39.40625 45.34375 
Q 41.109375 49.03125 41.109375 52.875 
Q 41.109375 58.984375 37.515625 62.453125 
Q 33.9375 65.921875 27.6875 65.921875 
Q 23.25 65.921875 18.359375 64.3125 
Q 13.484375 62.703125 8.015625 59.421875 
L 8.015625 69.390625 
Q 13.03125 71.78125 17.890625 73 
Q 22.75 74.21875 27.484375 74.21875 
Q 38.1875 74.21875 44.703125 68.53125 
Q 51.21875 62.84375 51.21875 53.609375 
Q 51.21875 48.921875 49.046875 44.234375 
Q 46.875 39.546875 42 33.890625 
Q 39.265625 30.71875 34.0625 25.09375 
Q 28.859375 19.484375 18.21875 8.296875 
z
" id="DejaVuSansMono-50"/>
      <path d="M 23.578125 36.625 
Q 23.578125 39.3125 25.453125 41.265625 
Q 27.34375 43.21875 29.984375 43.21875 
Q 32.71875 43.21875 34.671875 41.265625 
Q 36.625 39.3125 36.625 36.625 
Q 36.625 33.890625 34.6875 31.984375 
Q 32.765625 30.078125 29.984375 30.078125 
Q 27.25 30.078125 25.40625 31.9375 
Q 23.578125 33.796875 23.578125 36.625 
z
M 30.078125 66.40625 
Q 23.1875 66.40625 19.796875 58.984375 
Q 16.40625 51.5625 16.40625 36.375 
Q 16.40625 21.234375 19.796875 13.8125 
Q 23.1875 6.390625 30.078125 6.390625 
Q 37.015625 6.390625 40.40625 13.8125 
Q 43.796875 21.234375 43.796875 36.375 
Q 43.796875 51.5625 40.40625 58.984375 
Q 37.015625 66.40625 30.078125 66.40625 
z
M 30.078125 74.21875 
Q 41.75 74.21875 47.734375 64.640625 
Q 53.71875 55.078125 53.71875 36.375 
Q 53.71875 17.71875 47.734375 8.140625 
Q 41.75 -1.421875 30.078125 -1.421875 
Q 18.40625 -1.421875 12.453125 8.140625 
Q 6.5 17.71875 6.5 36.375 
Q 6.5 55.078125 12.453125 64.640625 
Q 18.40625 74.21875 30.078125 74.21875 
z
" id="DejaVuSansMono-48"/>
      <path d="M 13.1875 8.296875 
L 28.515625 8.296875 
L 28.515625 64.015625 
L 12.015625 60.296875 
L 12.015625 69.28125 
L 28.421875 72.90625 
L 38.28125 72.90625 
L 38.28125 8.296875 
L 53.421875 8.296875 
L 53.421875 0 
L 13.1875 0 
z
" id="DejaVuSansMono-49"/>
      <path d="M 29.109375 32.328125 
Q 35.40625 32.328125 38.984375 36.859375 
Q 42.578125 41.40625 42.578125 49.421875 
Q 42.578125 57.421875 38.984375 61.953125 
Q 35.40625 66.5 29.109375 66.5 
Q 22.5625 66.5 19.234375 62.171875 
Q 15.921875 57.859375 15.921875 49.421875 
Q 15.921875 40.921875 19.21875 36.625 
Q 22.515625 32.328125 29.109375 32.328125 
z
M 11.53125 1.515625 
L 11.53125 10.59375 
Q 14.59375 8.796875 18.0625 7.84375 
Q 21.53125 6.890625 25.296875 6.890625 
Q 34.671875 6.890625 39.46875 13.9375 
Q 44.28125 21 44.28125 34.71875 
Q 42 29.828125 37.84375 27.21875 
Q 33.6875 24.609375 28.328125 24.609375 
Q 17.78125 24.609375 11.984375 31.09375 
Q 6.203125 37.59375 6.203125 49.515625 
Q 6.203125 61.28125 12.125 67.75 
Q 18.0625 74.21875 28.90625 74.21875 
Q 41.609375 74.21875 47.515625 65.078125 
Q 53.421875 55.953125 53.421875 36.375 
Q 53.421875 17.96875 46.3125 8.265625 
Q 39.203125 -1.421875 25.6875 -1.421875 
Q 22.125 -1.421875 18.5 -0.65625 
Q 14.890625 0.09375 11.53125 1.515625 
z
" id="DejaVuSansMono-57"/>
      <path d="M 48.390625 71.296875 
L 48.390625 62.203125 
Q 45.3125 64.015625 41.84375 64.96875 
Q 38.375 65.921875 34.625 65.921875 
Q 25.25 65.921875 20.40625 58.859375 
Q 15.578125 51.8125 15.578125 38.09375 
Q 17.921875 42.96875 22.0625 45.578125 
Q 26.21875 48.1875 31.59375 48.1875 
Q 42.140625 48.1875 47.921875 41.71875 
Q 53.71875 35.25 53.71875 23.390625 
Q 53.71875 11.578125 47.75 5.078125 
Q 41.796875 -1.421875 31 -1.421875 
Q 18.3125 -1.421875 12.40625 7.6875 
Q 6.5 16.796875 6.5 36.375 
Q 6.5 54.828125 13.59375 64.515625 
Q 20.703125 74.21875 34.1875 74.21875 
Q 37.796875 74.21875 41.40625 73.453125 
Q 45.015625 72.703125 48.390625 71.296875 
z
M 30.8125 40.484375 
Q 24.515625 40.484375 20.890625 35.9375 
Q 17.28125 31.390625 17.28125 23.390625 
Q 17.28125 15.375 20.890625 10.828125 
Q 24.515625 6.296875 30.8125 6.296875 
Q 37.359375 6.296875 40.671875 10.609375 
Q 44 14.9375 44 23.390625 
Q 44 31.890625 40.671875 36.1875 
Q 37.359375 40.484375 30.8125 40.484375 
z
" id="DejaVuSansMono-54"/>
     </defs>
     <g transform="translate(143.75625 124.449688)scale(0.1 -0.1)">
      <use xlink:href="#DejaVuSansMono-85"/>
      <use x="60.205078" xlink:href="#DejaVuSansMono-84"/>
      <use x="120.410156" xlink:href="#DejaVuSansMono-67"/>
      <use x="180.615234" xlink:href="#DejaVuSansMono-32"/>
      <use x="240.820312" xlink:href="#DejaVuSansMono-105"/>
      <use x="301.025391" xlink:href="#DejaVuSansMono-110"/>
      <use x="361.230469" xlink:href="#DejaVuSansMono-32"/>
      <use x="421.435547" xlink:href="#DejaVuSansMono-72"/>
      <use x="481.640625" xlink:href="#DejaVuSansMono-111"/>
      <use x="541.845703" xlink:href="#DejaVuSansMono-117"/>
      <use x="602.050781" xlink:href="#DejaVuSansMono-114"/>
      <use x="662.255859" xlink:href="#DejaVuSansMono-115"/>
      <use x="722.460938" xlink:href="#DejaVuSansMono-32"/>
      <use x="782.666016" xlink:href="#DejaVuSansMono-32"/>
      <use x="842.871094" xlink:href="#DejaVuSansMono-50"/>
      <use x="903.076172" xlink:href="#DejaVuSansMono-48"/>
      <use x="963.28125" xlink:href="#DejaVuSansMono-49"/>
      <use x="1023.486328" xlink:href="#DejaVuSansMono-57"/>
      <use x="1083.691406" xlink:href="#DejaVuSansMono-32"/>
      <use x="1143.896484" xlink:href="#DejaVuSansMono-48"/>
      <use x="1204.101562" xlink:href="#DejaVuSansMono-54"/>
      <use x="1264.306641" xlink:href="#DejaVuSansMono-32"/>
      <use x="1324.511719" xlink:href="#DejaVuSansMono-48"/>
      <use x="1384.716797" xlink:href="#DejaVuSansMono-54"/>
     </g>
    </g>
   </g>
   <g id="matplotlib.axis_2">
    <g id="ytick_1">
     <g id="line2d_9">
      <path clip-path="url(#pcc135b902f)" d="M 108 77.639035 
L 324 77.639035 
" style="fill:none;stroke:#c8d9cd;stroke-linecap:square;stroke-width:0.8;"/>
     </g>
     <g id="line2d_10">
      <defs>
       <path d="M 0 0 
L -3.5 0 
" id="med1de89dd7" style="stroke:#000000;stroke-width:0.8;"/>
      </defs>
      <g>
       <use style="stroke:#000000;stroke-width:0.8;" x="108" xlink:href="#med1de89dd7" y="77.639035"/>
      </g>
     </g>
     <g id="text_6">
      <!-- −100 -->
      <defs>
       <path d="M 10.59375 35.5 
L 73.1875 35.5 
L 73.1875 27.203125 
L 10.59375 27.203125 
z
" id="DejaVuSans-8722"/>
      </defs>
      <g transform="translate(73.532813 81.438253)scale(0.1 -0.1)">
       <use xlink:href="#DejaVuSans-8722"/>
       <use x="83.789062" xlink:href="#DejaVuSans-49"/>
       <use x="147.412109" xlink:href="#DejaVuSans-48"/>
       <use x="211.035156" xlink:href="#DejaVuSans-48"/>
      </g>
     </g>
    </g>
    <g id="ytick_2">
     <g id="line2d_11">
      <path clip-path="url(#pcc135b902f)" d="M 108 52.814709 
L 324 52.814709 
" style="fill:none;stroke:#c8d9cd;stroke-linecap:square;stroke-width:0.8;"/>
     </g>
     <g id="line2d_12">
      <g>
       <use style="stroke:#000000;stroke-width:0.8;" x="108" xlink:href="#med1de89dd7" y="52.814709"/>
      </g>
     </g>
     <g id="text_7">
      <!-- −50 -->
      <defs>
       <path d="M 10.796875 72.90625 
L 49.515625 72.90625 
L 49.515625 64.59375 
L 19.828125 64.59375 
L 19.828125 46.734375 
Q 21.96875 47.46875 24.109375 47.828125 
Q 26.265625 48.1875 28.421875 48.1875 
Q 40.625 48.1875 47.75 41.5 
Q 54.890625 34.8125 54.890625 23.390625 
Q 54.890625 11.625 47.5625 5.09375 
Q 40.234375 -1.421875 26.90625 -1.421875 
Q 22.3125 -1.421875 17.546875 -0.640625 
Q 12.796875 0.140625 7.71875 1.703125 
L 7.71875 11.625 
Q 12.109375 9.234375 16.796875 8.0625 
Q 21.484375 6.890625 26.703125 6.890625 
Q 35.15625 6.890625 40.078125 11.328125 
Q 45.015625 15.765625 45.015625 23.390625 
Q 45.015625 31 40.078125 35.4375 
Q 35.15625 39.890625 26.703125 39.890625 
Q 22.75 39.890625 18.8125 39.015625 
Q 14.890625 38.140625 10.796875 36.28125 
z
" id="DejaVuSans-53"/>
      </defs>
      <g transform="translate(79.895313 56.613928)scale(0.1 -0.1)">
       <use xlink:href="#DejaVuSans-8722"/>
       <use x="83.789062" xlink:href="#DejaVuSans-53"/>
       <use x="147.412109" xlink:href="#DejaVuSans-48"/>
      </g>
     </g>
    </g>
    <g id="ytick_3">
     <g id="line2d_13">
      <path clip-path="url(#pcc135b902f)" d="M 108 27.990384 
L 324 27.990384 
" style="fill:none;stroke:#c8d9cd;stroke-linecap:square;stroke-width:0.8;"/>
     </g>
     <g id="line2d_14">
      <g>
       <use style="stroke:#000000;stroke-width:0.8;" x="108" xlink:href="#med1de89dd7" y="27.990384"/>
      </g>
     </g>
     <g id="text_8">
      <!-- 0 -->
      <g transform="translate(94.6375 31.789603)scale(0.1 -0.1)">
       <use xlink:href="#DejaVuSans-48"/>
      </g>
     </g>
    </g>
    <g id="text_9">
     <!-- nt -->
     <defs>
      <path d="M 29.984375 70.21875 
L 29.984375 54.6875 
L 50.390625 54.6875 
L 50.390625 47.703125 
L 29.984375 47.703125 
L 29.984375 18.015625 
Q 29.984375 11.96875 32.28125 9.5625 
Q 34.578125 7.171875 40.28125 7.171875 
L 50.390625 7.171875 
L 50.390625 0 
L 39.40625 0 
Q 29.296875 0 25.140625 4.046875 
Q 21 8.109375 21 18.015625 
L 21 47.703125 
L 6.390625 47.703125 
L 6.390625 54.6875 
L 21 54.6875 
L 21 70.21875 
z
" id="DejaVuSansMono-116"/>
     </defs>
     <g transform="translate(59.5125 52.460312)scale(0.1 -0.1)">
      <use xlink:href="#DejaVuSansMono-110"/>
      <use x="60.205078" xlink:href="#DejaVuSansMono-116"/>
     </g>
    </g>
   </g>
   <g id="line2d_15">
    <path clip-path="url(#pcc135b902f)" d="M 108.075 27.990384 
L 108.38 27.95563 
L 108.6875 28.33296 
L 108.9925 28.779798 
L 109.1475 28.695395 
L 109.3 28.745044 
L 110.215 30.89483 
L 110.3675 30.860076 
L 110.5225 31.083495 
L 110.83 31.99703 
L 111.14 32.150941 
L 111.2925 31.99703 
L 111.7525 31.157968 
L 112.06 31.654455 
L 112.215 31.495579 
L 112.3675 31.763682 
L 112.5225 32.453798 
L 112.6775 31.694174 
L 112.83 31.718998 
L 112.985 31.460825 
L 113.14 30.90476 
L 113.295 30.964338 
L 113.4525 30.855111 
L 113.605 30.542325 
L 114.0625 31.773611 
L 114.215 30.974268 
L 114.3675 29.390476 
L 114.5225 29.385511 
L 114.675 29.663544 
L 114.9825 26.908044 
L 115.1375 27.449214 
L 115.29 24.738398 
L 115.4425 24.430576 
L 115.75 22.519103 
L 115.905 23.045379 
L 116.0575 22.623365 
L 116.365 24.083035 
L 116.52 23.378025 
L 116.6725 23.497181 
L 116.825 23.884441 
L 116.98 24.718538 
L 117.285 28.750009 
L 117.5925 28.437222 
L 117.9025 29.817455 
L 118.0525 29.07769 
L 118.205 30.239468 
L 118.5125 29.311038 
L 118.665 31.103355 
L 118.9675 29.926682 
L 119.1175 30.016049 
L 119.7275 31.902698 
L 120.19 32.433938 
L 120.345 31.212582 
L 120.4975 31.406211 
L 120.65 30.845182 
L 120.8025 31.058671 
L 120.955 30.457922 
L 121.11 30.750849 
L 121.2625 31.550192 
L 121.4175 30.348695 
L 121.57 30.408273 
L 121.7225 31.063636 
L 121.8775 30.800498 
L 122.185 29.574176 
L 122.3375 29.147198 
L 122.6425 28.933709 
L 122.7975 29.956471 
L 122.95 30.204714 
L 123.1025 30.1501 
L 123.255 30.294082 
L 123.5625 31.634595 
L 123.715 31.550192 
L 124.175 30.199749 
L 124.3275 29.494738 
L 124.48 29.355722 
L 124.6325 29.79263 
L 124.785 29.648649 
L 124.9375 29.276284 
L 125.09 29.4153 
L 125.395 30.472817 
L 125.5475 30.035909 
L 125.8575 28.87413 
L 126.1625 30.91469 
L 126.6225 34.871687 
L 126.93 33.30279 
L 127.0825 33.382228 
L 127.2325 33.893609 
L 127.54 35.239087 
L 127.8475 36.917212 
L 128.3025 35.745503 
L 128.765 35.437682 
L 129.2225 35.621382 
L 129.8375 32.409114 
L 130.295 31.937452 
L 130.7525 35.715714 
L 131.515 30.452957 
L 131.975 31.505509 
L 132.1275 31.207617 
L 132.28 31.495579 
L 132.4325 31.440965 
L 132.585 31.704103 
L 132.74 32.314782 
L 133.2025 30.264292 
L 133.355 30.72106 
L 133.66 33.213422 
L 133.9675 32.826163 
L 134.1225 33.09923 
L 134.4275 32.071503 
L 134.5825 32.18073 
L 134.735 32.55806 
L 134.8875 32.433938 
L 135.0425 32.702041 
L 135.35 34.181571 
L 135.6575 32.687147 
L 135.8125 32.404149 
L 135.965 32.508411 
L 136.12 32.930425 
L 136.2725 32.56799 
L 136.425 32.563025 
L 136.5775 32.394219 
L 136.7275 32.677217 
L 137.1875 34.687987 
L 137.65 35.805082 
L 137.8025 35.174544 
L 137.9575 35.358244 
L 138.11 35.775293 
L 138.2625 35.710749 
L 138.415 35.442647 
L 138.8725 33.898574 
L 139.025 34.807144 
L 139.1775 34.906441 
L 139.485 33.193563 
L 139.7925 32.746725 
L 139.9475 33.059511 
L 140.1 32.920495 
L 140.555 31.942417 
L 140.71 32.011925 
L 141.63 33.555998 
L 141.9375 34.340447 
L 142.4 34.340447 
L 142.7075 35.819976 
L 143.3225 40.402547 
L 143.79 48.817993 
L 143.94 49.582582 
L 144.0925 48.703801 
L 144.245 53.296301 
L 144.3975 52.184172 
L 144.55 49.458461 
L 144.855 63.916148 
L 145.0075 63.513994 
L 145.31 49.388953 
L 145.465 61.672029 
L 145.6175 62.54088 
L 145.7725 65.877269 
L 145.925 73.175621 
L 146.08 71.040729 
L 146.54 86.759492 
L 146.6925 80.444183 
L 146.845 69.094502 
L 147 72.272015 
L 147.3075 83.765678 
L 147.4575 83.626662 
L 147.6125 83.974202 
L 147.765 80.265448 
L 147.915 83.31884 
L 148.38 78.279502 
L 148.5325 83.447927 
L 148.685 83.13514 
L 148.8375 81.879029 
L 149.14 76.730464 
L 149.605 67.356799 
L 149.7575 67.639796 
L 149.9125 67.540499 
L 150.0675 66.497877 
L 150.375 59.432874 
L 150.6825 51.081971 
L 150.835 52.963655 
L 150.99 53.107636 
L 151.4475 61.930202 
L 151.6 61.900412 
L 151.755 62.401864 
L 152.0575 59.467629 
L 152.21 56.245431 
L 152.6675 58.330674 
L 152.82 56.702199 
L 152.9725 56.627726 
L 153.28 53.465107 
L 153.585 50.168436 
L 153.8925 47.820055 
L 154.045 48.331436 
L 154.195 48.162631 
L 154.5 52.352977 
L 154.81 44.488631 
L 155.1225 43.143152 
L 155.2775 42.989241 
L 156.045 45.302869 
L 156.1975 44.270177 
L 156.35 44.667366 
L 156.5025 44.473736 
L 156.815 44.558139 
L 156.97 44.707085 
L 157.1225 43.778655 
L 157.2775 42.145214 
L 157.43 42.492755 
L 157.89 47.686004 
L 158.045 44.225493 
L 158.1975 46.509331 
L 158.35 46.931344 
L 158.5025 49.036447 
L 158.655 47.040571 
L 158.96 40.303249 
L 159.2675 44.995047 
L 159.42 43.639639 
L 159.7275 49.160569 
L 160.03 44.627647 
L 160.4925 50.719536 
L 160.645 50.118788 
L 161.105 53.187074 
L 161.2575 53.400563 
L 161.4125 54.64178 
L 161.565 54.696393 
L 161.7175 55.793628 
L 161.8675 57.963274 
L 162.02 57.988099 
L 162.3275 59.974045 
L 162.6325 64.070058 
L 162.785 61.607485 
L 162.9375 56.746883 
L 163.09 58.201588 
L 163.24 61.473434 
L 163.3925 60.912404 
L 163.6975 62.069218 
L 163.85 61.592591 
L 164.1575 59.085334 
L 164.4625 49.984736 
L 164.77 59.626504 
L 165.08 62.72458 
L 165.2325 62.858631 
L 165.69 57.074564 
L 165.8425 58.077466 
L 166.145 66.547526 
L 166.45 64.660877 
L 166.7575 71.135061 
L 166.9075 71.035764 
L 167.215 69.307991 
L 167.6725 70.320824 
L 167.825 69.873986 
L 167.9775 69.928599 
L 168.1325 70.534313 
L 168.285 70.176842 
L 168.435 69.536375 
L 168.59 71.616653 
L 168.7425 76.611308 
L 168.8975 75.40981 
L 169.05 72.346488 
L 169.3575 82.102448 
L 169.5125 85.692046 
L 169.6675 86.0942 
L 169.8175 83.3387 
L 169.97 83.229473 
L 170.1225 79.396597 
L 170.275 79.078845 
L 170.4275 81.65561 
L 170.885 79.1136 
L 171.035 78.840532 
L 171.4975 75.454494 
L 171.65 75.896367 
L 171.805 75.886437 
L 171.96 71.408129 
L 172.1125 72.083351 
L 172.265 73.413934 
L 172.4175 73.121007 
L 172.5725 73.528126 
L 172.7225 74.734589 
L 172.875 74.406907 
L 173.18 71.924475 
L 173.49 72.331594 
L 173.8025 70.042791 
L 174.105 71.239324 
L 174.2575 70.737872 
L 175.03 65.475115 
L 175.18 64.914086 
L 175.4875 59.993904 
L 175.795 57.149037 
L 175.9475 56.647585 
L 176.2525 54.587166 
L 176.56 52.447309 
L 177.635 45.824179 
L 178.095 43.748866 
L 178.25 44.007039 
L 178.405 44.036828 
L 178.715 41.524606 
L 179.02 36.852668 
L 179.3275 35.87459 
L 179.48 35.919274 
L 179.6325 36.604425 
L 179.9375 38.709528 
L 180.0925 38.888263 
L 180.2475 38.848544 
L 180.86 39.92592 
L 181.1625 40.943717 
L 181.47 40.27346 
L 181.62 40.139409 
L 181.9275 40.899033 
L 182.2325 41.574255 
L 182.3825 41.584185 
L 182.6875 41.306152 
L 182.9925 40.367793 
L 183.3025 40.422406 
L 183.605 41.524606 
L 183.7575 41.39552 
L 183.9075 40.928822 
L 184.0625 41.186995 
L 184.2175 41.013225 
L 184.37 41.023155 
L 184.9775 40.665685 
L 185.75 41.132382 
L 186.0575 40.735193 
L 186.365 41.147277 
L 186.52 41.023155 
L 186.825 41.142312 
L 187.13 41.445168 
L 187.595 42.542404 
L 188.055 42.810506 
L 188.2075 43.083574 
L 188.36 43.004136 
L 188.515 43.04882 
L 188.825 42.636736 
L 188.9775 42.601982 
L 189.44 41.797674 
L 189.5925 41.837393 
L 190.0525 41.514677 
L 190.3625 41.604044 
L 191.285 40.367793 
L 192.2025 39.349995 
L 192.6625 39.632993 
L 192.815 39.404609 
L 193.125 39.518801 
L 193.2775 39.642922 
L 193.4275 39.578379 
L 193.8875 40.174163 
L 194.1925 40.069901 
L 194.81 40.481985 
L 194.965 40.308214 
L 195.12 40.392617 
L 195.2725 40.243671 
L 195.4275 40.392617 
L 195.58 40.238706 
L 196.0375 40.184093 
L 196.955 39.876271 
L 197.42 40.040112 
L 197.5725 39.901095 
L 197.725 40.005358 
L 198.0325 40.030182 
L 198.1875 40.139409 
L 198.4925 40.055006 
L 198.7975 40.10962 
L 198.9525 40.09969 
L 199.5675 40.630931 
L 199.72 40.685544 
L 200.18 41.112522 
L 200.79 41.087698 
L 201.2525 41.58915 
L 201.7125 42.428212 
L 202.02 42.835331 
L 202.3275 42.924698 
L 202.79 42.889944 
L 203.4025 42.731068 
L 203.7075 42.840296 
L 203.86 42.929663 
L 204.0125 42.830366 
L 204.1675 42.989241 
L 204.3225 42.815471 
L 204.63 42.780717 
L 205.855 41.465028 
L 206.1625 41.469993 
L 206.4675 42.646666 
L 206.7775 44.533315 
L 206.9325 44.975187 
L 207.3925 45.05959 
L 207.7 44.985117 
L 207.8525 45.258185 
L 208.0025 45.297904 
L 208.155 45.700058 
L 209.2325 44.88582 
L 209.385 44.816312 
L 209.9925 46.489471 
L 210.145 46.280947 
L 210.2975 46.266052 
L 211.06 45.62062 
L 211.3675 45.918512 
L 211.675 46.216404 
L 211.8275 46.216404 
L 212.44 46.688066 
L 213.2075 46.444788 
L 213.3625 46.439823 
L 213.6675 46.89659 
L 214.28 46.846942 
L 214.435 46.717855 
L 214.8975 47.035606 
L 215.205 47.398042 
L 215.5175 47.45762 
L 216.595 47.576777 
L 217.05 48.440663 
L 218.1225 48.961974 
L 218.275 49.244971 
L 218.4275 49.230077 
L 218.5825 49.48825 
L 218.735 49.48825 
L 218.8875 49.67195 
L 219.0375 49.557758 
L 219.345 49.602442 
L 219.4975 49.557758 
L 219.805 49.875509 
L 220.265 49.850685 
L 220.42 49.766282 
L 221.65 50.307453 
L 221.9575 50.729466 
L 222.4125 50.903236 
L 222.7175 51.275601 
L 223.635 51.826701 
L 223.7875 52.144453 
L 223.9375 52.099769 
L 224.09 52.218926 
L 224.245 52.154382 
L 224.55 52.298363 
L 224.855 52.208996 
L 225.165 52.313258 
L 225.32 52.680658 
L 225.6225 52.730307 
L 226.08 53.470072 
L 226.39 54.27438 
L 227.155 53.911945 
L 227.4625 54.487869 
L 227.615 54.314099 
L 228.075 55.143231 
L 228.23 55.262388 
L 228.3825 55.689366 
L 228.845 55.55035 
L 229.4525 55.36665 
L 229.915 55.451053 
L 230.0675 55.093582 
L 230.375 54.959531 
L 230.5275 54.592131 
L 230.6825 54.820515 
L 230.835 54.785761 
L 230.9875 54.909882 
L 231.1425 54.885058 
L 231.6025 53.90698 
L 231.91 53.743139 
L 232.2175 54.204872 
L 232.37 54.060891 
L 232.5225 54.125434 
L 232.825 53.71335 
L 232.98 53.256582 
L 233.4475 53.435318 
L 233.6 53.738174 
L 233.7525 53.638877 
L 233.9075 53.350915 
L 234.06 54.140328 
L 234.37 52.819674 
L 234.675 53.738174 
L 234.83 53.579299 
L 235.1425 54.562342 
L 235.295 53.261547 
L 235.4475 53.584263 
L 235.6 53.122531 
L 235.7525 53.067918 
L 235.9075 52.779955 
L 236.0625 53.475036 
L 236.2175 53.465107 
L 236.37 53.221828 
L 236.5225 53.306231 
L 236.6775 54.085715 
L 236.83 53.579299 
L 236.9825 53.549509 
L 237.1375 54.045996 
L 237.29 53.033163 
L 237.6 54.155223 
L 237.7525 53.902015 
L 237.905 54.204872 
L 238.21 53.321126 
L 238.3625 53.976488 
L 238.515 53.614053 
L 238.67 53.658736 
L 238.825 54.021172 
L 238.9775 54.026136 
L 239.1325 54.27438 
L 239.2875 53.043093 
L 239.44 53.340985 
L 239.595 53.981453 
L 239.7475 53.837472 
L 240.05 53.380704 
L 240.2025 54.686464 
L 240.355 53.038128 
L 240.5075 53.405528 
L 240.8175 52.457239 
L 240.97 53.594193 
L 241.1225 52.745201 
L 241.4275 52.685623 
L 241.5825 53.057988 
L 241.735 52.829604 
L 241.8875 52.362907 
L 242.0425 52.248715 
L 242.5 54.006277 
L 242.6525 53.415458 
L 242.805 54.542482 
L 242.9575 53.137426 
L 243.11 53.797753 
L 243.4175 52.864358 
L 243.5725 53.360845 
L 244.0375 53.569369 
L 244.345 54.353818 
L 244.4975 52.660799 
L 244.65 53.405528 
L 244.805 52.218926 
L 244.955 53.137426 
L 245.1075 51.935928 
L 245.2625 52.154382 
L 245.4175 52.030261 
L 245.57 52.293399 
L 245.725 50.75429 
L 245.88 52.491993 
L 246.0325 51.598317 
L 246.1875 52.25368 
L 246.34 52.030261 
L 246.4925 52.313258 
L 246.6475 53.057988 
L 246.8 52.025296 
L 246.955 52.755131 
L 247.1075 51.558599 
L 247.26 51.633072 
L 247.4125 51.404688 
L 247.5675 50.208155 
L 247.7225 51.176304 
L 247.8775 50.371996 
L 248.03 51.091901 
L 248.185 49.647126 
L 248.3375 50.853588 
L 248.4925 51.14155 
L 248.645 50.798974 
L 248.8 50.77415 
L 249.1075 49.885439 
L 249.2625 50.545766 
L 249.415 49.83579 
L 249.5675 50.093963 
L 249.72 49.65209 
L 249.8725 48.857712 
L 250.025 49.666985 
L 250.1775 49.205253 
L 250.48 47.730688 
L 250.6325 47.879634 
L 250.7875 47.646285 
L 251.2525 48.788204 
L 251.555 47.993825 
L 251.7075 48.20235 
L 252.165 46.350455 
L 252.32 46.132001 
L 252.4725 45.158888 
L 252.625 45.198606 
L 253.2325 44.597858 
L 253.385 44.687225 
L 253.54 43.778655 
L 253.845 44.175844 
L 254.1525 43.877952 
L 254.3025 44.076547 
L 254.61 43.997109 
L 255.2225 43.118328 
L 255.375 43.113363 
L 255.68 43.490693 
L 256.1375 44.165914 
L 256.29 43.997109 
L 256.4425 43.594955 
L 257.0525 40.83449 
L 257.9825 39.275522 
L 258.135 39.235804 
L 258.2875 39.359925 
L 258.5925 39.816693 
L 258.7475 39.72236 
L 259.355 38.774071 
L 259.5075 38.808825 
L 260.1175 39.836552 
L 260.42 40.179128 
L 260.73 40.47702 
L 261.035 40.531633 
L 261.34 40.174163 
L 261.645 39.945779 
L 262.41 40.258566 
L 262.715 40.020252 
L 264.0975 37.954868 
L 264.405 38.208076 
L 264.56 38.426531 
L 264.8675 38.361987 
L 265.945 36.43562 
L 266.095 36.361147 
L 266.4025 36.450514 
L 266.71 36.455479 
L 266.865 36.673933 
L 267.0175 36.659039 
L 268.09 35.829906 
L 268.7025 36.286674 
L 269.1625 36.212201 
L 269.4675 35.606487 
L 270.0775 34.007801 
L 270.385 33.963117 
L 270.8475 33.709909 
L 271.1525 34.191501 
L 271.765 35.229157 
L 272.2225 34.94616 
L 272.3775 34.797214 
L 273.14 33.347474 
L 273.6 33.268036 
L 274.0575 34.03759 
L 274.515 33.104195 
L 274.975 31.604806 
L 275.13 31.440965 
L 275.2825 31.604806 
L 275.9025 32.92546 
L 276.0575 32.890706 
L 276.365 33.555998 
L 276.5175 33.560963 
L 276.67 33.86382 
L 276.9775 33.610611 
L 277.285 34.112063 
L 277.4375 34.469533 
L 277.59 34.151782 
L 277.8975 33.089301 
L 278.05 32.841057 
L 278.2025 33.024757 
L 278.51 33.749628 
L 279.125 34.345411 
L 279.4325 35.12986 
L 279.585 35.010703 
L 280.0425 33.908503 
L 280.3475 33.829065 
L 280.65 33.327614 
L 280.8025 33.630471 
L 281.105 33.754593 
L 281.4125 34.01773 
L 281.715 34.062414 
L 282.1775 34.38513 
L 282.4875 34.196465 
L 282.7975 34.504287 
L 282.95 34.39506 
L 283.2575 34.692952 
L 283.7175 34.04752 
L 284.635 34.181571 
L 284.79 34.375201 
L 285.25 34.107098 
L 285.8625 33.471595 
L 286.0175 33.491455 
L 286.79 34.484428 
L 286.9425 34.340447 
L 287.0925 33.978011 
L 287.4025 34.96602 
L 287.555 34.985879 
L 287.7075 35.258947 
L 287.8625 35.030563 
L 288.17 33.506349 
L 288.3225 33.590752 
L 288.475 34.270938 
L 288.7875 34.325552 
L 288.9425 34.226255 
L 289.2525 33.809206 
L 289.71 33.575857 
L 290.3225 32.622603 
L 290.63 31.62963 
L 291.085 32.111222 
L 291.3875 31.584946 
L 291.54 31.659419 
L 291.695 31.887803 
L 292.1575 31.63956 
L 292.31 31.584946 
L 292.465 31.684244 
L 292.77 32.513376 
L 293.0775 33.546068 
L 293.385 33.754593 
L 293.54 33.953187 
L 293.8475 35.164614 
L 294.1575 36.117868 
L 294.31 36.088079 
L 294.615 35.596557 
L 294.7675 35.50719 
L 294.92 35.720679 
L 295.2275 36.539882 
L 295.3825 36.644144 
L 295.535 36.604425 
L 295.99 37.17042 
L 296.2925 37.617258 
L 296.75 37.681801 
L 297.055 37.974728 
L 297.3625 37.205174 
L 297.5175 37.175385 
L 298.1325 38.247795 
L 298.285 37.935009 
L 298.745 36.316463 
L 299.3575 37.066157 
L 299.815 36.321428 
L 299.9675 36.331357 
L 300.885 37.607328 
L 301.3475 37.632152 
L 301.5 37.299506 
L 301.81 35.760398 
L 302.115 33.590752 
L 302.4225 33.084336 
L 302.575 33.079371 
L 302.885 33.511314 
L 303.1925 34.335482 
L 303.655 34.052484 
L 304.11 34.603584 
L 304.2625 34.539041 
L 304.7225 34.092203 
L 305.03 33.918433 
L 305.1825 33.888644 
L 305.64 33.521244 
L 306.1 33.978011 
L 306.7175 35.551874 
L 306.8725 35.790187 
L 307.4875 35.239087 
L 308.255 37.562644 
L 308.56 36.971825 
L 308.8675 36.003676 
L 309.175 35.795152 
L 309.3275 35.810047 
L 310.0925 36.822879 
L 310.3975 37.294541 
L 310.705 37.498101 
L 311.0125 37.274682 
L 311.4725 38.580441 
L 311.625 38.481144 
L 311.9325 37.865501 
L 312.395 38.029341 
L 312.7 38.45632 
L 313.005 38.098849 
L 313.1575 38.163393 
L 313.4675 38.873368 
L 313.77 39.454258 
L 313.9225 39.632993 
L 314.2275 39.37482 
L 314.6875 39.394679 
L 314.8425 39.568449 
L 315.3025 38.992525 
L 315.4575 39.543625 
L 315.6125 39.295382 
L 316.2225 36.083114 
L 316.375 35.735574 
L 316.5275 35.829906 
L 316.985 35.512155 
L 317.4425 35.983817 
L 317.7475 36.088079 
L 317.9 35.924239 
L 318.51 34.544006 
L 318.665 34.38513 
L 318.82 34.419884 
L 319.125 34.75253 
L 319.28 34.678057 
L 319.435 34.817074 
L 319.5875 34.76246 
L 319.74 34.871687 
L 320.0475 35.298666 
L 320.6625 34.524147 
L 320.97 34.02766 
L 321.275 33.665225 
L 322.1875 33.600682 
L 322.495 33.382228 
L 322.9525 33.143914 
L 323.875 31.530333 
L 323.875 31.530333 
" style="fill:none;stroke:#0000ff;stroke-linecap:square;stroke-width:1.5;"/>
   </g>
   <g id="patch_3">
    <path d="M 108 96.12 
L 108 12.96 
" style="fill:none;stroke:#445753;stroke-linecap:square;stroke-linejoin:miter;stroke-width:3;"/>
   </g>
   <g id="patch_4">
    <path d="M 108 96.12 
L 324 96.12 
" style="fill:none;stroke:#445753;stroke-linecap:square;stroke-linejoin:miter;stroke-width:3;"/>
   </g>
   <g id="text_10">
    <g id="patch_5">
     <path d="M 186.754687 11.415625 
L 245.245313 11.415625 
L 245.245313 -8.118125 
L 186.754687 -8.118125 
z
" style="fill:#f4f7f7;stroke:#f4f7f7;stroke-linejoin:miter;"/>
    </g>
    <a xlink:href="http://google.com">
     <!-- X-Field -->
     <defs>
      <path d="M 58.890625 0 
L 44 0 
L 30.078125 24.125 
L 16.21875 0 
L 1.3125 0 
L 22.703125 37.015625 
L 1.90625 72.90625 
L 16.796875 72.90625 
L 30.078125 49.703125 
L 43.40625 72.90625 
L 58.296875 72.90625 
L 37.59375 37.015625 
z
" id="DejaVuSansMono-Bold-88"/>
      <path d="M 14.703125 35.890625 
L 45.515625 35.890625 
L 45.515625 21.6875 
L 14.703125 21.6875 
z
" id="DejaVuSansMono-Bold-45"/>
      <path d="M 54.296875 60.203125 
L 23.296875 60.203125 
L 23.296875 44.484375 
L 51.515625 44.484375 
L 51.515625 31.78125 
L 23.296875 31.78125 
L 23.296875 0 
L 8.890625 0 
L 8.890625 72.90625 
L 54.296875 72.90625 
z
" id="DejaVuSansMono-Bold-70"/>
      <path d="M 10.796875 54.6875 
L 39.109375 54.6875 
L 39.109375 10.984375 
L 56.890625 10.984375 
L 56.890625 0 
L 6.984375 0 
L 6.984375 10.984375 
L 24.8125 10.984375 
L 24.8125 43.703125 
L 10.796875 43.703125 
z
M 24.8125 81.296875 
L 39.109375 81.296875 
L 39.109375 64.59375 
L 24.8125 64.59375 
z
" id="DejaVuSansMono-Bold-105"/>
      <path d="M 53.8125 2.6875 
Q 48.828125 0.640625 43.65625 -0.390625 
Q 38.484375 -1.421875 32.71875 -1.421875 
Q 19 -1.421875 11.75 5.921875 
Q 4.5 13.28125 4.5 27.09375 
Q 4.5 40.484375 11.46875 48.234375 
Q 18.453125 56 30.515625 56 
Q 42.671875 56 49.390625 48.796875 
Q 56.109375 41.609375 56.109375 28.515625 
L 56.109375 22.703125 
L 19.046875 22.703125 
Q 19.09375 16.265625 22.84375 13.078125 
Q 26.609375 9.90625 34.078125 9.90625 
Q 39.015625 9.90625 43.796875 11.328125 
Q 48.578125 12.75 53.8125 15.828125 
z
M 41.703125 33.453125 
Q 41.609375 39.109375 38.796875 42.015625 
Q 35.984375 44.921875 30.515625 44.921875 
Q 25.59375 44.921875 22.65625 41.921875 
Q 19.734375 38.921875 19.1875 33.40625 
z
" id="DejaVuSansMono-Bold-101"/>
      <path d="M 18.890625 22.796875 
L 18.890625 64.984375 
L 4.390625 64.984375 
L 4.390625 75.984375 
L 33.203125 75.984375 
L 33.203125 22.796875 
Q 33.203125 16.359375 35.203125 13.671875 
Q 37.203125 10.984375 42 10.984375 
L 53.421875 10.984375 
L 53.421875 0 
L 37.984375 0 
Q 27.78125 0 23.328125 5.265625 
Q 18.890625 10.546875 18.890625 22.796875 
z
" id="DejaVuSansMono-Bold-108"/>
      <path d="M 38.625 46.921875 
L 38.625 75.984375 
L 52.875 75.984375 
L 52.875 0 
L 38.625 0 
L 38.625 8.109375 
Q 36.328125 3.375 32.6875 0.96875 
Q 29.046875 -1.421875 24.125 -1.421875 
Q 14.75 -1.421875 9.5625 6.09375 
Q 4.390625 13.625 4.390625 27.296875 
Q 4.390625 41.15625 9.640625 48.578125 
Q 14.890625 56 24.609375 56 
Q 29 56 32.484375 53.734375 
Q 35.984375 51.46875 38.625 46.921875 
z
M 18.703125 27.203125 
Q 18.703125 19.28125 21.328125 14.78125 
Q 23.96875 10.296875 28.609375 10.296875 
Q 33.25 10.296875 35.9375 14.78125 
Q 38.625 19.28125 38.625 27.203125 
Q 38.625 35.109375 35.9375 39.59375 
Q 33.25 44.09375 28.609375 44.09375 
Q 23.96875 44.09375 21.328125 39.59375 
Q 18.703125 35.109375 18.703125 27.203125 
z
" id="DejaVuSansMono-Bold-100"/>
     </defs>
     <g style="fill:#222b29;" transform="translate(190.714687 4.96)scale(0.12 -0.12)">
      <use xlink:href="#DejaVuSansMono-Bold-88"/>
      <use x="60.205078" xlink:href="#DejaVuSansMono-Bold-45"/>
      <use x="120.410156" xlink:href="#DejaVuSansMono-Bold-70"/>
      <use x="180.615234" xlink:href="#DejaVuSansMono-Bold-105"/>
      <use x="240.820312" xlink:href="#DejaVuSansMono-Bold-101"/>
      <use x="301.025391" xlink:href="#DejaVuSansMono-Bold-108"/>
      <use x="361.230469" xlink:href="#DejaVuSansMono-Bold-100"/>
     </g>
    </a>
   </g>
  </g>
  <g id="axes_2">
   <g id="patch_6">
    <path d="M 334.8 96.12 
L 550.8 96.12 
L 550.8 12.96 
L 334.8 12.96 
z
" style="fill:#a6c2bc;"/>
   </g>
   <g id="matplotlib.axis_3">
    <g id="xtick_5">
     <g id="line2d_16">
      <path clip-path="url(#pbd4368a583)" d="M 334.8 96.12 
L 334.8 12.96 
" style="fill:none;stroke:#c8d9cd;stroke-linecap:square;stroke-width:0.8;"/>
     </g>
     <g id="line2d_17">
      <g>
       <use style="stroke:#000000;stroke-width:0.8;" x="334.8" xlink:href="#m155d4eb37f" y="96.12"/>
      </g>
     </g>
     <g id="text_11">
      <!-- 00:00 -->
      <g transform="translate(320.390625 110.718438)scale(0.1 -0.1)">
       <use xlink:href="#DejaVuSans-48"/>
       <use x="63.623047" xlink:href="#DejaVuSans-48"/>
       <use x="127.246094" xlink:href="#DejaVuSans-58"/>
       <use x="160.9375" xlink:href="#DejaVuSans-48"/>
       <use x="224.560547" xlink:href="#DejaVuSans-48"/>
      </g>
     </g>
    </g>
    <g id="xtick_6">
     <g id="line2d_18">
      <path clip-path="url(#pbd4368a583)" d="M 388.8 96.12 
L 388.8 12.96 
" style="fill:none;stroke:#c8d9cd;stroke-linecap:square;stroke-width:0.8;"/>
     </g>
     <g id="line2d_19">
      <g>
       <use style="stroke:#000000;stroke-width:0.8;" x="388.8" xlink:href="#m155d4eb37f" y="96.12"/>
      </g>
     </g>
     <g id="text_12">
      <!-- 06:00 -->
      <g transform="translate(374.390625 110.718438)scale(0.1 -0.1)">
       <use xlink:href="#DejaVuSans-48"/>
       <use x="63.623047" xlink:href="#DejaVuSans-54"/>
       <use x="127.246094" xlink:href="#DejaVuSans-58"/>
       <use x="160.9375" xlink:href="#DejaVuSans-48"/>
       <use x="224.560547" xlink:href="#DejaVuSans-48"/>
      </g>
     </g>
    </g>
    <g id="xtick_7">
     <g id="line2d_20">
      <path clip-path="url(#pbd4368a583)" d="M 442.8 96.12 
L 442.8 12.96 
" style="fill:none;stroke:#c8d9cd;stroke-linecap:square;stroke-width:0.8;"/>
     </g>
     <g id="line2d_21">
      <g>
       <use style="stroke:#000000;stroke-width:0.8;" x="442.8" xlink:href="#m155d4eb37f" y="96.12"/>
      </g>
     </g>
     <g id="text_13">
      <!-- 12:00 -->
      <g transform="translate(428.390625 110.718438)scale(0.1 -0.1)">
       <use xlink:href="#DejaVuSans-49"/>
       <use x="63.623047" xlink:href="#DejaVuSans-50"/>
       <use x="127.246094" xlink:href="#DejaVuSans-58"/>
       <use x="160.9375" xlink:href="#DejaVuSans-48"/>
       <use x="224.560547" xlink:href="#DejaVuSans-48"/>
      </g>
     </g>
    </g>
    <g id="xtick_8">
     <g id="line2d_22">
      <path clip-path="url(#pbd4368a583)" d="M 496.8 96.12 
L 496.8 12.96 
" style="fill:none;stroke:#c8d9cd;stroke-linecap:square;stroke-width:0.8;"/>
     </g>
     <g id="line2d_23">
      <g>
       <use style="stroke:#000000;stroke-width:0.8;" x="496.8" xlink:href="#m155d4eb37f" y="96.12"/>
      </g>
     </g>
     <g id="text_14">
      <!-- 18:00 -->
      <g transform="translate(482.390625 110.718438)scale(0.1 -0.1)">
       <use xlink:href="#DejaVuSans-49"/>
       <use x="63.623047" xlink:href="#DejaVuSans-56"/>
       <use x="127.246094" xlink:href="#DejaVuSans-58"/>
       <use x="160.9375" xlink:href="#DejaVuSans-48"/>
       <use x="224.560547" xlink:href="#DejaVuSans-48"/>
      </g>
     </g>
    </g>
    <g id="text_15">
     <!-- UTC in Hours  2019 06 06 -->
     <g transform="translate(370.55625 124.449688)scale(0.1 -0.1)">
      <use xlink:href="#DejaVuSansMono-85"/>
      <use x="60.205078" xlink:href="#DejaVuSansMono-84"/>
      <use x="120.410156" xlink:href="#DejaVuSansMono-67"/>
      <use x="180.615234" xlink:href="#DejaVuSansMono-32"/>
      <use x="240.820312" xlink:href="#DejaVuSansMono-105"/>
      <use x="301.025391" xlink:href="#DejaVuSansMono-110"/>
      <use x="361.230469" xlink:href="#DejaVuSansMono-32"/>
      <use x="421.435547" xlink:href="#DejaVuSansMono-72"/>
      <use x="481.640625" xlink:href="#DejaVuSansMono-111"/>
      <use x="541.845703" xlink:href="#DejaVuSansMono-117"/>
      <use x="602.050781" xlink:href="#DejaVuSansMono-114"/>
      <use x="662.255859" xlink:href="#DejaVuSansMono-115"/>
      <use x="722.460938" xlink:href="#DejaVuSansMono-32"/>
      <use x="782.666016" xlink:href="#DejaVuSansMono-32"/>
      <use x="842.871094" xlink:href="#DejaVuSansMono-50"/>
      <use x="903.076172" xlink:href="#DejaVuSansMono-48"/>
      <use x="963.28125" xlink:href="#DejaVuSansMono-49"/>
      <use x="1023.486328" xlink:href="#DejaVuSansMono-57"/>
      <use x="1083.691406" xlink:href="#DejaVuSansMono-32"/>
      <use x="1143.896484" xlink:href="#DejaVuSansMono-48"/>
      <use x="1204.101562" xlink:href="#DejaVuSansMono-54"/>
      <use x="1264.306641" xlink:href="#DejaVuSansMono-32"/>
      <use x="1324.511719" xlink:href="#DejaVuSansMono-48"/>
      <use x="1384.716797" xlink:href="#DejaVuSansMono-54"/>
     </g>
    </g>
   </g>
   <g id="matplotlib.axis_4">
    <g id="ytick_4">
     <g id="line2d_24">
      <path clip-path="url(#pbd4368a583)" d="M 334.8 77.639035 
L 550.8 77.639035 
" style="fill:none;stroke:#c8d9cd;stroke-linecap:square;stroke-width:0.8;"/>
     </g>
     <g id="line2d_25">
      <g>
       <use style="stroke:#000000;stroke-width:0.8;" x="334.8" xlink:href="#med1de89dd7" y="77.639035"/>
      </g>
     </g>
    </g>
    <g id="ytick_5">
     <g id="line2d_26">
      <path clip-path="url(#pbd4368a583)" d="M 334.8 52.814709 
L 550.8 52.814709 
" style="fill:none;stroke:#c8d9cd;stroke-linecap:square;stroke-width:0.8;"/>
     </g>
     <g id="line2d_27">
      <g>
       <use style="stroke:#000000;stroke-width:0.8;" x="334.8" xlink:href="#med1de89dd7" y="52.814709"/>
      </g>
     </g>
    </g>
    <g id="ytick_6">
     <g id="line2d_28">
      <path clip-path="url(#pbd4368a583)" d="M 334.8 27.990384 
L 550.8 27.990384 
" style="fill:none;stroke:#c8d9cd;stroke-linecap:square;stroke-width:0.8;"/>
     </g>
     <g id="line2d_29">
      <g>
       <use style="stroke:#000000;stroke-width:0.8;" x="334.8" xlink:href="#med1de89dd7" y="27.990384"/>
      </g>
     </g>
    </g>
   </g>
   <g id="line2d_30">
    <path clip-path="url(#pbd4368a583)" d="M 334.875 27.990384 
L 335.4875 28.308136 
L 335.7925 28.625887 
L 336.2525 28.720219 
L 336.71 29.355722 
L 337.015 29.405371 
L 337.1675 29.24153 
L 337.785 29.847244 
L 338.5525 29.271319 
L 338.86 29.529492 
L 339.015 29.519563 
L 339.1675 29.698298 
L 339.3225 30.269257 
L 339.4775 29.648649 
L 339.63 29.613895 
L 339.94 28.745044 
L 340.2525 28.794692 
L 340.71 27.657738 
L 341.015 26.868325 
L 341.1675 24.380927 
L 341.3225 24.559662 
L 341.475 21.645287 
L 341.63 21.630392 
L 341.7825 19.813251 
L 341.9375 20.925381 
L 342.09 24.102895 
L 342.2425 24.29156 
L 342.3975 23.54683 
L 342.55 24.495119 
L 343.0125 25.443408 
L 343.165 25.021395 
L 343.32 25.378865 
L 343.78 27.493898 
L 343.93 27.533617 
L 344.085 27.960595 
L 344.24 26.927903 
L 344.3925 25.145517 
L 344.7025 24.425611 
L 345.005 24.167438 
L 345.3125 25.229919 
L 345.615 24.4554 
L 345.7675 24.390857 
L 345.9175 24.539803 
L 346.2225 26.396663 
L 346.3725 26.347014 
L 346.685 24.405752 
L 346.8375 24.500084 
L 347.2975 22.533998 
L 347.45 22.816995 
L 347.6025 24.013527 
L 348.0625 23.407814 
L 348.2175 24.043316 
L 348.37 24.058211 
L 348.8325 26.044157 
L 349.1375 29.42523 
L 349.29 30.035909 
L 349.4425 30.030944 
L 349.75 29.648649 
L 349.9025 29.276284 
L 350.67 26.019333 
L 350.975 25.334181 
L 351.4325 25.969684 
L 351.89 26.252681 
L 352.3475 25.637038 
L 352.5025 26.148419 
L 352.81 28.471976 
L 352.9625 28.610992 
L 353.4225 26.232822 
L 353.5775 25.080973 
L 353.73 25.0065 
L 354.0325 26.585327 
L 354.34 28.114506 
L 354.6475 28.556379 
L 354.95 26.898114 
L 355.2575 27.03713 
L 355.8725 28.844341 
L 356.0225 29.206776 
L 356.175 29.221671 
L 356.3275 30.006119 
L 356.4825 30.1501 
L 357.095 24.629171 
L 357.2475 23.551795 
L 357.4 23.675916 
L 357.5525 24.028422 
L 358.01 21.799197 
L 358.315 24.917133 
L 358.6225 28.064857 
L 358.775 29.25146 
L 359.08 29.420265 
L 359.385 31.277125 
L 359.54 31.579982 
L 359.6925 31.053706 
L 359.8475 30.954409 
L 360.0025 31.63956 
L 360.3075 34.613514 
L 360.46 34.40499 
L 361.0725 25.627108 
L 361.2275 25.453338 
L 361.8425 28.571273 
L 361.9975 29.400406 
L 362.4575 28.035068 
L 362.6125 28.457081 
L 362.765 29.216706 
L 362.92 29.350757 
L 363.5275 27.523687 
L 363.8325 28.278346 
L 364.14 27.305233 
L 364.295 27.245654 
L 364.45 27.330057 
L 364.6025 27.225795 
L 364.7575 27.747106 
L 364.91 27.762 
L 365.0625 27.896052 
L 365.215 27.702422 
L 365.3675 27.995349 
L 365.6725 28.054927 
L 366.44 31.46579 
L 366.7475 32.185695 
L 366.9 32.111222 
L 367.2025 32.453798 
L 367.355 32.369395 
L 367.8225 32.850987 
L 368.125 32.617638 
L 368.2775 32.647428 
L 368.585 33.193563 
L 368.8925 33.238247 
L 369.0475 33.412017 
L 369.6625 35.348314 
L 369.9675 35.229157 
L 370.2775 36.520022 
L 370.435 38.401706 
L 370.74 36.23206 
L 370.8925 32.37436 
L 371.045 31.44593 
L 371.1975 52.516817 
L 371.35 53.951663 
L 371.8075 64.631088 
L 371.96 63.201207 
L 372.265 76.045313 
L 372.4175 77.058145 
L 372.5725 80.965494 
L 372.88 92.34 
L 373.1875 90.776068 
L 373.4925 90.155459 
L 373.8 75.434635 
L 374.2575 70.822275 
L 374.4125 70.320824 
L 374.8675 66.309213 
L 375.18 62.560739 
L 375.3325 61.359242 
L 375.79 53.400563 
L 376.405 44.71205 
L 376.8675 42.870085 
L 377.02 42.954487 
L 377.175 40.328074 
L 377.4825 31.992065 
L 377.635 31.788506 
L 377.79 33.044617 
L 378.095 39.245733 
L 378.2475 39.523766 
L 378.4 41.415379 
L 378.555 40.958612 
L 378.705 41.509712 
L 379.01 39.747185 
L 379.1625 38.505968 
L 379.315 38.332198 
L 379.4675 39.176225 
L 379.7725 38.332198 
L 379.9275 39.434398 
L 380.08 39.513836 
L 380.5375 35.601522 
L 380.6925 34.613514 
L 380.995 35.636276 
L 381.1475 34.916371 
L 381.3 35.452576 
L 381.61 41.127417 
L 381.7675 42.48779 
L 381.9225 42.860155 
L 382.3825 48.391015 
L 382.845 40.288355 
L 383.15 41.241609 
L 383.4575 38.461285 
L 383.615 38.937912 
L 383.77 40.055006 
L 384.0775 38.873368 
L 384.23 37.369014 
L 384.3825 37.522925 
L 384.5375 37.086017 
L 384.69 37.234963 
L 384.845 36.286674 
L 385.15 37.542785 
L 385.3025 37.021474 
L 385.455 34.41492 
L 385.6075 34.146817 
L 385.9125 39.702501 
L 386.22 32.424009 
L 386.375 32.275063 
L 386.5275 31.555157 
L 386.6775 31.440965 
L 386.985 33.416982 
L 387.1375 33.188598 
L 387.2925 32.404149 
L 387.445 32.597779 
L 387.7525 36.187376 
L 387.905 34.623444 
L 388.0575 34.608549 
L 388.2125 35.631311 
L 388.5175 33.426911 
L 388.82 31.157968 
L 388.975 31.64949 
L 389.28 36.604425 
L 389.4325 33.461665 
L 389.585 34.067379 
L 389.89 40.551493 
L 390.1925 37.35412 
L 390.345 36.60939 
L 390.65 33.848925 
L 390.9575 33.09923 
L 391.2625 40.601141 
L 391.4175 38.014447 
L 391.57 38.575476 
L 391.725 37.880395 
L 391.88 36.61932 
L 392.0325 37.061193 
L 392.185 36.574636 
L 392.49 35.015668 
L 392.6425 34.504287 
L 392.7925 34.891547 
L 392.945 35.765363 
L 393.25 35.085176 
L 393.7075 37.453417 
L 394.015 36.95693 
L 394.1675 37.289576 
L 394.4725 36.688828 
L 394.7775 37.279647 
L 394.9325 37.766203 
L 395.085 37.607328 
L 395.235 37.731449 
L 395.5425 40.243671 
L 395.6975 40.288355 
L 396.005 36.157587 
L 396.1575 38.674774 
L 396.3125 43.227555 
L 396.4675 42.994206 
L 396.77 46.315701 
L 396.9225 46.603663 
L 397.685 41.723201 
L 397.835 41.673552 
L 398.14 40.779877 
L 398.605 43.371536 
L 399.2175 38.049201 
L 399.3725 37.52789 
L 399.5225 37.607328 
L 399.675 37.418663 
L 399.98 36.05829 
L 400.29 36.42569 
L 400.445 36.088079 
L 400.755 36.892387 
L 401.0575 36.41576 
L 401.215 35.958993 
L 401.6775 33.963117 
L 401.98 32.885741 
L 402.2875 31.515438 
L 402.595 30.373519 
L 403.2075 28.908884 
L 403.36 28.89399 
L 403.5125 28.69043 
L 404.28 26.848465 
L 404.895 25.920035 
L 405.36 26.67966 
L 405.515 26.570433 
L 406.1275 23.800038 
L 406.585 24.152544 
L 406.8925 24.614276 
L 407.2 25.046219 
L 407.355 25.502987 
L 407.5075 25.552635 
L 407.9625 25.185235 
L 408.42 23.879476 
L 408.8825 23.899335 
L 409.0325 23.869546 
L 409.4875 24.207157 
L 410.1025 23.308516 
L 410.405 23.665987 
L 410.5575 23.55676 
L 410.7075 23.248938 
L 410.8625 23.18936 
L 411.17 22.901398 
L 411.3225 23.000695 
L 411.625 22.807065 
L 411.9325 22.340368 
L 412.085 22.26093 
L 412.395 22.394981 
L 412.705 22.246035 
L 412.8575 22.231141 
L 413.0125 22.072265 
L 413.165 22.166597 
L 413.4725 22.002757 
L 413.93 21.645287 
L 414.085 21.749549 
L 414.5475 21.5162 
L 414.7 21.590673 
L 415.16 21.223273 
L 415.625 20.602665 
L 415.7775 20.637419 
L 416.0875 20.40407 
L 416.3925 20.43386 
L 416.6975 20.523227 
L 418.085 19.728849 
L 419.1575 20.260089 
L 420.0775 19.565008 
L 420.38 19.942338 
L 420.6875 20.03667 
L 421.1475 20.026741 
L 421.765 20.389176 
L 422.2275 20.071424 
L 422.685 19.624587 
L 423.2975 19.058592 
L 423.4525 19.142995 
L 423.755 19.053627 
L 424.065 19.152924 
L 424.22 19.326695 
L 424.525 19.291941 
L 424.68 19.440887 
L 425.14 19.167819 
L 425.7525 19.30187 
L 426.06 19.465711 
L 426.52 19.247257 
L 426.6725 19.316765 
L 426.98 19.187678 
L 427.1325 19.341589 
L 427.4375 19.396203 
L 427.745 19.614657 
L 428.0525 19.843041 
L 428.5125 19.887724 
L 429.1275 19.142995 
L 429.745 18.194705 
L 430.355 18.169881 
L 430.5075 18.169881 
L 430.8125 18.294003 
L 431.2775 18.234424 
L 431.5825 18.224495 
L 431.8875 18.140092 
L 432.1925 17.83227 
L 432.8075 17.395362 
L 432.9625 17.623746 
L 433.2675 18.735876 
L 433.4225 18.810349 
L 433.7325 18.179811 
L 433.885 17.812411 
L 434.04 17.767727 
L 434.8025 18.735876 
L 435.1075 18.442949 
L 435.8775 16.74 
L 436.0325 16.774754 
L 436.185 16.958454 
L 436.6425 17.812411 
L 436.7925 17.46487 
L 436.945 17.469835 
L 437.0975 17.678359 
L 437.555 17.365573 
L 437.86 17.653535 
L 438.015 17.549273 
L 438.1675 17.638641 
L 438.6275 17.529414 
L 438.7825 17.519484 
L 438.9375 17.628711 
L 439.24 17.981216 
L 439.7 18.159951 
L 439.855 18.130162 
L 440.1625 18.289038 
L 440.775 18.040795 
L 441.39 18.418124 
L 442.3175 18.577 
L 442.47 18.725946 
L 442.625 18.651473 
L 442.93 18.974189 
L 443.395 18.805384 
L 443.85 18.691192 
L 444.9225 19.490535 
L 445.075 19.525289 
L 445.2275 20.414 
L 445.3825 19.560043 
L 445.535 19.460746 
L 445.8375 19.569973 
L 446.605 20.389176 
L 447.5275 20.860838 
L 447.835 21.054468 
L 448.45 21.253062 
L 448.605 21.123976 
L 448.91 21.183554 
L 449.365 20.855873 
L 449.975 21.416903 
L 450.2825 21.754514 
L 451.045 22.300649 
L 451.81 22.216246 
L 452.12 22.221211 
L 452.575 21.764443 
L 452.88 21.784303 
L 453.19 22.027581 
L 453.4975 22.717698 
L 454.1075 24.897273 
L 454.415 25.234884 
L 454.5675 25.170341 
L 454.875 24.84266 
L 455.03 24.892308 
L 455.3375 24.663925 
L 455.49 24.797976 
L 455.645 24.708608 
L 455.7975 24.857554 
L 455.9475 24.817835 
L 456.405 25.145517 
L 457.0225 25.448373 
L 457.175 25.185235 
L 457.635 25.721441 
L 457.7875 25.900176 
L 458.095 25.865422 
L 458.4025 26.277506 
L 458.5575 26.788887 
L 458.71 26.764063 
L 458.8625 26.922938 
L 459.0175 26.883219 
L 459.17 26.972587 
L 459.3225 26.888184 
L 459.625 26.600222 
L 460.2475 28.184014 
L 460.5525 28.248557 
L 460.7075 28.556379 
L 461.015 28.010244 
L 461.17 28.804622 
L 461.475 29.147198 
L 461.63 29.579141 
L 461.7875 29.201811 
L 461.9425 29.172022 
L 462.095 29.9664 
L 462.2475 29.43516 
L 462.4 29.474879 
L 462.7075 30.850146 
L 462.8625 30.681341 
L 463.0175 30.949444 
L 463.17 30.780638 
L 463.63 31.947382 
L 463.7825 32.001995 
L 463.9375 31.778576 
L 464.09 32.473657 
L 464.4 31.808365 
L 464.5525 31.907663 
L 464.705 31.768646 
L 464.8575 31.962276 
L 465.01 32.582884 
L 465.1625 32.652392 
L 465.315 32.55806 
L 465.47 32.73183 
L 465.625 32.587849 
L 465.7775 32.870847 
L 465.9325 32.850987 
L 466.24 35.025598 
L 466.5475 33.699979 
L 466.85 35.045457 
L 467.0025 34.434779 
L 467.3075 34.980914 
L 467.4625 34.663163 
L 467.6175 35.636276 
L 467.77 34.975949 
L 467.9225 35.065317 
L 468.075 35.87459 
L 468.2275 35.998711 
L 468.535 35.894449 
L 468.6875 36.490233 
L 468.8425 37.850606 
L 468.995 37.51796 
L 469.1475 37.532855 
L 469.3 36.673933 
L 469.4525 37.066157 
L 469.605 36.887422 
L 469.7575 37.259787 
L 469.91 37.165455 
L 470.2175 36.753371 
L 470.3725 36.763301 
L 470.5275 36.306533 
L 470.6825 37.200209 
L 470.8375 37.234963 
L 471.145 36.624284 
L 471.2975 37.378944 
L 471.45 36.445549 
L 471.605 36.465409 
L 471.755 37.264752 
L 471.9075 37.041333 
L 472.0625 37.552714 
L 472.2175 37.229998 
L 472.37 36.549812 
L 472.525 38.545687 
L 472.68 38.287514 
L 472.8325 37.632152 
L 472.9875 37.741379 
L 473.2925 38.153463 
L 473.755 37.155525 
L 474.06 38.07899 
L 474.2125 38.43646 
L 474.3675 39.940814 
L 474.83 37.69173 
L 475.1375 39.911025 
L 475.2925 39.632993 
L 475.6 38.411636 
L 475.7525 38.605266 
L 476.0625 39.950744 
L 476.215 39.642922 
L 476.52 38.441425 
L 476.6725 38.530793 
L 476.825 38.416601 
L 476.9775 38.510933 
L 477.13 39.464187 
L 477.4325 39.210979 
L 477.745 39.345031 
L 477.9 40.28339 
L 478.5075 39.151401 
L 478.66 39.116647 
L 478.8125 39.240768 
L 479.425 40.85435 
L 479.5775 40.149339 
L 480.0325 41.37566 
L 480.34 40.869244 
L 480.495 41.157206 
L 480.645 41.748025 
L 480.7975 41.688447 
L 480.9525 40.958612 
L 481.1025 41.112522 
L 481.255 41.57922 
L 481.41 41.524606 
L 481.715 40.85435 
L 481.87 40.769947 
L 482.0225 40.869244 
L 482.3275 41.877112 
L 482.48 42.125355 
L 482.9375 41.896971 
L 483.09 41.564325 
L 483.395 40.481985 
L 483.5475 40.427371 
L 483.8525 41.072804 
L 485.0875 42.309055 
L 485.24 42.175004 
L 485.5475 42.547368 
L 485.8525 42.48779 
L 487.07 43.982214 
L 487.22 43.997109 
L 488.445 45.700058 
L 488.905 46.102212 
L 489.0575 45.953266 
L 489.21 46.042633 
L 489.3625 46.35542 
L 489.665 46.151861 
L 489.82 46.236263 
L 490.2825 46.91645 
L 490.435 46.633452 
L 490.59 46.653312 
L 490.8975 47.025677 
L 491.05 46.931344 
L 491.5125 47.720758 
L 492.1275 47.293779 
L 492.4325 47.159728 
L 492.5875 47.095185 
L 492.745 47.373217 
L 493.0475 47.388112 
L 493.2025 47.169658 
L 493.51 47.760477 
L 493.665 47.81509 
L 493.8175 47.725723 
L 494.1225 47.323569 
L 494.2775 47.482444 
L 494.4325 47.378182 
L 494.7375 47.551952 
L 495.045 47.596636 
L 495.1975 47.800196 
L 495.35 47.780336 
L 495.655 48.083193 
L 495.9625 48.083193 
L 496.115 48.028579 
L 496.8775 47.278885 
L 497.3375 47.28385 
L 497.4925 47.26399 
L 497.6475 47.462585 
L 498.105 47.254061 
L 498.565 47.715793 
L 498.7175 47.755512 
L 499.1775 47.219306 
L 499.48 46.802258 
L 499.94 46.127036 
L 500.0925 45.799355 
L 500.245 45.953266 
L 500.5525 45.709988 
L 500.705 45.546147 
L 500.8575 45.759636 
L 501.1625 45.461744 
L 501.6225 44.31486 
L 501.775 44.036828 
L 502.24 44.14109 
L 502.3975 43.788585 
L 502.55 43.937531 
L 502.7025 44.290036 
L 502.8575 44.205633 
L 503.01 43.897812 
L 503.165 44.051723 
L 503.3175 43.96732 
L 503.47 44.215563 
L 503.625 44.170879 
L 503.93 43.530412 
L 504.2375 43.659498 
L 504.545 42.929663 
L 504.85 42.100531 
L 505.0025 41.896971 
L 505.1575 41.916831 
L 505.31 41.807604 
L 505.615 42.105496 
L 505.925 41.941655 
L 506.2325 42.264371 
L 506.385 42.31402 
L 506.69 41.797674 
L 506.995 41.514677 
L 507.1475 41.703341 
L 507.45 41.321047 
L 507.6025 41.335941 
L 507.755 41.519641 
L 507.905 41.892006 
L 508.0575 41.842358 
L 508.365 41.484887 
L 508.515 41.658658 
L 508.67 41.633833 
L 508.825 41.911866 
L 509.4425 41.296222 
L 509.5975 40.908963 
L 509.9025 40.864279 
L 510.0575 41.023155 
L 510.21 41.013225 
L 510.5175 40.561422 
L 511.59 39.767044 
L 511.895 39.632993 
L 512.05 39.201049 
L 512.2025 39.146436 
L 512.51 39.290417 
L 513.13 38.779036 
L 513.2825 38.808825 
L 513.4375 38.724422 
L 513.59 38.501003 
L 513.8925 38.888263 
L 514.0475 39.166295 
L 514.5075 38.158428 
L 514.8175 37.989622 
L 515.1225 37.438522 
L 515.275 37.463347 
L 515.7425 38.093885 
L 516.0525 37.503066 
L 516.3575 36.78316 
L 517.1225 37.195244 
L 517.58 35.815011 
L 518.0375 36.073184 
L 518.34 35.968922 
L 518.6475 36.271779 
L 518.8025 36.336322 
L 518.9575 36.217166 
L 519.4175 35.055387 
L 520.03 36.202271 
L 520.34 35.527049 
L 520.495 35.447611 
L 521.11 35.983817 
L 521.72 35.144755 
L 522.0275 35.397963 
L 522.4875 35.31356 
L 523.55 34.995809 
L 523.855 35.105036 
L 524.1625 34.673093 
L 524.3175 34.315622 
L 524.4725 34.320587 
L 524.6275 34.529111 
L 524.9325 35.179509 
L 525.085 35.095106 
L 525.545 33.516279 
L 525.8525 33.86382 
L 526.005 33.883679 
L 526.4625 33.471595 
L 527.07 33.630471 
L 527.2225 33.575857 
L 527.53 33.873749 
L 527.685 33.868784 
L 527.84 33.749628 
L 528.1475 33.992906 
L 528.455 34.246114 
L 528.61 33.933328 
L 529.07 32.220449 
L 529.2225 32.314782 
L 529.53 33.089301 
L 529.685 33.183633 
L 530.145 31.167898 
L 530.3 31.028882 
L 530.605 31.515438 
L 530.7575 31.515438 
L 530.91 31.381387 
L 531.37 30.467852 
L 531.6775 30.656517 
L 531.9825 30.909725 
L 532.7475 29.698298 
L 532.9 29.594036 
L 533.2075 29.688368 
L 533.6725 30.408273 
L 533.9775 29.877033 
L 534.2875 29.117409 
L 534.44 29.028041 
L 534.9025 29.162092 
L 535.2075 29.028041 
L 535.36 29.042936 
L 535.6675 28.69043 
L 536.28 29.028041 
L 536.585 29.504668 
L 536.8925 29.400406 
L 537.1975 28.993287 
L 537.505 28.695395 
L 537.66 28.854271 
L 537.965 29.430195 
L 538.1175 29.365652 
L 538.2725 29.901857 
L 538.58 29.430195 
L 538.885 29.350757 
L 539.195 29.296144 
L 539.6525 29.335863 
L 540.1125 30.229538 
L 540.4175 30.646587 
L 540.57 30.72106 
L 540.7225 30.522465 
L 541.0275 29.837314 
L 541.18 29.673473 
L 541.4875 29.653614 
L 541.795 29.673473 
L 542.1025 29.827384 
L 542.2575 29.703263 
L 542.4125 29.420265 
L 542.7175 28.546449 
L 543.0225 28.610992 
L 543.48 28.556379 
L 543.635 28.511695 
L 543.785 28.645746 
L 543.94 28.457081 
L 544.09 28.471976 
L 544.2425 28.610992 
L 544.5475 28.615957 
L 544.7 28.804622 
L 544.85 28.789727 
L 545.31 27.970525 
L 545.465 28.084717 
L 545.62 27.905981 
L 545.925 27.940736 
L 546.08 28.079752 
L 546.3875 28.432257 
L 547.1575 28.238627 
L 547.31 28.407433 
L 547.4625 28.382609 
L 548.38 27.245654 
L 548.6825 27.498863 
L 549.1425 28.010244 
L 549.295 27.96556 
L 549.905 27.166217 
L 550.52 27.379706 
L 550.675 27.300268 
L 550.675 27.300268 
" style="fill:none;stroke:#ff0000;stroke-linecap:square;stroke-width:1.5;"/>
   </g>
   <g id="patch_7">
    <path d="M 334.8 96.12 
L 334.8 12.96 
" style="fill:none;stroke:#445753;stroke-linecap:square;stroke-linejoin:miter;stroke-width:3;"/>
   </g>
   <g id="patch_8">
    <path d="M 334.8 96.12 
L 550.8 96.12 
" style="fill:none;stroke:#445753;stroke-linecap:square;stroke-linejoin:miter;stroke-width:3;"/>
   </g>
   <g id="text_16">
    <g id="patch_9">
     <path d="M 413.554688 11.415625 
L 472.045312 11.415625 
L 472.045312 -8.118125 
L 413.554688 -8.118125 
z
" style="fill:#f4f7f7;stroke:#f4f7f7;stroke-linejoin:miter;"/>
    </g>
    <a xlink:href="http://google.com">
     <!-- Y-Field -->
     <defs>
      <path d="M 0.390625 72.90625 
L 15.921875 72.90625 
L 30.078125 43.609375 
L 44.28125 72.90625 
L 59.8125 72.90625 
L 37.3125 28.71875 
L 37.3125 0 
L 22.90625 0 
L 22.90625 28.71875 
z
" id="DejaVuSansMono-Bold-89"/>
     </defs>
     <g style="fill:#222b29;" transform="translate(417.514687 4.96)scale(0.12 -0.12)">
      <use xlink:href="#DejaVuSansMono-Bold-89"/>
      <use x="60.205078" xlink:href="#DejaVuSansMono-Bold-45"/>
      <use x="120.410156" xlink:href="#DejaVuSansMono-Bold-70"/>
      <use x="180.615234" xlink:href="#DejaVuSansMono-Bold-105"/>
      <use x="240.820312" xlink:href="#DejaVuSansMono-Bold-101"/>
      <use x="301.025391" xlink:href="#DejaVuSansMono-Bold-108"/>
      <use x="361.230469" xlink:href="#DejaVuSansMono-Bold-100"/>
     </g>
    </a>
   </g>
  </g>
  <g id="axes_3">
   <g id="patch_10">
    <path d="M 561.6 96.12 
L 777.6 96.12 
L 777.6 12.96 
L 561.6 12.96 
z
" style="fill:#a6c2bc;"/>
   </g>
   <g id="matplotlib.axis_5">
    <g id="xtick_9">
     <g id="line2d_31">
      <path clip-path="url(#pc9c58891e4)" d="M 561.6 96.12 
L 561.6 12.96 
" style="fill:none;stroke:#c8d9cd;stroke-linecap:square;stroke-width:0.8;"/>
     </g>
     <g id="line2d_32">
      <g>
       <use style="stroke:#000000;stroke-width:0.8;" x="561.6" xlink:href="#m155d4eb37f" y="96.12"/>
      </g>
     </g>
     <g id="text_17">
      <!-- 00:00 -->
      <g transform="translate(547.190625 110.718438)scale(0.1 -0.1)">
       <use xlink:href="#DejaVuSans-48"/>
       <use x="63.623047" xlink:href="#DejaVuSans-48"/>
       <use x="127.246094" xlink:href="#DejaVuSans-58"/>
       <use x="160.9375" xlink:href="#DejaVuSans-48"/>
       <use x="224.560547" xlink:href="#DejaVuSans-48"/>
      </g>
     </g>
    </g>
    <g id="xtick_10">
     <g id="line2d_33">
      <path clip-path="url(#pc9c58891e4)" d="M 615.6 96.12 
L 615.6 12.96 
" style="fill:none;stroke:#c8d9cd;stroke-linecap:square;stroke-width:0.8;"/>
     </g>
     <g id="line2d_34">
      <g>
       <use style="stroke:#000000;stroke-width:0.8;" x="615.6" xlink:href="#m155d4eb37f" y="96.12"/>
      </g>
     </g>
     <g id="text_18">
      <!-- 06:00 -->
      <g transform="translate(601.190625 110.718438)scale(0.1 -0.1)">
       <use xlink:href="#DejaVuSans-48"/>
       <use x="63.623047" xlink:href="#DejaVuSans-54"/>
       <use x="127.246094" xlink:href="#DejaVuSans-58"/>
       <use x="160.9375" xlink:href="#DejaVuSans-48"/>
       <use x="224.560547" xlink:href="#DejaVuSans-48"/>
      </g>
     </g>
    </g>
    <g id="xtick_11">
     <g id="line2d_35">
      <path clip-path="url(#pc9c58891e4)" d="M 669.6 96.12 
L 669.6 12.96 
" style="fill:none;stroke:#c8d9cd;stroke-linecap:square;stroke-width:0.8;"/>
     </g>
     <g id="line2d_36">
      <g>
       <use style="stroke:#000000;stroke-width:0.8;" x="669.6" xlink:href="#m155d4eb37f" y="96.12"/>
      </g>
     </g>
     <g id="text_19">
      <!-- 12:00 -->
      <g transform="translate(655.190625 110.718438)scale(0.1 -0.1)">
       <use xlink:href="#DejaVuSans-49"/>
       <use x="63.623047" xlink:href="#DejaVuSans-50"/>
       <use x="127.246094" xlink:href="#DejaVuSans-58"/>
       <use x="160.9375" xlink:href="#DejaVuSans-48"/>
       <use x="224.560547" xlink:href="#DejaVuSans-48"/>
      </g>
     </g>
    </g>
    <g id="xtick_12">
     <g id="line2d_37">
      <path clip-path="url(#pc9c58891e4)" d="M 723.6 96.12 
L 723.6 12.96 
" style="fill:none;stroke:#c8d9cd;stroke-linecap:square;stroke-width:0.8;"/>
     </g>
     <g id="line2d_38">
      <g>
       <use style="stroke:#000000;stroke-width:0.8;" x="723.6" xlink:href="#m155d4eb37f" y="96.12"/>
      </g>
     </g>
     <g id="text_20">
      <!-- 18:00 -->
      <g transform="translate(709.190625 110.718438)scale(0.1 -0.1)">
       <use xlink:href="#DejaVuSans-49"/>
       <use x="63.623047" xlink:href="#DejaVuSans-56"/>
       <use x="127.246094" xlink:href="#DejaVuSans-58"/>
       <use x="160.9375" xlink:href="#DejaVuSans-48"/>
       <use x="224.560547" xlink:href="#DejaVuSans-48"/>
      </g>
     </g>
    </g>
    <g id="text_21">
     <!-- UTC in Hours  2019 06 06 -->
     <g transform="translate(597.35625 124.449688)scale(0.1 -0.1)">
      <use xlink:href="#DejaVuSansMono-85"/>
      <use x="60.205078" xlink:href="#DejaVuSansMono-84"/>
      <use x="120.410156" xlink:href="#DejaVuSansMono-67"/>
      <use x="180.615234" xlink:href="#DejaVuSansMono-32"/>
      <use x="240.820312" xlink:href="#DejaVuSansMono-105"/>
      <use x="301.025391" xlink:href="#DejaVuSansMono-110"/>
      <use x="361.230469" xlink:href="#DejaVuSansMono-32"/>
      <use x="421.435547" xlink:href="#DejaVuSansMono-72"/>
      <use x="481.640625" xlink:href="#DejaVuSansMono-111"/>
      <use x="541.845703" xlink:href="#DejaVuSansMono-117"/>
      <use x="602.050781" xlink:href="#DejaVuSansMono-114"/>
      <use x="662.255859" xlink:href="#DejaVuSansMono-115"/>
      <use x="722.460938" xlink:href="#DejaVuSansMono-32"/>
      <use x="782.666016" xlink:href="#DejaVuSansMono-32"/>
      <use x="842.871094" xlink:href="#DejaVuSansMono-50"/>
      <use x="903.076172" xlink:href="#DejaVuSansMono-48"/>
      <use x="963.28125" xlink:href="#DejaVuSansMono-49"/>
      <use x="1023.486328" xlink:href="#DejaVuSansMono-57"/>
      <use x="1083.691406" xlink:href="#DejaVuSansMono-32"/>
      <use x="1143.896484" xlink:href="#DejaVuSansMono-48"/>
      <use x="1204.101562" xlink:href="#DejaVuSansMono-54"/>
      <use x="1264.306641" xlink:href="#DejaVuSansMono-32"/>
      <use x="1324.511719" xlink:href="#DejaVuSansMono-48"/>
      <use x="1384.716797" xlink:href="#DejaVuSansMono-54"/>
     </g>
    </g>
   </g>
   <g id="matplotlib.axis_6">
    <g id="ytick_7">
     <g id="line2d_39">
      <path clip-path="url(#pc9c58891e4)" d="M 561.6 77.639035 
L 777.6 77.639035 
" style="fill:none;stroke:#c8d9cd;stroke-linecap:square;stroke-width:0.8;"/>
     </g>
     <g id="line2d_40">
      <g>
       <use style="stroke:#000000;stroke-width:0.8;" x="561.6" xlink:href="#med1de89dd7" y="77.639035"/>
      </g>
     </g>
    </g>
    <g id="ytick_8">
     <g id="line2d_41">
      <path clip-path="url(#pc9c58891e4)" d="M 561.6 52.814709 
L 777.6 52.814709 
" style="fill:none;stroke:#c8d9cd;stroke-linecap:square;stroke-width:0.8;"/>
     </g>
     <g id="line2d_42">
      <g>
       <use style="stroke:#000000;stroke-width:0.8;" x="561.6" xlink:href="#med1de89dd7" y="52.814709"/>
      </g>
     </g>
    </g>
    <g id="ytick_9">
     <g id="line2d_43">
      <path clip-path="url(#pc9c58891e4)" d="M 561.6 27.990384 
L 777.6 27.990384 
" style="fill:none;stroke:#c8d9cd;stroke-linecap:square;stroke-width:0.8;"/>
     </g>
     <g id="line2d_44">
      <g>
       <use style="stroke:#000000;stroke-width:0.8;" x="561.6" xlink:href="#med1de89dd7" y="27.990384"/>
      </g>
     </g>
    </g>
    <g id="text_22">
     <g id="patch_11">
      <path d="M 779.95125 44.3712 
L 818.44875 44.3712 
L 818.44875 23.15745 
L 779.95125 23.15745 
z
" style="fill:#222b29;stroke:#222b29;stroke-linejoin:miter;"/>
     </g>
     <!-- INUK -->
     <defs>
      <path d="M 8.40625 60.203125 
L 8.40625 72.90625 
L 51.8125 72.90625 
L 51.8125 60.203125 
L 37.3125 60.203125 
L 37.3125 12.703125 
L 51.8125 12.703125 
L 51.8125 0 
L 8.40625 0 
L 8.40625 12.703125 
L 22.90625 12.703125 
L 22.90625 60.203125 
z
" id="DejaVuSansMono-Bold-73"/>
      <path d="M 5.8125 72.90625 
L 21.296875 72.90625 
L 41.609375 19.921875 
L 41.609375 72.90625 
L 54.296875 72.90625 
L 54.296875 0 
L 38.921875 0 
L 18.5 52.984375 
L 18.5 0 
L 5.8125 0 
z
" id="DejaVuSansMono-Bold-78"/>
      <path d="M 5.171875 26.90625 
L 5.171875 72.90625 
L 19.578125 72.90625 
L 19.578125 23.296875 
Q 19.578125 17.828125 22.359375 14.71875 
Q 25.140625 11.625 30.078125 11.625 
Q 35.015625 11.625 37.796875 14.71875 
Q 40.578125 17.828125 40.578125 23.296875 
L 40.578125 72.90625 
L 54.984375 72.90625 
L 54.984375 26.90625 
Q 54.984375 12.0625 49.078125 5.3125 
Q 43.171875 -1.421875 30.078125 -1.421875 
Q 17.046875 -1.421875 11.109375 5.3125 
Q 5.171875 12.0625 5.171875 26.90625 
z
" id="DejaVuSansMono-Bold-85"/>
      <path d="M 5.71875 72.90625 
L 20.125 72.90625 
L 20.125 44.09375 
L 42.671875 72.90625 
L 58.984375 72.90625 
L 35.984375 44.1875 
L 59.8125 0 
L 43.796875 0 
L 26.515625 32.8125 
L 20.125 24.703125 
L 20.125 0 
L 5.71875 0 
z
" id="DejaVuSansMono-Bold-75"/>
     </defs>
     <g style="fill:#e1eae8;" transform="translate(784.75125 37.075575)scale(0.12 -0.12)">
      <use xlink:href="#DejaVuSansMono-Bold-73"/>
      <use x="60.205078" xlink:href="#DejaVuSansMono-Bold-78"/>
      <use x="120.410156" xlink:href="#DejaVuSansMono-Bold-85"/>
      <use x="180.615234" xlink:href="#DejaVuSansMono-Bold-75"/>
     </g>
    </g>
   </g>
   <g id="line2d_45">
    <path clip-path="url(#pc9c58891e4)" d="M 561.675 27.990384 
L 561.98 27.95563 
L 562.2875 28.33296 
L 562.5925 28.779798 
L 562.7475 28.695395 
L 562.9 28.745044 
L 563.815 30.89483 
L 563.9675 30.860076 
L 564.1225 31.083495 
L 564.43 31.99703 
L 564.74 32.150941 
L 564.8925 31.99703 
L 565.3525 31.157968 
L 565.66 31.654455 
L 565.815 31.495579 
L 565.9675 31.763682 
L 566.1225 32.453798 
L 566.2775 31.694174 
L 566.43 31.718998 
L 566.585 31.460825 
L 566.74 30.90476 
L 566.895 30.964338 
L 567.0525 30.855111 
L 567.205 30.542325 
L 567.6625 31.773611 
L 567.815 30.974268 
L 567.9675 29.390476 
L 568.1225 29.385511 
L 568.275 29.663544 
L 568.5825 26.908044 
L 568.7375 27.449214 
L 568.89 24.738398 
L 569.0425 24.430576 
L 569.35 22.519103 
L 569.505 23.045379 
L 569.6575 22.623365 
L 569.965 24.083035 
L 570.12 23.378025 
L 570.2725 23.497181 
L 570.425 23.884441 
L 570.58 24.718538 
L 570.885 28.750009 
L 571.1925 28.437222 
L 571.5025 29.817455 
L 571.6525 29.07769 
L 571.805 30.239468 
L 572.1125 29.311038 
L 572.265 31.103355 
L 572.5675 29.926682 
L 572.7175 30.016049 
L 573.3275 31.902698 
L 573.79 32.433938 
L 573.945 31.212582 
L 574.0975 31.406211 
L 574.25 30.845182 
L 574.4025 31.058671 
L 574.555 30.457922 
L 574.71 30.750849 
L 574.8625 31.550192 
L 575.0175 30.348695 
L 575.17 30.408273 
L 575.3225 31.063636 
L 575.4775 30.800498 
L 575.785 29.574176 
L 575.9375 29.147198 
L 576.2425 28.933709 
L 576.3975 29.956471 
L 576.55 30.204714 
L 576.7025 30.1501 
L 576.855 30.294082 
L 577.1625 31.634595 
L 577.315 31.550192 
L 577.775 30.199749 
L 577.9275 29.494738 
L 578.08 29.355722 
L 578.2325 29.79263 
L 578.385 29.648649 
L 578.5375 29.276284 
L 578.69 29.4153 
L 578.995 30.472817 
L 579.1475 30.035909 
L 579.4575 28.87413 
L 579.7625 30.91469 
L 580.2225 34.871687 
L 580.53 33.30279 
L 580.6825 33.382228 
L 580.8325 33.893609 
L 581.14 35.239087 
L 581.4475 36.917212 
L 581.9025 35.745503 
L 582.365 35.437682 
L 582.8225 35.621382 
L 583.4375 32.409114 
L 583.895 31.937452 
L 584.3525 35.715714 
L 585.115 30.452957 
L 585.575 31.505509 
L 585.7275 31.207617 
L 585.88 31.495579 
L 586.0325 31.440965 
L 586.185 31.704103 
L 586.34 32.314782 
L 586.8025 30.264292 
L 586.955 30.72106 
L 587.26 33.213422 
L 587.5675 32.826163 
L 587.7225 33.09923 
L 588.0275 32.071503 
L 588.1825 32.18073 
L 588.335 32.55806 
L 588.4875 32.433938 
L 588.6425 32.702041 
L 588.95 34.181571 
L 589.2575 32.687147 
L 589.4125 32.404149 
L 589.565 32.508411 
L 589.72 32.930425 
L 589.8725 32.56799 
L 590.025 32.563025 
L 590.1775 32.394219 
L 590.3275 32.677217 
L 590.7875 34.687987 
L 591.25 35.805082 
L 591.4025 35.174544 
L 591.5575 35.358244 
L 591.71 35.775293 
L 591.8625 35.710749 
L 592.015 35.442647 
L 592.4725 33.898574 
L 592.625 34.807144 
L 592.7775 34.906441 
L 593.085 33.193563 
L 593.3925 32.746725 
L 593.5475 33.059511 
L 593.7 32.920495 
L 594.155 31.942417 
L 594.31 32.011925 
L 595.23 33.555998 
L 595.5375 34.340447 
L 596 34.340447 
L 596.3075 35.819976 
L 596.9225 40.402547 
L 597.39 48.817993 
L 597.54 49.582582 
L 597.6925 48.703801 
L 597.845 53.296301 
L 597.9975 52.184172 
L 598.15 49.458461 
L 598.455 63.916148 
L 598.6075 63.513994 
L 598.91 49.388953 
L 599.065 61.672029 
L 599.2175 62.54088 
L 599.3725 65.877269 
L 599.525 73.175621 
L 599.68 71.040729 
L 600.14 86.759492 
L 600.2925 80.444183 
L 600.445 69.094502 
L 600.6 72.272015 
L 600.9075 83.765678 
L 601.0575 83.626662 
L 601.2125 83.974202 
L 601.365 80.265448 
L 601.515 83.31884 
L 601.98 78.279502 
L 602.1325 83.447927 
L 602.285 83.13514 
L 602.4375 81.879029 
L 602.74 76.730464 
L 603.205 67.356799 
L 603.3575 67.639796 
L 603.5125 67.540499 
L 603.6675 66.497877 
L 603.975 59.432874 
L 604.2825 51.081971 
L 604.435 52.963655 
L 604.59 53.107636 
L 605.0475 61.930202 
L 605.2 61.900412 
L 605.355 62.401864 
L 605.6575 59.467629 
L 605.81 56.245431 
L 606.2675 58.330674 
L 606.42 56.702199 
L 606.5725 56.627726 
L 606.88 53.465107 
L 607.185 50.168436 
L 607.4925 47.820055 
L 607.645 48.331436 
L 607.795 48.162631 
L 608.1 52.352977 
L 608.41 44.488631 
L 608.7225 43.143152 
L 608.8775 42.989241 
L 609.645 45.302869 
L 609.7975 44.270177 
L 609.95 44.667366 
L 610.1025 44.473736 
L 610.415 44.558139 
L 610.57 44.707085 
L 610.7225 43.778655 
L 610.8775 42.145214 
L 611.03 42.492755 
L 611.49 47.686004 
L 611.645 44.225493 
L 611.7975 46.509331 
L 611.95 46.931344 
L 612.1025 49.036447 
L 612.255 47.040571 
L 612.56 40.303249 
L 612.8675 44.995047 
L 613.02 43.639639 
L 613.3275 49.160569 
L 613.63 44.627647 
L 614.0925 50.719536 
L 614.245 50.118788 
L 614.705 53.187074 
L 614.8575 53.400563 
L 615.0125 54.64178 
L 615.165 54.696393 
L 615.3175 55.793628 
L 615.4675 57.963274 
L 615.62 57.988099 
L 615.9275 59.974045 
L 616.2325 64.070058 
L 616.385 61.607485 
L 616.5375 56.746883 
L 616.69 58.201588 
L 616.84 61.473434 
L 616.9925 60.912404 
L 617.2975 62.069218 
L 617.45 61.592591 
L 617.7575 59.085334 
L 618.0625 49.984736 
L 618.37 59.626504 
L 618.68 62.72458 
L 618.8325 62.858631 
L 619.29 57.074564 
L 619.4425 58.077466 
L 619.745 66.547526 
L 620.05 64.660877 
L 620.3575 71.135061 
L 620.5075 71.035764 
L 620.815 69.307991 
L 621.2725 70.320824 
L 621.425 69.873986 
L 621.5775 69.928599 
L 621.7325 70.534313 
L 621.885 70.176842 
L 622.035 69.536375 
L 622.19 71.616653 
L 622.3425 76.611308 
L 622.4975 75.40981 
L 622.65 72.346488 
L 622.9575 82.102448 
L 623.1125 85.692046 
L 623.2675 86.0942 
L 623.4175 83.3387 
L 623.57 83.229473 
L 623.7225 79.396597 
L 623.875 79.078845 
L 624.0275 81.65561 
L 624.485 79.1136 
L 624.635 78.840532 
L 625.0975 75.454494 
L 625.25 75.896367 
L 625.405 75.886437 
L 625.56 71.408129 
L 625.7125 72.083351 
L 625.865 73.413934 
L 626.0175 73.121007 
L 626.1725 73.528126 
L 626.3225 74.734589 
L 626.475 74.406907 
L 626.78 71.924475 
L 627.09 72.331594 
L 627.4025 70.042791 
L 627.705 71.239324 
L 627.8575 70.737872 
L 628.63 65.475115 
L 628.78 64.914086 
L 629.0875 59.993904 
L 629.395 57.149037 
L 629.5475 56.647585 
L 629.8525 54.587166 
L 630.16 52.447309 
L 631.235 45.824179 
L 631.695 43.748866 
L 631.85 44.007039 
L 632.005 44.036828 
L 632.315 41.524606 
L 632.62 36.852668 
L 632.9275 35.87459 
L 633.08 35.919274 
L 633.2325 36.604425 
L 633.5375 38.709528 
L 633.6925 38.888263 
L 633.8475 38.848544 
L 634.46 39.92592 
L 634.7625 40.943717 
L 635.07 40.27346 
L 635.22 40.139409 
L 635.5275 40.899033 
L 635.8325 41.574255 
L 635.9825 41.584185 
L 636.2875 41.306152 
L 636.5925 40.367793 
L 636.9025 40.422406 
L 637.205 41.524606 
L 637.3575 41.39552 
L 637.5075 40.928822 
L 637.6625 41.186995 
L 637.8175 41.013225 
L 637.97 41.023155 
L 638.5775 40.665685 
L 639.35 41.132382 
L 639.6575 40.735193 
L 639.965 41.147277 
L 640.12 41.023155 
L 640.425 41.142312 
L 640.73 41.445168 
L 641.195 42.542404 
L 641.655 42.810506 
L 641.8075 43.083574 
L 641.96 43.004136 
L 642.115 43.04882 
L 642.425 42.636736 
L 642.5775 42.601982 
L 643.04 41.797674 
L 643.1925 41.837393 
L 643.6525 41.514677 
L 643.9625 41.604044 
L 644.885 40.367793 
L 645.8025 39.349995 
L 646.2625 39.632993 
L 646.415 39.404609 
L 646.725 39.518801 
L 646.8775 39.642922 
L 647.0275 39.578379 
L 647.4875 40.174163 
L 647.7925 40.069901 
L 648.41 40.481985 
L 648.565 40.308214 
L 648.72 40.392617 
L 648.8725 40.243671 
L 649.0275 40.392617 
L 649.18 40.238706 
L 649.6375 40.184093 
L 650.555 39.876271 
L 651.02 40.040112 
L 651.1725 39.901095 
L 651.325 40.005358 
L 651.6325 40.030182 
L 651.7875 40.139409 
L 652.0925 40.055006 
L 652.3975 40.10962 
L 652.5525 40.09969 
L 653.1675 40.630931 
L 653.32 40.685544 
L 653.78 41.112522 
L 654.39 41.087698 
L 654.8525 41.58915 
L 655.3125 42.428212 
L 655.62 42.835331 
L 655.9275 42.924698 
L 656.39 42.889944 
L 657.0025 42.731068 
L 657.3075 42.840296 
L 657.46 42.929663 
L 657.6125 42.830366 
L 657.7675 42.989241 
L 657.9225 42.815471 
L 658.23 42.780717 
L 659.455 41.465028 
L 659.7625 41.469993 
L 660.0675 42.646666 
L 660.3775 44.533315 
L 660.5325 44.975187 
L 660.9925 45.05959 
L 661.3 44.985117 
L 661.4525 45.258185 
L 661.6025 45.297904 
L 661.755 45.700058 
L 662.8325 44.88582 
L 662.985 44.816312 
L 663.5925 46.489471 
L 663.745 46.280947 
L 663.8975 46.266052 
L 664.66 45.62062 
L 664.9675 45.918512 
L 665.275 46.216404 
L 665.4275 46.216404 
L 666.04 46.688066 
L 666.8075 46.444788 
L 666.9625 46.439823 
L 667.2675 46.89659 
L 667.88 46.846942 
L 668.035 46.717855 
L 668.4975 47.035606 
L 668.805 47.398042 
L 669.1175 47.45762 
L 670.195 47.576777 
L 670.65 48.440663 
L 671.7225 48.961974 
L 671.875 49.244971 
L 672.0275 49.230077 
L 672.1825 49.48825 
L 672.335 49.48825 
L 672.4875 49.67195 
L 672.6375 49.557758 
L 672.945 49.602442 
L 673.0975 49.557758 
L 673.405 49.875509 
L 673.865 49.850685 
L 674.02 49.766282 
L 675.25 50.307453 
L 675.5575 50.729466 
L 676.0125 50.903236 
L 676.3175 51.275601 
L 677.235 51.826701 
L 677.3875 52.144453 
L 677.5375 52.099769 
L 677.69 52.218926 
L 677.845 52.154382 
L 678.15 52.298363 
L 678.455 52.208996 
L 678.765 52.313258 
L 678.92 52.680658 
L 679.2225 52.730307 
L 679.68 53.470072 
L 679.99 54.27438 
L 680.755 53.911945 
L 681.0625 54.487869 
L 681.215 54.314099 
L 681.675 55.143231 
L 681.83 55.262388 
L 681.9825 55.689366 
L 682.445 55.55035 
L 683.0525 55.36665 
L 683.515 55.451053 
L 683.6675 55.093582 
L 683.975 54.959531 
L 684.1275 54.592131 
L 684.2825 54.820515 
L 684.435 54.785761 
L 684.5875 54.909882 
L 684.7425 54.885058 
L 685.2025 53.90698 
L 685.51 53.743139 
L 685.8175 54.204872 
L 685.97 54.060891 
L 686.1225 54.125434 
L 686.425 53.71335 
L 686.58 53.256582 
L 687.0475 53.435318 
L 687.2 53.738174 
L 687.3525 53.638877 
L 687.5075 53.350915 
L 687.66 54.140328 
L 687.97 52.819674 
L 688.275 53.738174 
L 688.43 53.579299 
L 688.7425 54.562342 
L 688.895 53.261547 
L 689.0475 53.584263 
L 689.2 53.122531 
L 689.3525 53.067918 
L 689.5075 52.779955 
L 689.6625 53.475036 
L 689.8175 53.465107 
L 689.97 53.221828 
L 690.1225 53.306231 
L 690.2775 54.085715 
L 690.43 53.579299 
L 690.5825 53.549509 
L 690.7375 54.045996 
L 690.89 53.033163 
L 691.2 54.155223 
L 691.3525 53.902015 
L 691.505 54.204872 
L 691.81 53.321126 
L 691.9625 53.976488 
L 692.115 53.614053 
L 692.27 53.658736 
L 692.425 54.021172 
L 692.5775 54.026136 
L 692.7325 54.27438 
L 692.8875 53.043093 
L 693.04 53.340985 
L 693.195 53.981453 
L 693.3475 53.837472 
L 693.65 53.380704 
L 693.8025 54.686464 
L 693.955 53.038128 
L 694.1075 53.405528 
L 694.4175 52.457239 
L 694.57 53.594193 
L 694.7225 52.745201 
L 695.0275 52.685623 
L 695.1825 53.057988 
L 695.335 52.829604 
L 695.4875 52.362907 
L 695.6425 52.248715 
L 696.1 54.006277 
L 696.2525 53.415458 
L 696.405 54.542482 
L 696.5575 53.137426 
L 696.71 53.797753 
L 697.0175 52.864358 
L 697.1725 53.360845 
L 697.6375 53.569369 
L 697.945 54.353818 
L 698.0975 52.660799 
L 698.25 53.405528 
L 698.405 52.218926 
L 698.555 53.137426 
L 698.7075 51.935928 
L 698.8625 52.154382 
L 699.0175 52.030261 
L 699.17 52.293399 
L 699.325 50.75429 
L 699.48 52.491993 
L 699.6325 51.598317 
L 699.7875 52.25368 
L 699.94 52.030261 
L 700.0925 52.313258 
L 700.2475 53.057988 
L 700.4 52.025296 
L 700.555 52.755131 
L 700.7075 51.558599 
L 700.86 51.633072 
L 701.0125 51.404688 
L 701.1675 50.208155 
L 701.3225 51.176304 
L 701.4775 50.371996 
L 701.63 51.091901 
L 701.785 49.647126 
L 701.9375 50.853588 
L 702.0925 51.14155 
L 702.245 50.798974 
L 702.4 50.77415 
L 702.7075 49.885439 
L 702.8625 50.545766 
L 703.015 49.83579 
L 703.1675 50.093963 
L 703.32 49.65209 
L 703.4725 48.857712 
L 703.625 49.666985 
L 703.7775 49.205253 
L 704.08 47.730688 
L 704.2325 47.879634 
L 704.3875 47.646285 
L 704.8525 48.788204 
L 705.155 47.993825 
L 705.3075 48.20235 
L 705.765 46.350455 
L 705.92 46.132001 
L 706.0725 45.158888 
L 706.225 45.198606 
L 706.8325 44.597858 
L 706.985 44.687225 
L 707.14 43.778655 
L 707.445 44.175844 
L 707.7525 43.877952 
L 707.9025 44.076547 
L 708.21 43.997109 
L 708.8225 43.118328 
L 708.975 43.113363 
L 709.28 43.490693 
L 709.7375 44.165914 
L 709.89 43.997109 
L 710.0425 43.594955 
L 710.6525 40.83449 
L 711.5825 39.275522 
L 711.735 39.235804 
L 711.8875 39.359925 
L 712.1925 39.816693 
L 712.3475 39.72236 
L 712.955 38.774071 
L 713.1075 38.808825 
L 713.7175 39.836552 
L 714.02 40.179128 
L 714.33 40.47702 
L 714.635 40.531633 
L 714.94 40.174163 
L 715.245 39.945779 
L 716.01 40.258566 
L 716.315 40.020252 
L 717.6975 37.954868 
L 718.005 38.208076 
L 718.16 38.426531 
L 718.4675 38.361987 
L 719.545 36.43562 
L 719.695 36.361147 
L 720.0025 36.450514 
L 720.31 36.455479 
L 720.465 36.673933 
L 720.6175 36.659039 
L 721.69 35.829906 
L 722.3025 36.286674 
L 722.7625 36.212201 
L 723.0675 35.606487 
L 723.6775 34.007801 
L 723.985 33.963117 
L 724.4475 33.709909 
L 724.7525 34.191501 
L 725.365 35.229157 
L 725.8225 34.94616 
L 725.9775 34.797214 
L 726.74 33.347474 
L 727.2 33.268036 
L 727.6575 34.03759 
L 728.115 33.104195 
L 728.575 31.604806 
L 728.73 31.440965 
L 728.8825 31.604806 
L 729.5025 32.92546 
L 729.6575 32.890706 
L 729.965 33.555998 
L 730.1175 33.560963 
L 730.27 33.86382 
L 730.5775 33.610611 
L 730.885 34.112063 
L 731.0375 34.469533 
L 731.19 34.151782 
L 731.4975 33.089301 
L 731.65 32.841057 
L 731.8025 33.024757 
L 732.11 33.749628 
L 732.725 34.345411 
L 733.0325 35.12986 
L 733.185 35.010703 
L 733.6425 33.908503 
L 733.9475 33.829065 
L 734.25 33.327614 
L 734.4025 33.630471 
L 734.705 33.754593 
L 735.0125 34.01773 
L 735.315 34.062414 
L 735.7775 34.38513 
L 736.0875 34.196465 
L 736.3975 34.504287 
L 736.55 34.39506 
L 736.8575 34.692952 
L 737.3175 34.04752 
L 738.235 34.181571 
L 738.39 34.375201 
L 738.85 34.107098 
L 739.4625 33.471595 
L 739.6175 33.491455 
L 740.39 34.484428 
L 740.5425 34.340447 
L 740.6925 33.978011 
L 741.0025 34.96602 
L 741.155 34.985879 
L 741.3075 35.258947 
L 741.4625 35.030563 
L 741.77 33.506349 
L 741.9225 33.590752 
L 742.075 34.270938 
L 742.3875 34.325552 
L 742.5425 34.226255 
L 742.8525 33.809206 
L 743.31 33.575857 
L 743.9225 32.622603 
L 744.23 31.62963 
L 744.685 32.111222 
L 744.9875 31.584946 
L 745.14 31.659419 
L 745.295 31.887803 
L 745.7575 31.63956 
L 745.91 31.584946 
L 746.065 31.684244 
L 746.37 32.513376 
L 746.6775 33.546068 
L 746.985 33.754593 
L 747.14 33.953187 
L 747.4475 35.164614 
L 747.7575 36.117868 
L 747.91 36.088079 
L 748.215 35.596557 
L 748.3675 35.50719 
L 748.52 35.720679 
L 748.8275 36.539882 
L 748.9825 36.644144 
L 749.135 36.604425 
L 749.59 37.17042 
L 749.8925 37.617258 
L 750.35 37.681801 
L 750.655 37.974728 
L 750.9625 37.205174 
L 751.1175 37.175385 
L 751.7325 38.247795 
L 751.885 37.935009 
L 752.345 36.316463 
L 752.9575 37.066157 
L 753.415 36.321428 
L 753.5675 36.331357 
L 754.485 37.607328 
L 754.9475 37.632152 
L 755.1 37.299506 
L 755.41 35.760398 
L 755.715 33.590752 
L 756.0225 33.084336 
L 756.175 33.079371 
L 756.485 33.511314 
L 756.7925 34.335482 
L 757.255 34.052484 
L 757.71 34.603584 
L 757.8625 34.539041 
L 758.3225 34.092203 
L 758.63 33.918433 
L 758.7825 33.888644 
L 759.24 33.521244 
L 759.7 33.978011 
L 760.3175 35.551874 
L 760.4725 35.790187 
L 761.0875 35.239087 
L 761.855 37.562644 
L 762.16 36.971825 
L 762.4675 36.003676 
L 762.775 35.795152 
L 762.9275 35.810047 
L 763.6925 36.822879 
L 763.9975 37.294541 
L 764.305 37.498101 
L 764.6125 37.274682 
L 765.0725 38.580441 
L 765.225 38.481144 
L 765.5325 37.865501 
L 765.995 38.029341 
L 766.3 38.45632 
L 766.605 38.098849 
L 766.7575 38.163393 
L 767.0675 38.873368 
L 767.37 39.454258 
L 767.5225 39.632993 
L 767.8275 39.37482 
L 768.2875 39.394679 
L 768.4425 39.568449 
L 768.9025 38.992525 
L 769.0575 39.543625 
L 769.2125 39.295382 
L 769.8225 36.083114 
L 769.975 35.735574 
L 770.1275 35.829906 
L 770.585 35.512155 
L 771.0425 35.983817 
L 771.3475 36.088079 
L 771.5 35.924239 
L 772.11 34.544006 
L 772.265 34.38513 
L 772.42 34.419884 
L 772.725 34.75253 
L 772.88 34.678057 
L 773.035 34.817074 
L 773.1875 34.76246 
L 773.34 34.871687 
L 773.6475 35.298666 
L 774.2625 34.524147 
L 774.57 34.02766 
L 774.875 33.665225 
L 775.7875 33.600682 
L 776.095 33.382228 
L 776.5525 33.143914 
L 777.475 31.530333 
L 777.475 31.530333 
" style="fill:none;stroke:#008000;stroke-linecap:square;stroke-width:1.5;"/>
   </g>
   <g id="patch_12">
    <path d="M 561.6 96.12 
L 561.6 12.96 
" style="fill:none;stroke:#445753;stroke-linecap:square;stroke-linejoin:miter;stroke-width:3;"/>
   </g>
   <g id="patch_13">
    <path d="M 561.6 96.12 
L 777.6 96.12 
" style="fill:none;stroke:#445753;stroke-linecap:square;stroke-linejoin:miter;stroke-width:3;"/>
   </g>
   <g id="text_23">
    <g id="patch_14">
     <path d="M 640.354687 11.415625 
L 698.845312 11.415625 
L 698.845312 -8.118125 
L 640.354687 -8.118125 
z
" style="fill:#f4f7f7;stroke:#f4f7f7;stroke-linejoin:miter;"/>
    </g>
    <a xlink:href="http://google.com">
     <!-- Z-Field -->
     <defs>
      <path d="M 6.6875 72.90625 
L 56 72.90625 
L 56 60.984375 
L 22.21875 12.703125 
L 56.6875 12.703125 
L 56.6875 0 
L 5.609375 0 
L 5.609375 11.921875 
L 38.375 60.203125 
L 6.6875 60.203125 
z
" id="DejaVuSansMono-Bold-90"/>
     </defs>
     <g style="fill:#222b29;" transform="translate(644.314687 4.96)scale(0.12 -0.12)">
      <use xlink:href="#DejaVuSansMono-Bold-90"/>
      <use x="60.205078" xlink:href="#DejaVuSansMono-Bold-45"/>
      <use x="120.410156" xlink:href="#DejaVuSansMono-Bold-70"/>
      <use x="180.615234" xlink:href="#DejaVuSansMono-Bold-105"/>
      <use x="240.820312" xlink:href="#DejaVuSansMono-Bold-101"/>
      <use x="301.025391" xlink:href="#DejaVuSansMono-Bold-108"/>
      <use x="361.230469" xlink:href="#DejaVuSansMono-Bold-100"/>
     </g>
    </a>
   </g>
  </g>
 </g>
 <defs>
  <clipPath id="pcc135b902f">
   <rect height="83.16" width="216" x="108" y="12.96"/>
  </clipPath>
  <clipPath id="pbd4368a583">
   <rect height="83.16" width="216" x="334.8" y="12.96"/>
  </clipPath>
  <clipPath id="pc9c58891e4">
   <rect height="83.16" width="216" x="561.6" y="12.96"/>
  </clipPath>
 </defs>
</svg>
