<?xml version="1.0" encoding="utf-8" standalone="no"?>
<!DOCTYPE svg PUBLIC "-//W3C//DTD SVG 1.1//EN"
  "http://www.w3.org/Graphics/SVG/1.1/DTD/svg11.dtd">
<!-- Created with matplotlib (https://matplotlib.org/) -->
<svg height="129.6pt" version="1.1" viewBox="0 0 864 129.6" width="864pt" xmlns="http://www.w3.org/2000/svg" xmlns:xlink="http://www.w3.org/1999/xlink">
 <defs>
  <style type="text/css">
*{stroke-linecap:butt;stroke-linejoin:round;}
  </style>
 </defs>
 <g id="figure_1">
  <g id="patch_1">
   <path d="M 0 129.6 
L 864 129.6 
L 864 0 
L 0 0 
z
" style="fill:#f4f7f7;"/>
  </g>
  <g id="axes_1">
   <g id="patch_2">
    <path d="M 108 115.344 
L 324 115.344 
L 324 15.552 
L 108 15.552 
z
" style="fill:#a6c2bc;"/>
   </g>
   <g id="matplotlib.axis_1">
    <g id="xtick_1">
     <g id="line2d_1">
      <path clip-path="url(#p054ba6745c)" d="M 108 115.344 
L 108 15.552 
" style="fill:none;stroke:#c8d9cd;stroke-linecap:square;stroke-width:0.8;"/>
     </g>
     <g id="line2d_2">
      <defs>
       <path d="M 0 0 
L 0 3.5 
" id="m35cd143f15" style="stroke:#000000;stroke-width:0.8;"/>
      </defs>
      <g>
       <use style="stroke:#000000;stroke-width:0.8;" x="108" xlink:href="#m35cd143f15" y="115.344"/>
      </g>
     </g>
     <g id="text_1">
      <!-- 00:00 -->
      <defs>
       <path d="M 31.78125 66.40625 
Q 24.171875 66.40625 20.328125 58.90625 
Q 16.5 51.421875 16.5 36.375 
Q 16.5 21.390625 20.328125 13.890625 
Q 24.171875 6.390625 31.78125 6.390625 
Q 39.453125 6.390625 43.28125 13.890625 
Q 47.125 21.390625 47.125 36.375 
Q 47.125 51.421875 43.28125 58.90625 
Q 39.453125 66.40625 31.78125 66.40625 
z
M 31.78125 74.21875 
Q 44.046875 74.21875 50.515625 64.515625 
Q 56.984375 54.828125 56.984375 36.375 
Q 56.984375 17.96875 50.515625 8.265625 
Q 44.046875 -1.421875 31.78125 -1.421875 
Q 19.53125 -1.421875 13.0625 8.265625 
Q 6.59375 17.96875 6.59375 36.375 
Q 6.59375 54.828125 13.0625 64.515625 
Q 19.53125 74.21875 31.78125 74.21875 
z
" id="DejaVuSans-48"/>
       <path d="M 11.71875 12.40625 
L 22.015625 12.40625 
L 22.015625 0 
L 11.71875 0 
z
M 11.71875 51.703125 
L 22.015625 51.703125 
L 22.015625 39.3125 
L 11.71875 39.3125 
z
" id="DejaVuSans-58"/>
      </defs>
      <g transform="translate(93.590625 129.942437)scale(0.1 -0.1)">
       <use xlink:href="#DejaVuSans-48"/>
       <use x="63.623047" xlink:href="#DejaVuSans-48"/>
       <use x="127.246094" xlink:href="#DejaVuSans-58"/>
       <use x="160.9375" xlink:href="#DejaVuSans-48"/>
       <use x="224.560547" xlink:href="#DejaVuSans-48"/>
      </g>
     </g>
    </g>
    <g id="xtick_2">
     <g id="line2d_3">
      <path clip-path="url(#p054ba6745c)" d="M 162 115.344 
L 162 15.552 
" style="fill:none;stroke:#c8d9cd;stroke-linecap:square;stroke-width:0.8;"/>
     </g>
     <g id="line2d_4">
      <g>
       <use style="stroke:#000000;stroke-width:0.8;" x="162" xlink:href="#m35cd143f15" y="115.344"/>
      </g>
     </g>
     <g id="text_2">
      <!-- 06:00 -->
      <defs>
       <path d="M 33.015625 40.375 
Q 26.375 40.375 22.484375 35.828125 
Q 18.609375 31.296875 18.609375 23.390625 
Q 18.609375 15.53125 22.484375 10.953125 
Q 26.375 6.390625 33.015625 6.390625 
Q 39.65625 6.390625 43.53125 10.953125 
Q 47.40625 15.53125 47.40625 23.390625 
Q 47.40625 31.296875 43.53125 35.828125 
Q 39.65625 40.375 33.015625 40.375 
z
M 52.59375 71.296875 
L 52.59375 62.3125 
Q 48.875 64.0625 45.09375 64.984375 
Q 41.3125 65.921875 37.59375 65.921875 
Q 27.828125 65.921875 22.671875 59.328125 
Q 17.53125 52.734375 16.796875 39.40625 
Q 19.671875 43.65625 24.015625 45.921875 
Q 28.375 48.1875 33.59375 48.1875 
Q 44.578125 48.1875 50.953125 41.515625 
Q 57.328125 34.859375 57.328125 23.390625 
Q 57.328125 12.15625 50.6875 5.359375 
Q 44.046875 -1.421875 33.015625 -1.421875 
Q 20.359375 -1.421875 13.671875 8.265625 
Q 6.984375 17.96875 6.984375 36.375 
Q 6.984375 53.65625 15.1875 63.9375 
Q 23.390625 74.21875 37.203125 74.21875 
Q 40.921875 74.21875 44.703125 73.484375 
Q 48.484375 72.75 52.59375 71.296875 
z
" id="DejaVuSans-54"/>
      </defs>
      <g transform="translate(147.590625 129.942437)scale(0.1 -0.1)">
       <use xlink:href="#DejaVuSans-48"/>
       <use x="63.623047" xlink:href="#DejaVuSans-54"/>
       <use x="127.246094" xlink:href="#DejaVuSans-58"/>
       <use x="160.9375" xlink:href="#DejaVuSans-48"/>
       <use x="224.560547" xlink:href="#DejaVuSans-48"/>
      </g>
     </g>
    </g>
    <g id="xtick_3">
     <g id="line2d_5">
      <path clip-path="url(#p054ba6745c)" d="M 216 115.344 
L 216 15.552 
" style="fill:none;stroke:#c8d9cd;stroke-linecap:square;stroke-width:0.8;"/>
     </g>
     <g id="line2d_6">
      <g>
       <use style="stroke:#000000;stroke-width:0.8;" x="216" xlink:href="#m35cd143f15" y="115.344"/>
      </g>
     </g>
     <g id="text_3">
      <!-- 12:00 -->
      <defs>
       <path d="M 12.40625 8.296875 
L 28.515625 8.296875 
L 28.515625 63.921875 
L 10.984375 60.40625 
L 10.984375 69.390625 
L 28.421875 72.90625 
L 38.28125 72.90625 
L 38.28125 8.296875 
L 54.390625 8.296875 
L 54.390625 0 
L 12.40625 0 
z
" id="DejaVuSans-49"/>
       <path d="M 19.1875 8.296875 
L 53.609375 8.296875 
L 53.609375 0 
L 7.328125 0 
L 7.328125 8.296875 
Q 12.9375 14.109375 22.625 23.890625 
Q 32.328125 33.6875 34.8125 36.53125 
Q 39.546875 41.84375 41.421875 45.53125 
Q 43.3125 49.21875 43.3125 52.78125 
Q 43.3125 58.59375 39.234375 62.25 
Q 35.15625 65.921875 28.609375 65.921875 
Q 23.96875 65.921875 18.8125 64.3125 
Q 13.671875 62.703125 7.8125 59.421875 
L 7.8125 69.390625 
Q 13.765625 71.78125 18.9375 73 
Q 24.125 74.21875 28.421875 74.21875 
Q 39.75 74.21875 46.484375 68.546875 
Q 53.21875 62.890625 53.21875 53.421875 
Q 53.21875 48.921875 51.53125 44.890625 
Q 49.859375 40.875 45.40625 35.40625 
Q 44.1875 33.984375 37.640625 27.21875 
Q 31.109375 20.453125 19.1875 8.296875 
z
" id="DejaVuSans-50"/>
      </defs>
      <g transform="translate(201.590625 129.942437)scale(0.1 -0.1)">
       <use xlink:href="#DejaVuSans-49"/>
       <use x="63.623047" xlink:href="#DejaVuSans-50"/>
       <use x="127.246094" xlink:href="#DejaVuSans-58"/>
       <use x="160.9375" xlink:href="#DejaVuSans-48"/>
       <use x="224.560547" xlink:href="#DejaVuSans-48"/>
      </g>
     </g>
    </g>
    <g id="xtick_4">
     <g id="line2d_7">
      <path clip-path="url(#p054ba6745c)" d="M 270 115.344 
L 270 15.552 
" style="fill:none;stroke:#c8d9cd;stroke-linecap:square;stroke-width:0.8;"/>
     </g>
     <g id="line2d_8">
      <g>
       <use style="stroke:#000000;stroke-width:0.8;" x="270" xlink:href="#m35cd143f15" y="115.344"/>
      </g>
     </g>
     <g id="text_4">
      <!-- 18:00 -->
      <defs>
       <path d="M 31.78125 34.625 
Q 24.75 34.625 20.71875 30.859375 
Q 16.703125 27.09375 16.703125 20.515625 
Q 16.703125 13.921875 20.71875 10.15625 
Q 24.75 6.390625 31.78125 6.390625 
Q 38.8125 6.390625 42.859375 10.171875 
Q 46.921875 13.96875 46.921875 20.515625 
Q 46.921875 27.09375 42.890625 30.859375 
Q 38.875 34.625 31.78125 34.625 
z
M 21.921875 38.8125 
Q 15.578125 40.375 12.03125 44.71875 
Q 8.5 49.078125 8.5 55.328125 
Q 8.5 64.0625 14.71875 69.140625 
Q 20.953125 74.21875 31.78125 74.21875 
Q 42.671875 74.21875 48.875 69.140625 
Q 55.078125 64.0625 55.078125 55.328125 
Q 55.078125 49.078125 51.53125 44.71875 
Q 48 40.375 41.703125 38.8125 
Q 48.828125 37.15625 52.796875 32.3125 
Q 56.78125 27.484375 56.78125 20.515625 
Q 56.78125 9.90625 50.3125 4.234375 
Q 43.84375 -1.421875 31.78125 -1.421875 
Q 19.734375 -1.421875 13.25 4.234375 
Q 6.78125 9.90625 6.78125 20.515625 
Q 6.78125 27.484375 10.78125 32.3125 
Q 14.796875 37.15625 21.921875 38.8125 
z
M 18.3125 54.390625 
Q 18.3125 48.734375 21.84375 45.5625 
Q 25.390625 42.390625 31.78125 42.390625 
Q 38.140625 42.390625 41.71875 45.5625 
Q 45.3125 48.734375 45.3125 54.390625 
Q 45.3125 60.0625 41.71875 63.234375 
Q 38.140625 66.40625 31.78125 66.40625 
Q 25.390625 66.40625 21.84375 63.234375 
Q 18.3125 60.0625 18.3125 54.390625 
z
" id="DejaVuSans-56"/>
      </defs>
      <g transform="translate(255.590625 129.942437)scale(0.1 -0.1)">
       <use xlink:href="#DejaVuSans-49"/>
       <use x="63.623047" xlink:href="#DejaVuSans-56"/>
       <use x="127.246094" xlink:href="#DejaVuSans-58"/>
       <use x="160.9375" xlink:href="#DejaVuSans-48"/>
       <use x="224.560547" xlink:href="#DejaVuSans-48"/>
      </g>
     </g>
    </g>
    <g id="text_5">
     <!-- UTC in Hours  2019 06 06 -->
     <defs>
      <path d="M 7.171875 27.984375 
L 7.171875 72.90625 
L 17.09375 72.90625 
L 17.09375 23.484375 
Q 17.09375 18.171875 17.375 15.890625 
Q 17.671875 13.625 18.40625 12.40625 
Q 19.96875 9.515625 22.921875 8.046875 
Q 25.875 6.59375 30.078125 6.59375 
Q 34.328125 6.59375 37.25 8.046875 
Q 40.1875 9.515625 41.796875 12.40625 
Q 42.53125 13.625 42.8125 15.859375 
Q 43.109375 18.109375 43.109375 23.390625 
L 43.109375 72.90625 
L 52.984375 72.90625 
L 52.984375 27.984375 
Q 52.984375 16.796875 51.59375 12.078125 
Q 50.203125 7.375 46.78125 4.296875 
Q 43.5625 1.421875 39.40625 0 
Q 35.25 -1.421875 30.078125 -1.421875 
Q 24.953125 -1.421875 20.796875 0 
Q 16.65625 1.421875 13.375 4.296875 
Q 10.015625 7.328125 8.59375 12.125 
Q 7.171875 16.9375 7.171875 27.984375 
z
" id="DejaVuSansMono-85"/>
      <path d="M 2.296875 72.90625 
L 57.90625 72.90625 
L 57.90625 64.59375 
L 35.109375 64.59375 
L 35.109375 0 
L 25.203125 0 
L 25.203125 64.59375 
L 2.296875 64.59375 
z
" id="DejaVuSansMono-84"/>
      <path d="M 52.390625 2.59375 
Q 48.640625 0.59375 44.671875 -0.40625 
Q 40.71875 -1.421875 36.28125 -1.421875 
Q 22.265625 -1.421875 14.515625 8.484375 
Q 6.78125 18.40625 6.78125 36.375 
Q 6.78125 54.25 14.5625 64.234375 
Q 22.359375 74.21875 36.28125 74.21875 
Q 40.71875 74.21875 44.671875 73.21875 
Q 48.640625 72.21875 52.390625 70.21875 
L 52.390625 60.109375 
Q 48.78125 63.09375 44.625 64.65625 
Q 40.484375 66.21875 36.28125 66.21875 
Q 26.65625 66.21875 21.875 58.796875 
Q 17.09375 51.375 17.09375 36.375 
Q 17.09375 21.4375 21.875 14.015625 
Q 26.65625 6.59375 36.28125 6.59375 
Q 40.578125 6.59375 44.703125 8.15625 
Q 48.828125 9.71875 52.390625 12.703125 
z
" id="DejaVuSansMono-67"/>
      <path id="DejaVuSansMono-32"/>
      <path d="M 12.5 54.6875 
L 35.5 54.6875 
L 35.5 6.984375 
L 53.328125 6.984375 
L 53.328125 0 
L 8.6875 0 
L 8.6875 6.984375 
L 26.515625 6.984375 
L 26.515625 47.703125 
L 12.5 47.703125 
z
M 26.515625 75.984375 
L 35.5 75.984375 
L 35.5 64.59375 
L 26.515625 64.59375 
z
" id="DejaVuSansMono-105"/>
      <path d="M 51.3125 33.890625 
L 51.3125 0 
L 42.28125 0 
L 42.28125 33.890625 
Q 42.28125 41.265625 39.6875 44.71875 
Q 37.109375 48.1875 31.59375 48.1875 
Q 25.296875 48.1875 21.890625 43.71875 
Q 18.5 39.265625 18.5 30.90625 
L 18.5 0 
L 9.515625 0 
L 9.515625 54.6875 
L 18.5 54.6875 
L 18.5 46.484375 
Q 20.90625 51.171875 25 53.578125 
Q 29.109375 56 34.71875 56 
Q 43.0625 56 47.1875 50.5 
Q 51.3125 45.015625 51.3125 33.890625 
z
" id="DejaVuSansMono-110"/>
      <path d="M 6.6875 72.90625 
L 16.609375 72.90625 
L 16.609375 43.015625 
L 43.609375 43.015625 
L 43.609375 72.90625 
L 53.515625 72.90625 
L 53.515625 0 
L 43.609375 0 
L 43.609375 34.71875 
L 16.609375 34.71875 
L 16.609375 0 
L 6.6875 0 
z
" id="DejaVuSansMono-72"/>
      <path d="M 30.078125 48.390625 
Q 23.25 48.390625 19.734375 43.0625 
Q 16.21875 37.75 16.21875 27.296875 
Q 16.21875 16.890625 19.734375 11.546875 
Q 23.25 6.203125 30.078125 6.203125 
Q 36.96875 6.203125 40.484375 11.546875 
Q 44 16.890625 44 27.296875 
Q 44 37.75 40.484375 43.0625 
Q 36.96875 48.390625 30.078125 48.390625 
z
M 30.078125 56 
Q 41.453125 56 47.484375 48.625 
Q 53.515625 41.265625 53.515625 27.296875 
Q 53.515625 13.28125 47.5 5.921875 
Q 41.5 -1.421875 30.078125 -1.421875 
Q 18.703125 -1.421875 12.6875 5.921875 
Q 6.6875 13.28125 6.6875 27.296875 
Q 6.6875 41.265625 12.6875 48.625 
Q 18.703125 56 30.078125 56 
z
" id="DejaVuSansMono-111"/>
      <path d="M 9.515625 20.703125 
L 9.515625 54.59375 
L 18.5 54.59375 
L 18.5 20.703125 
Q 18.5 13.328125 21.109375 9.859375 
Q 23.734375 6.390625 29.203125 6.390625 
Q 35.546875 6.390625 38.90625 10.859375 
Q 42.28125 15.328125 42.28125 23.6875 
L 42.28125 54.59375 
L 51.3125 54.59375 
L 51.3125 0 
L 42.28125 0 
L 42.28125 8.203125 
Q 39.890625 3.46875 35.765625 1.015625 
Q 31.640625 -1.421875 26.125 -1.421875 
Q 17.71875 -1.421875 13.609375 4.078125 
Q 9.515625 9.578125 9.515625 20.703125 
z
" id="DejaVuSansMono-117"/>
      <path d="M 56.390625 43.40625 
Q 53.515625 45.65625 50.53125 46.671875 
Q 47.5625 47.703125 44 47.703125 
Q 35.59375 47.703125 31.140625 42.421875 
Q 26.703125 37.15625 26.703125 27.203125 
L 26.703125 0 
L 17.671875 0 
L 17.671875 54.6875 
L 26.703125 54.6875 
L 26.703125 44 
Q 28.953125 49.8125 33.609375 52.90625 
Q 38.28125 56 44.671875 56 
Q 48 56 50.875 55.171875 
Q 53.765625 54.34375 56.390625 52.59375 
z
" id="DejaVuSansMono-114"/>
      <path d="M 47.515625 52.78125 
L 47.515625 44 
Q 43.65625 46.234375 39.75 47.359375 
Q 35.84375 48.484375 31.78125 48.484375 
Q 25.6875 48.484375 22.671875 46.5 
Q 19.671875 44.53125 19.671875 40.484375 
Q 19.671875 36.8125 21.921875 35 
Q 24.171875 33.203125 33.109375 31.5 
L 36.71875 30.8125 
Q 43.40625 29.546875 46.84375 25.734375 
Q 50.296875 21.921875 50.296875 15.828125 
Q 50.296875 7.71875 44.53125 3.140625 
Q 38.765625 -1.421875 28.515625 -1.421875 
Q 24.46875 -1.421875 20.015625 -0.5625 
Q 15.578125 0.296875 10.40625 2 
L 10.40625 11.28125 
Q 15.4375 8.6875 20.015625 7.390625 
Q 24.609375 6.109375 28.71875 6.109375 
Q 34.671875 6.109375 37.9375 8.515625 
Q 41.21875 10.9375 41.21875 15.28125 
Q 41.21875 21.53125 29.25 23.921875 
L 28.859375 24.03125 
L 25.484375 24.703125 
Q 17.71875 26.21875 14.15625 29.8125 
Q 10.59375 33.40625 10.59375 39.59375 
Q 10.59375 47.46875 15.90625 51.734375 
Q 21.234375 56 31.109375 56 
Q 35.5 56 39.546875 55.1875 
Q 43.609375 54.390625 47.515625 52.78125 
z
" id="DejaVuSansMono-115"/>
      <path d="M 18.21875 8.296875 
L 51.703125 8.296875 
L 51.703125 0 
L 7.421875 0 
L 7.421875 8.296875 
Q 16.546875 17.921875 23.375 25.296875 
Q 30.21875 32.671875 32.8125 35.6875 
Q 37.703125 41.65625 39.40625 45.34375 
Q 41.109375 49.03125 41.109375 52.875 
Q 41.109375 58.984375 37.515625 62.453125 
Q 33.9375 65.921875 27.6875 65.921875 
Q 23.25 65.921875 18.359375 64.3125 
Q 13.484375 62.703125 8.015625 59.421875 
L 8.015625 69.390625 
Q 13.03125 71.78125 17.890625 73 
Q 22.75 74.21875 27.484375 74.21875 
Q 38.1875 74.21875 44.703125 68.53125 
Q 51.21875 62.84375 51.21875 53.609375 
Q 51.21875 48.921875 49.046875 44.234375 
Q 46.875 39.546875 42 33.890625 
Q 39.265625 30.71875 34.0625 25.09375 
Q 28.859375 19.484375 18.21875 8.296875 
z
" id="DejaVuSansMono-50"/>
      <path d="M 23.578125 36.625 
Q 23.578125 39.3125 25.453125 41.265625 
Q 27.34375 43.21875 29.984375 43.21875 
Q 32.71875 43.21875 34.671875 41.265625 
Q 36.625 39.3125 36.625 36.625 
Q 36.625 33.890625 34.6875 31.984375 
Q 32.765625 30.078125 29.984375 30.078125 
Q 27.25 30.078125 25.40625 31.9375 
Q 23.578125 33.796875 23.578125 36.625 
z
M 30.078125 66.40625 
Q 23.1875 66.40625 19.796875 58.984375 
Q 16.40625 51.5625 16.40625 36.375 
Q 16.40625 21.234375 19.796875 13.8125 
Q 23.1875 6.390625 30.078125 6.390625 
Q 37.015625 6.390625 40.40625 13.8125 
Q 43.796875 21.234375 43.796875 36.375 
Q 43.796875 51.5625 40.40625 58.984375 
Q 37.015625 66.40625 30.078125 66.40625 
z
M 30.078125 74.21875 
Q 41.75 74.21875 47.734375 64.640625 
Q 53.71875 55.078125 53.71875 36.375 
Q 53.71875 17.71875 47.734375 8.140625 
Q 41.75 -1.421875 30.078125 -1.421875 
Q 18.40625 -1.421875 12.453125 8.140625 
Q 6.5 17.71875 6.5 36.375 
Q 6.5 55.078125 12.453125 64.640625 
Q 18.40625 74.21875 30.078125 74.21875 
z
" id="DejaVuSansMono-48"/>
      <path d="M 13.1875 8.296875 
L 28.515625 8.296875 
L 28.515625 64.015625 
L 12.015625 60.296875 
L 12.015625 69.28125 
L 28.421875 72.90625 
L 38.28125 72.90625 
L 38.28125 8.296875 
L 53.421875 8.296875 
L 53.421875 0 
L 13.1875 0 
z
" id="DejaVuSansMono-49"/>
      <path d="M 29.109375 32.328125 
Q 35.40625 32.328125 38.984375 36.859375 
Q 42.578125 41.40625 42.578125 49.421875 
Q 42.578125 57.421875 38.984375 61.953125 
Q 35.40625 66.5 29.109375 66.5 
Q 22.5625 66.5 19.234375 62.171875 
Q 15.921875 57.859375 15.921875 49.421875 
Q 15.921875 40.921875 19.21875 36.625 
Q 22.515625 32.328125 29.109375 32.328125 
z
M 11.53125 1.515625 
L 11.53125 10.59375 
Q 14.59375 8.796875 18.0625 7.84375 
Q 21.53125 6.890625 25.296875 6.890625 
Q 34.671875 6.890625 39.46875 13.9375 
Q 44.28125 21 44.28125 34.71875 
Q 42 29.828125 37.84375 27.21875 
Q 33.6875 24.609375 28.328125 24.609375 
Q 17.78125 24.609375 11.984375 31.09375 
Q 6.203125 37.59375 6.203125 49.515625 
Q 6.203125 61.28125 12.125 67.75 
Q 18.0625 74.21875 28.90625 74.21875 
Q 41.609375 74.21875 47.515625 65.078125 
Q 53.421875 55.953125 53.421875 36.375 
Q 53.421875 17.96875 46.3125 8.265625 
Q 39.203125 -1.421875 25.6875 -1.421875 
Q 22.125 -1.421875 18.5 -0.65625 
Q 14.890625 0.09375 11.53125 1.515625 
z
" id="DejaVuSansMono-57"/>
      <path d="M 48.390625 71.296875 
L 48.390625 62.203125 
Q 45.3125 64.015625 41.84375 64.96875 
Q 38.375 65.921875 34.625 65.921875 
Q 25.25 65.921875 20.40625 58.859375 
Q 15.578125 51.8125 15.578125 38.09375 
Q 17.921875 42.96875 22.0625 45.578125 
Q 26.21875 48.1875 31.59375 48.1875 
Q 42.140625 48.1875 47.921875 41.71875 
Q 53.71875 35.25 53.71875 23.390625 
Q 53.71875 11.578125 47.75 5.078125 
Q 41.796875 -1.421875 31 -1.421875 
Q 18.3125 -1.421875 12.40625 7.6875 
Q 6.5 16.796875 6.5 36.375 
Q 6.5 54.828125 13.59375 64.515625 
Q 20.703125 74.21875 34.1875 74.21875 
Q 37.796875 74.21875 41.40625 73.453125 
Q 45.015625 72.703125 48.390625 71.296875 
z
M 30.8125 40.484375 
Q 24.515625 40.484375 20.890625 35.9375 
Q 17.28125 31.390625 17.28125 23.390625 
Q 17.28125 15.375 20.890625 10.828125 
Q 24.515625 6.296875 30.8125 6.296875 
Q 37.359375 6.296875 40.671875 10.609375 
Q 44 14.9375 44 23.390625 
Q 44 31.890625 40.671875 36.1875 
Q 37.359375 40.484375 30.8125 40.484375 
z
" id="DejaVuSansMono-54"/>
     </defs>
     <g transform="translate(143.75625 143.673687)scale(0.1 -0.1)">
      <use xlink:href="#DejaVuSansMono-85"/>
      <use x="60.205078" xlink:href="#DejaVuSansMono-84"/>
      <use x="120.410156" xlink:href="#DejaVuSansMono-67"/>
      <use x="180.615234" xlink:href="#DejaVuSansMono-32"/>
      <use x="240.820312" xlink:href="#DejaVuSansMono-105"/>
      <use x="301.025391" xlink:href="#DejaVuSansMono-110"/>
      <use x="361.230469" xlink:href="#DejaVuSansMono-32"/>
      <use x="421.435547" xlink:href="#DejaVuSansMono-72"/>
      <use x="481.640625" xlink:href="#DejaVuSansMono-111"/>
      <use x="541.845703" xlink:href="#DejaVuSansMono-117"/>
      <use x="602.050781" xlink:href="#DejaVuSansMono-114"/>
      <use x="662.255859" xlink:href="#DejaVuSansMono-115"/>
      <use x="722.460938" xlink:href="#DejaVuSansMono-32"/>
      <use x="782.666016" xlink:href="#DejaVuSansMono-32"/>
      <use x="842.871094" xlink:href="#DejaVuSansMono-50"/>
      <use x="903.076172" xlink:href="#DejaVuSansMono-48"/>
      <use x="963.28125" xlink:href="#DejaVuSansMono-49"/>
      <use x="1023.486328" xlink:href="#DejaVuSansMono-57"/>
      <use x="1083.691406" xlink:href="#DejaVuSansMono-32"/>
      <use x="1143.896484" xlink:href="#DejaVuSansMono-48"/>
      <use x="1204.101562" xlink:href="#DejaVuSansMono-54"/>
      <use x="1264.306641" xlink:href="#DejaVuSansMono-32"/>
      <use x="1324.511719" xlink:href="#DejaVuSansMono-48"/>
      <use x="1384.716797" xlink:href="#DejaVuSansMono-54"/>
     </g>
    </g>
   </g>
   <g id="matplotlib.axis_2">
    <g id="ytick_1">
     <g id="line2d_9">
      <path clip-path="url(#p054ba6745c)" d="M 108 93.166842 
L 324 93.166842 
" style="fill:none;stroke:#c8d9cd;stroke-linecap:square;stroke-width:0.8;"/>
     </g>
     <g id="line2d_10">
      <defs>
       <path d="M 0 0 
L -3.5 0 
" id="m40c67ee66d" style="stroke:#000000;stroke-width:0.8;"/>
      </defs>
      <g>
       <use style="stroke:#000000;stroke-width:0.8;" x="108" xlink:href="#m40c67ee66d" y="93.166842"/>
      </g>
     </g>
     <g id="text_6">
      <!-- −100 -->
      <defs>
       <path d="M 10.59375 35.5 
L 73.1875 35.5 
L 73.1875 27.203125 
L 10.59375 27.203125 
z
" id="DejaVuSans-8722"/>
      </defs>
      <g transform="translate(73.532813 96.96606)scale(0.1 -0.1)">
       <use xlink:href="#DejaVuSans-8722"/>
       <use x="83.789062" xlink:href="#DejaVuSans-49"/>
       <use x="147.412109" xlink:href="#DejaVuSans-48"/>
       <use x="211.035156" xlink:href="#DejaVuSans-48"/>
      </g>
     </g>
    </g>
    <g id="ytick_2">
     <g id="line2d_11">
      <path clip-path="url(#p054ba6745c)" d="M 108 63.377651 
L 324 63.377651 
" style="fill:none;stroke:#c8d9cd;stroke-linecap:square;stroke-width:0.8;"/>
     </g>
     <g id="line2d_12">
      <g>
       <use style="stroke:#000000;stroke-width:0.8;" x="108" xlink:href="#m40c67ee66d" y="63.377651"/>
      </g>
     </g>
     <g id="text_7">
      <!-- −50 -->
      <defs>
       <path d="M 10.796875 72.90625 
L 49.515625 72.90625 
L 49.515625 64.59375 
L 19.828125 64.59375 
L 19.828125 46.734375 
Q 21.96875 47.46875 24.109375 47.828125 
Q 26.265625 48.1875 28.421875 48.1875 
Q 40.625 48.1875 47.75 41.5 
Q 54.890625 34.8125 54.890625 23.390625 
Q 54.890625 11.625 47.5625 5.09375 
Q 40.234375 -1.421875 26.90625 -1.421875 
Q 22.3125 -1.421875 17.546875 -0.640625 
Q 12.796875 0.140625 7.71875 1.703125 
L 7.71875 11.625 
Q 12.109375 9.234375 16.796875 8.0625 
Q 21.484375 6.890625 26.703125 6.890625 
Q 35.15625 6.890625 40.078125 11.328125 
Q 45.015625 15.765625 45.015625 23.390625 
Q 45.015625 31 40.078125 35.4375 
Q 35.15625 39.890625 26.703125 39.890625 
Q 22.75 39.890625 18.8125 39.015625 
Q 14.890625 38.140625 10.796875 36.28125 
z
" id="DejaVuSans-53"/>
      </defs>
      <g transform="translate(79.895313 67.17687)scale(0.1 -0.1)">
       <use xlink:href="#DejaVuSans-8722"/>
       <use x="83.789062" xlink:href="#DejaVuSans-53"/>
       <use x="147.412109" xlink:href="#DejaVuSans-48"/>
      </g>
     </g>
    </g>
    <g id="ytick_3">
     <g id="line2d_13">
      <path clip-path="url(#p054ba6745c)" d="M 108 33.588461 
L 324 33.588461 
" style="fill:none;stroke:#c8d9cd;stroke-linecap:square;stroke-width:0.8;"/>
     </g>
     <g id="line2d_14">
      <g>
       <use style="stroke:#000000;stroke-width:0.8;" x="108" xlink:href="#m40c67ee66d" y="33.588461"/>
      </g>
     </g>
     <g id="text_8">
      <!-- 0 -->
      <g transform="translate(94.6375 37.38768)scale(0.1 -0.1)">
       <use xlink:href="#DejaVuSans-48"/>
      </g>
     </g>
    </g>
    <g id="text_9">
     <!-- nt -->
     <defs>
      <path d="M 29.984375 70.21875 
L 29.984375 54.6875 
L 50.390625 54.6875 
L 50.390625 47.703125 
L 29.984375 47.703125 
L 29.984375 18.015625 
Q 29.984375 11.96875 32.28125 9.5625 
Q 34.578125 7.171875 40.28125 7.171875 
L 50.390625 7.171875 
L 50.390625 0 
L 39.40625 0 
Q 29.296875 0 25.140625 4.046875 
Q 21 8.109375 21 18.015625 
L 21 47.703125 
L 6.390625 47.703125 
L 6.390625 54.6875 
L 21 54.6875 
L 21 70.21875 
z
" id="DejaVuSansMono-116"/>
     </defs>
     <g transform="translate(59.5125 63.368312)scale(0.1 -0.1)">
      <use xlink:href="#DejaVuSansMono-110"/>
      <use x="60.205078" xlink:href="#DejaVuSansMono-116"/>
     </g>
    </g>
   </g>
   <g id="line2d_15">
    <path clip-path="url(#p054ba6745c)" d="M 108.075 33.588461 
L 108.38 33.546756 
L 108.6875 33.999552 
L 108.9925 34.535757 
L 109.1475 34.434474 
L 109.3 34.494052 
L 110.215 37.073796 
L 110.3675 37.032091 
L 110.5225 37.300194 
L 110.83 38.396436 
L 111.14 38.581129 
L 111.2925 38.396436 
L 111.7525 37.389562 
L 112.06 37.985346 
L 112.215 37.794695 
L 112.3675 38.116418 
L 112.5225 38.944557 
L 112.6775 38.033008 
L 112.83 38.062797 
L 112.985 37.75299 
L 113.14 37.085712 
L 113.295 37.157206 
L 113.4525 37.026134 
L 113.605 36.65079 
L 114.0625 38.128334 
L 114.215 37.169122 
L 114.3675 35.268571 
L 114.5225 35.262614 
L 114.675 35.596252 
L 114.9825 32.289652 
L 115.1375 32.939057 
L 115.29 29.686077 
L 115.4425 29.316691 
L 115.75 27.022923 
L 115.905 27.654454 
L 116.0575 27.148038 
L 116.365 28.899642 
L 116.52 28.053629 
L 116.6725 28.196618 
L 116.825 28.661329 
L 116.98 29.662246 
L 117.285 34.50001 
L 117.5925 34.124666 
L 117.9025 35.780945 
L 118.0525 34.893228 
L 118.205 36.287362 
L 118.5125 35.173246 
L 118.665 37.324025 
L 118.9675 35.912018 
L 119.1175 36.019259 
L 119.7275 38.283237 
L 120.19 38.920726 
L 120.345 37.455098 
L 120.4975 37.687454 
L 120.65 37.014218 
L 120.8025 37.270405 
L 120.955 36.549507 
L 121.11 36.901019 
L 121.2625 37.860231 
L 121.4175 36.418434 
L 121.57 36.489928 
L 121.7225 37.276363 
L 121.8775 36.960597 
L 122.185 35.489011 
L 122.3375 34.976637 
L 122.6425 34.72045 
L 122.7975 35.947765 
L 122.95 36.245657 
L 123.1025 36.180121 
L 123.255 36.352898 
L 123.5625 37.961514 
L 123.715 37.860231 
L 124.175 36.239699 
L 124.3275 35.393686 
L 124.48 35.226866 
L 124.6325 35.751156 
L 124.785 35.578379 
L 124.9375 35.131541 
L 125.09 35.298361 
L 125.395 36.56738 
L 125.5475 36.04309 
L 125.8575 34.648956 
L 126.1625 37.097628 
L 126.6225 41.846025 
L 126.93 39.963348 
L 127.0825 40.058673 
L 127.2325 40.67233 
L 127.54 42.286905 
L 127.8475 44.300654 
L 128.3025 42.894604 
L 128.61 42.388188 
L 128.765 42.525218 
L 129.2225 42.745658 
L 129.8375 38.890937 
L 130.295 38.324942 
L 130.7525 42.858857 
L 131.515 36.543549 
L 131.975 37.80661 
L 132.1275 37.44914 
L 132.28 37.794695 
L 132.4325 37.729158 
L 132.585 38.044924 
L 132.74 38.777738 
L 133.2025 36.317151 
L 133.355 36.865272 
L 133.66 39.856107 
L 133.9675 39.391395 
L 134.1225 39.719076 
L 134.4275 38.485804 
L 134.5825 38.616876 
L 134.735 39.069672 
L 134.8875 38.920726 
L 135.0425 39.242449 
L 135.35 41.017885 
L 135.6575 39.224576 
L 135.8125 38.884979 
L 135.965 39.010094 
L 136.12 39.51651 
L 136.2725 39.081588 
L 136.425 39.07563 
L 136.5775 38.873063 
L 136.7275 39.21266 
L 137.1875 41.625585 
L 137.65 42.966098 
L 137.8025 42.209453 
L 137.9575 42.429893 
L 138.11 42.930351 
L 138.2625 42.852899 
L 138.415 42.531176 
L 138.8725 40.678288 
L 139.025 41.768573 
L 139.1775 41.887729 
L 139.485 39.832275 
L 139.64 39.391395 
L 139.7925 39.29607 
L 139.9475 39.671414 
L 140.1 39.504594 
L 140.555 38.3309 
L 140.71 38.41431 
L 141.0225 39.057756 
L 141.1725 39.027967 
L 142.0925 41.208536 
L 142.2475 41.131084 
L 142.4 41.208536 
L 142.7075 42.983972 
L 143.3225 48.483056 
L 143.79 58.581592 
L 143.94 59.499099 
L 144.0925 58.444561 
L 144.245 63.955562 
L 144.3975 62.621006 
L 144.55 59.350153 
L 144.855 76.699377 
L 145.0075 76.216792 
L 145.31 59.266743 
L 145.465 74.006434 
L 145.6175 75.049056 
L 145.7725 79.052723 
L 145.925 87.810745 
L 146.08 85.248875 
L 146.54 104.11139 
L 146.6925 96.53302 
L 146.845 82.913402 
L 147 86.726419 
L 147.3075 100.518814 
L 147.4575 100.351994 
L 147.6125 100.769043 
L 147.765 96.318538 
L 147.915 99.982608 
L 148.38 93.935403 
L 148.5325 100.137512 
L 148.685 99.762168 
L 148.8375 98.254835 
L 149.14 92.076557 
L 149.605 80.828159 
L 149.7575 81.167756 
L 149.9125 81.048599 
L 150.0675 79.797453 
L 150.375 71.319449 
L 150.6825 61.298366 
L 150.835 63.556386 
L 150.99 63.729164 
L 151.4475 74.316242 
L 151.6 74.280495 
L 151.755 74.882237 
L 152.0575 71.361154 
L 152.21 67.494517 
L 152.6675 69.996809 
L 152.82 68.042638 
L 152.9725 67.953271 
L 153.28 64.158128 
L 153.585 60.202124 
L 153.8925 57.384066 
L 154.045 57.997724 
L 154.195 57.795157 
L 154.5 62.823572 
L 154.81 53.386357 
L 155.1225 51.771783 
L 155.2775 51.58709 
L 156.045 54.363442 
L 156.1975 53.124212 
L 156.35 53.600839 
L 156.5025 53.368483 
L 156.815 53.469767 
L 156.97 53.648502 
L 157.1225 52.534386 
L 157.2775 50.574257 
L 157.43 50.991306 
L 157.89 57.223205 
L 158.045 53.070591 
L 158.1975 55.811197 
L 158.35 56.317613 
L 158.5025 58.843737 
L 158.655 56.448686 
L 158.96 48.363899 
L 159.2675 53.994056 
L 159.42 52.367567 
L 159.7275 58.992682 
L 160.03 53.553176 
L 160.4925 60.863444 
L 160.645 60.142545 
L 161.105 63.824489 
L 161.2575 64.080676 
L 161.4125 65.570136 
L 161.565 65.635672 
L 161.7175 66.952354 
L 161.8675 69.555929 
L 162.02 69.585719 
L 162.3275 71.968854 
L 162.6325 76.88407 
L 162.785 73.928982 
L 162.9375 68.096259 
L 163.09 69.841906 
L 163.24 73.768121 
L 163.3925 73.094885 
L 163.6975 74.483061 
L 163.85 73.911109 
L 164.1575 70.902401 
L 164.4625 59.981684 
L 164.77 71.551805 
L 165.08 75.269496 
L 165.2325 75.430358 
L 165.69 68.489476 
L 165.8425 69.69296 
L 166.145 79.857031 
L 166.45 77.593053 
L 166.7575 85.362074 
L 166.9075 85.242917 
L 167.215 83.169589 
L 167.6725 84.384988 
L 167.825 83.848783 
L 167.9775 83.914319 
L 168.1325 84.641175 
L 168.285 84.212211 
L 168.435 83.44365 
L 168.59 85.939984 
L 168.7425 91.933569 
L 168.8975 90.491772 
L 169.05 86.815786 
L 169.3575 98.522938 
L 169.5125 102.830455 
L 169.6675 103.31304 
L 169.8175 100.00644 
L 169.97 99.875367 
L 170.1225 95.275916 
L 170.275 94.894615 
L 170.4275 97.986733 
L 170.885 94.936319 
L 171.035 94.608638 
L 171.4975 90.545393 
L 171.65 91.07564 
L 171.805 91.063725 
L 171.96 85.689755 
L 172.1125 86.500021 
L 172.265 88.096721 
L 172.4175 87.745209 
L 172.5725 88.233752 
L 172.7225 89.681506 
L 172.875 89.288289 
L 173.18 86.30937 
L 173.49 86.797913 
L 173.8025 84.051349 
L 174.105 85.487188 
L 174.2575 84.885447 
L 175.03 78.570138 
L 175.18 77.896903 
L 175.4875 71.992685 
L 175.795 68.578844 
L 175.9475 67.977102 
L 176.2525 65.504599 
L 176.56 62.936771 
L 177.635 54.989015 
L 178.095 52.498639 
L 178.25 52.808447 
L 178.405 52.844194 
L 178.715 49.829528 
L 179.02 44.223202 
L 179.3275 43.049508 
L 179.48 43.103128 
L 179.6325 43.92531 
L 179.9375 46.451433 
L 180.0925 46.665916 
L 180.2475 46.618253 
L 180.86 47.911104 
L 181.1625 49.13246 
L 181.47 48.328152 
L 181.62 48.167291 
L 181.9275 49.07884 
L 182.2325 49.889106 
L 182.3825 49.901022 
L 182.6875 49.567383 
L 182.9925 48.441351 
L 183.3025 48.506888 
L 183.605 49.829528 
L 183.7575 49.674624 
L 183.9075 49.114587 
L 184.0625 49.424395 
L 184.2175 49.21587 
L 184.37 49.227786 
L 184.825 48.864358 
L 184.9775 48.798822 
L 185.1325 48.935852 
L 185.44 49.311196 
L 185.595 49.257575 
L 185.75 49.358858 
L 186.0575 48.882231 
L 186.365 49.376732 
L 186.52 49.227786 
L 186.825 49.370774 
L 187.13 49.734202 
L 187.595 51.050884 
L 188.055 51.372608 
L 188.2075 51.700289 
L 188.36 51.604963 
L 188.515 51.658584 
L 188.825 51.164083 
L 188.9775 51.122378 
L 189.44 50.157209 
L 189.5925 50.204871 
L 190.0525 49.817612 
L 190.2075 49.805696 
L 190.3625 49.924853 
L 191.285 48.441351 
L 192.0475 47.214037 
L 192.3575 47.333193 
L 192.6625 47.559591 
L 192.815 47.285531 
L 193.125 47.422561 
L 193.2775 47.571507 
L 193.4275 47.494055 
L 193.8875 48.208996 
L 194.1925 48.083881 
L 194.6575 48.465183 
L 194.81 48.578382 
L 194.965 48.369857 
L 195.12 48.47114 
L 195.2725 48.292405 
L 195.4275 48.47114 
L 195.58 48.286447 
L 195.885 48.346026 
L 196.345 48.036218 
L 196.805 47.911104 
L 196.955 47.851525 
L 197.42 48.048134 
L 197.5725 47.881315 
L 197.725 48.006429 
L 197.88 47.958766 
L 198.1875 48.167291 
L 198.4925 48.066007 
L 198.645 48.036218 
L 199.4125 48.548592 
L 200.025 49.21587 
L 200.3325 49.329069 
L 200.945 49.454184 
L 201.0975 49.585256 
L 202.02 51.402397 
L 202.1725 51.390481 
L 202.485 51.515596 
L 202.945 51.396439 
L 203.555 51.277282 
L 203.86 51.515596 
L 204.0125 51.396439 
L 204.1675 51.58709 
L 204.3225 51.378565 
L 204.4775 51.426228 
L 204.7825 51.122378 
L 205.0875 50.550426 
L 205.24 50.532552 
L 205.545 50.055925 
L 205.7 50.026136 
L 205.855 49.758033 
L 206.1625 49.763991 
L 206.4675 51.175999 
L 206.7775 53.439977 
L 206.9325 53.970225 
L 207.3925 54.071508 
L 207.545 53.952351 
L 207.7 53.982141 
L 207.8525 54.309822 
L 208.0025 54.357484 
L 208.155 54.840069 
L 208.7725 54.172791 
L 208.9275 54.226412 
L 209.2325 53.862984 
L 209.385 53.779574 
L 209.9925 55.787366 
L 210.145 55.537136 
L 210.2975 55.519263 
L 210.9075 54.732828 
L 211.06 54.744744 
L 211.3675 55.102214 
L 211.675 55.459685 
L 211.8275 55.459685 
L 212.44 56.025679 
L 213.2075 55.733745 
L 213.3625 55.727787 
L 213.6675 56.275908 
L 214.28 56.21633 
L 214.435 56.061426 
L 214.8975 56.442728 
L 215.205 56.87765 
L 215.36 56.984891 
L 215.9775 56.919355 
L 216.4375 57.050427 
L 216.595 57.092132 
L 217.05 58.128796 
L 218.1225 58.754369 
L 218.275 59.093966 
L 218.4275 59.076092 
L 218.5825 59.3859 
L 218.735 59.3859 
L 218.8875 59.60634 
L 219.0375 59.46931 
L 219.19 59.570593 
L 219.4975 59.46931 
L 219.805 59.850611 
L 220.1125 59.993599 
L 220.42 59.719539 
L 220.8825 59.951894 
L 221.035 60.112756 
L 221.1875 59.981684 
L 221.805 60.643004 
L 222.11 60.923022 
L 222.2625 61.101757 
L 222.4125 61.083884 
L 222.565 61.45327 
L 223.33 61.852445 
L 223.7875 62.573343 
L 223.9375 62.519723 
L 224.09 62.662711 
L 224.245 62.585259 
L 224.55 62.758036 
L 224.855 62.650795 
L 225.165 62.77591 
L 225.32 63.21679 
L 225.6225 63.276368 
L 226.08 64.164086 
L 226.39 65.129256 
L 226.6975 65.03393 
L 226.85 64.801575 
L 227.0025 64.956478 
L 227.155 64.694333 
L 227.4625 65.385443 
L 227.615 65.176918 
L 228.075 66.171877 
L 228.23 66.314865 
L 228.3825 66.82724 
L 228.69 66.690209 
L 228.9975 66.588926 
L 229.3 66.392317 
L 229.915 66.541263 
L 230.0675 66.112299 
L 230.375 65.951437 
L 230.5275 65.510557 
L 230.6825 65.784618 
L 230.835 65.742913 
L 230.9875 65.891859 
L 231.1425 65.86207 
L 231.6025 64.688376 
L 231.91 64.491767 
L 232.2175 65.045846 
L 232.37 64.873069 
L 232.5225 64.950521 
L 232.825 64.45602 
L 232.98 63.907899 
L 233.1375 63.967477 
L 233.2925 64.15217 
L 233.4475 64.122381 
L 233.6 64.485809 
L 233.7525 64.366652 
L 233.9075 64.021098 
L 234.06 64.968394 
L 234.37 63.383609 
L 234.675 64.485809 
L 234.83 64.295158 
L 235.1425 65.47481 
L 235.295 63.913857 
L 235.4475 64.301116 
L 235.6 63.747037 
L 235.7525 63.681501 
L 235.9075 63.335946 
L 236.0625 64.170044 
L 236.2175 64.158128 
L 236.37 63.866194 
L 236.5225 63.967477 
L 236.6775 64.902858 
L 236.83 64.295158 
L 236.9825 64.259411 
L 237.1375 64.855195 
L 237.29 63.639796 
L 237.6 64.986268 
L 237.7525 64.682418 
L 237.905 65.045846 
L 238.21 63.985351 
L 238.3625 64.771785 
L 238.515 64.336863 
L 238.67 64.390484 
L 238.825 64.825406 
L 238.9775 64.831364 
L 239.1325 65.129256 
L 239.2875 63.651712 
L 239.44 64.009182 
L 239.595 64.777743 
L 239.7475 64.604966 
L 240.05 64.056845 
L 240.2025 65.623756 
L 240.355 63.645754 
L 240.5075 64.086634 
L 240.8175 62.948687 
L 240.97 64.313032 
L 241.1225 63.294242 
L 241.4275 63.222747 
L 241.5825 63.669585 
L 241.735 63.395525 
L 241.8875 62.835488 
L 242.0425 62.698458 
L 242.5 64.807532 
L 242.6525 64.09855 
L 242.805 65.450979 
L 242.9575 63.764911 
L 243.11 64.557303 
L 243.4175 63.43723 
L 243.5725 64.033013 
L 244.0375 64.283243 
L 244.345 65.224581 
L 244.4975 63.192958 
L 244.65 64.086634 
L 244.805 62.662711 
L 244.955 63.764911 
L 245.1075 62.323114 
L 245.2625 62.585259 
L 245.4175 62.436313 
L 245.57 62.752078 
L 245.725 60.905148 
L 245.88 62.990392 
L 246.0325 61.917981 
L 246.1875 62.704416 
L 246.34 62.436313 
L 246.4925 62.77591 
L 246.6475 63.669585 
L 246.8 62.430355 
L 246.955 63.306157 
L 247.1075 61.870318 
L 247.26 61.959686 
L 247.4125 61.685625 
L 247.5675 60.249786 
L 247.7225 61.411565 
L 247.8775 60.446395 
L 248.03 61.310281 
L 248.185 59.576551 
L 248.3375 61.024305 
L 248.4925 61.36986 
L 248.645 60.958769 
L 248.8 60.92898 
L 249.1075 59.862527 
L 249.2625 60.654919 
L 249.415 59.802948 
L 249.5675 60.112756 
L 249.72 59.582508 
L 249.8725 58.629254 
L 250.025 59.600382 
L 250.1775 59.046303 
L 250.48 57.276825 
L 250.6325 57.45556 
L 250.7875 57.175542 
L 251.2525 58.545845 
L 251.555 57.592591 
L 251.7075 57.84282 
L 252.165 55.620546 
L 252.32 55.358401 
L 252.4725 54.190665 
L 252.625 54.238328 
L 253.2325 53.517429 
L 253.385 53.62467 
L 253.54 52.534386 
L 253.845 53.011013 
L 254.1525 52.653543 
L 254.3025 52.891856 
L 254.61 52.796531 
L 255.2225 51.741994 
L 255.375 51.736036 
L 255.68 52.188831 
L 256.1375 52.999097 
L 256.29 52.796531 
L 256.4425 52.313946 
L 257.0525 49.001388 
L 257.9825 47.130627 
L 258.135 47.082964 
L 258.2875 47.23191 
L 258.5925 47.780031 
L 258.7475 47.666832 
L 259.355 46.528885 
L 259.5075 46.57059 
L 260.1175 47.803863 
L 260.42 48.214953 
L 260.73 48.572424 
L 261.035 48.63796 
L 261.34 48.208996 
L 261.645 47.934935 
L 262.41 48.310279 
L 262.715 48.024303 
L 264.0975 45.545842 
L 264.25 45.629252 
L 264.7125 46.117794 
L 264.8675 46.034385 
L 265.945 43.722744 
L 266.095 43.633376 
L 266.4025 43.740617 
L 266.71 43.746575 
L 266.865 44.00872 
L 267.0175 43.990846 
L 268.09 42.995887 
L 268.7025 43.544008 
L 269.1625 43.454641 
L 269.4675 42.727785 
L 270.0775 40.809361 
L 270.385 40.75574 
L 270.8475 40.45189 
L 271.1525 41.029801 
L 271.765 42.274989 
L 272.07 42.042633 
L 272.3775 41.756657 
L 273.14 40.016968 
L 273.2925 39.975263 
L 273.445 40.058673 
L 273.6 39.921643 
L 274.0575 40.845108 
L 274.515 39.725034 
L 274.975 37.925767 
L 275.13 37.729158 
L 275.2825 37.925767 
L 275.9025 39.510552 
L 276.0575 39.468847 
L 276.365 40.267197 
L 276.5175 40.273155 
L 276.67 40.636583 
L 276.9775 40.332734 
L 277.285 40.934475 
L 277.4375 41.36344 
L 277.59 40.982138 
L 277.8975 39.707161 
L 278.05 39.409269 
L 278.2025 39.629709 
L 278.51 40.499553 
L 279.125 41.214494 
L 279.4325 42.155832 
L 279.585 42.012844 
L 280.0425 40.690204 
L 280.3475 40.594879 
L 280.65 39.993137 
L 280.8025 40.356565 
L 281.105 40.505511 
L 281.4125 40.821276 
L 281.715 40.874897 
L 282.1775 41.262156 
L 282.4875 41.035759 
L 282.7975 41.405145 
L 282.95 41.274072 
L 283.2575 41.631542 
L 283.7175 40.857023 
L 283.87 40.862981 
L 284.1775 40.988096 
L 284.33 40.898728 
L 284.9425 41.160873 
L 285.8625 40.165914 
L 286.0175 40.189746 
L 286.6375 41.494512 
L 286.79 41.381313 
L 286.9425 41.208536 
L 287.0925 40.773614 
L 287.4025 41.959223 
L 287.555 41.983055 
L 287.7075 42.310736 
L 287.8625 42.036675 
L 288.17 40.207619 
L 288.3225 40.308902 
L 288.475 41.125126 
L 288.7875 41.190662 
L 288.9425 41.071506 
L 289.2525 40.571047 
L 289.71 40.291029 
L 290.3225 39.147124 
L 290.63 37.955556 
L 291.085 38.533467 
L 291.3875 37.901936 
L 291.54 37.991303 
L 291.695 38.265364 
L 292.1575 37.967472 
L 292.31 37.901936 
L 292.465 38.021093 
L 292.77 39.016051 
L 293.0775 40.255282 
L 293.385 40.505511 
L 293.54 40.743825 
L 293.8475 42.197537 
L 294.1575 43.341442 
L 294.31 43.305695 
L 294.615 42.715869 
L 294.7675 42.608628 
L 294.92 42.864815 
L 295.2275 43.847858 
L 295.3825 43.972973 
L 295.535 43.92531 
L 295.99 44.604504 
L 296.2925 45.140709 
L 296.75 45.218161 
L 297.055 45.569673 
L 297.3625 44.646208 
L 297.5175 44.610461 
L 298.1325 45.897354 
L 298.285 45.522011 
L 298.745 43.579755 
L 299.205 44.568757 
L 299.3575 44.479389 
L 299.815 43.585713 
L 299.9675 43.597629 
L 300.885 45.128793 
L 301.3475 45.158583 
L 301.5 44.759407 
L 301.81 42.912478 
L 302.115 40.308902 
L 302.4225 39.701203 
L 302.575 39.695245 
L 302.73 39.868022 
L 303.04 40.761698 
L 303.1925 41.202578 
L 303.345 41.089379 
L 303.5 40.821276 
L 303.655 40.862981 
L 304.11 41.524301 
L 304.2625 41.446849 
L 304.57 40.970222 
L 305.1825 40.666373 
L 305.49 40.273155 
L 305.64 40.225493 
L 306.1 40.773614 
L 306.7175 42.662248 
L 306.8725 42.948225 
L 307.4875 42.286905 
L 308.255 45.075173 
L 308.56 44.36619 
L 308.8675 43.204412 
L 309.175 42.954182 
L 309.3275 42.972056 
L 310.0925 44.187455 
L 310.3975 44.75345 
L 310.705 44.997721 
L 311.0125 44.729618 
L 311.4725 46.29653 
L 311.625 46.177373 
L 311.9325 45.438601 
L 312.085 45.462432 
L 312.24 45.355191 
L 312.7 46.147584 
L 313.005 45.718619 
L 313.1575 45.796071 
L 313.4675 46.648042 
L 313.77 47.345109 
L 313.9225 47.559591 
L 314.2275 47.249784 
L 314.38 47.23191 
L 314.535 47.327236 
L 314.6875 47.273615 
L 314.8425 47.482139 
L 315.3025 46.79103 
L 315.4575 47.45235 
L 315.6125 47.154458 
L 316.2225 43.299737 
L 316.375 42.882688 
L 316.5275 42.995887 
L 316.68 42.90652 
L 316.985 42.614586 
L 317.4425 43.18058 
L 317.7475 43.305695 
L 317.9 43.109086 
L 318.51 41.452807 
L 318.665 41.262156 
L 318.82 41.303861 
L 318.9725 41.643458 
L 319.125 41.703036 
L 319.28 41.613669 
L 319.435 41.780488 
L 319.5875 41.714952 
L 319.74 41.846025 
L 320.0475 42.358399 
L 320.6625 41.428976 
L 320.97 40.833192 
L 321.275 40.39827 
L 322.1875 40.320818 
L 322.495 40.058673 
L 322.9525 39.772697 
L 323.875 37.8364 
L 323.875 37.8364 
" style="fill:none;stroke:#0000ff;stroke-linecap:square;stroke-width:1.5;"/>
   </g>
   <g id="patch_3">
    <path d="M 108 115.344 
L 108 15.552 
" style="fill:none;stroke:#445753;stroke-linecap:square;stroke-linejoin:miter;stroke-width:3;"/>
   </g>
   <g id="patch_4">
    <path d="M 108 115.344 
L 324 115.344 
" style="fill:none;stroke:#445753;stroke-linecap:square;stroke-linejoin:miter;stroke-width:3;"/>
   </g>
   <g id="text_10">
    <g id="patch_5">
     <path d="M 186.754687 14.007625 
L 245.245313 14.007625 
L 245.245313 -5.526125 
L 186.754687 -5.526125 
z
" style="fill:#f4f7f7;stroke:#f4f7f7;stroke-linejoin:miter;"/>
    </g>
    <a xlink:href="http://google.com">
     <!-- X-Field -->
     <defs>
      <path d="M 58.890625 0 
L 44 0 
L 30.078125 24.125 
L 16.21875 0 
L 1.3125 0 
L 22.703125 37.015625 
L 1.90625 72.90625 
L 16.796875 72.90625 
L 30.078125 49.703125 
L 43.40625 72.90625 
L 58.296875 72.90625 
L 37.59375 37.015625 
z
" id="DejaVuSansMono-Bold-88"/>
      <path d="M 14.703125 35.890625 
L 45.515625 35.890625 
L 45.515625 21.6875 
L 14.703125 21.6875 
z
" id="DejaVuSansMono-Bold-45"/>
      <path d="M 54.296875 60.203125 
L 23.296875 60.203125 
L 23.296875 44.484375 
L 51.515625 44.484375 
L 51.515625 31.78125 
L 23.296875 31.78125 
L 23.296875 0 
L 8.890625 0 
L 8.890625 72.90625 
L 54.296875 72.90625 
z
" id="DejaVuSansMono-Bold-70"/>
      <path d="M 10.796875 54.6875 
L 39.109375 54.6875 
L 39.109375 10.984375 
L 56.890625 10.984375 
L 56.890625 0 
L 6.984375 0 
L 6.984375 10.984375 
L 24.8125 10.984375 
L 24.8125 43.703125 
L 10.796875 43.703125 
z
M 24.8125 81.296875 
L 39.109375 81.296875 
L 39.109375 64.59375 
L 24.8125 64.59375 
z
" id="DejaVuSansMono-Bold-105"/>
      <path d="M 53.8125 2.6875 
Q 48.828125 0.640625 43.65625 -0.390625 
Q 38.484375 -1.421875 32.71875 -1.421875 
Q 19 -1.421875 11.75 5.921875 
Q 4.5 13.28125 4.5 27.09375 
Q 4.5 40.484375 11.46875 48.234375 
Q 18.453125 56 30.515625 56 
Q 42.671875 56 49.390625 48.796875 
Q 56.109375 41.609375 56.109375 28.515625 
L 56.109375 22.703125 
L 19.046875 22.703125 
Q 19.09375 16.265625 22.84375 13.078125 
Q 26.609375 9.90625 34.078125 9.90625 
Q 39.015625 9.90625 43.796875 11.328125 
Q 48.578125 12.75 53.8125 15.828125 
z
M 41.703125 33.453125 
Q 41.609375 39.109375 38.796875 42.015625 
Q 35.984375 44.921875 30.515625 44.921875 
Q 25.59375 44.921875 22.65625 41.921875 
Q 19.734375 38.921875 19.1875 33.40625 
z
" id="DejaVuSansMono-Bold-101"/>
      <path d="M 18.890625 22.796875 
L 18.890625 64.984375 
L 4.390625 64.984375 
L 4.390625 75.984375 
L 33.203125 75.984375 
L 33.203125 22.796875 
Q 33.203125 16.359375 35.203125 13.671875 
Q 37.203125 10.984375 42 10.984375 
L 53.421875 10.984375 
L 53.421875 0 
L 37.984375 0 
Q 27.78125 0 23.328125 5.265625 
Q 18.890625 10.546875 18.890625 22.796875 
z
" id="DejaVuSansMono-Bold-108"/>
      <path d="M 38.625 46.921875 
L 38.625 75.984375 
L 52.875 75.984375 
L 52.875 0 
L 38.625 0 
L 38.625 8.109375 
Q 36.328125 3.375 32.6875 0.96875 
Q 29.046875 -1.421875 24.125 -1.421875 
Q 14.75 -1.421875 9.5625 6.09375 
Q 4.390625 13.625 4.390625 27.296875 
Q 4.390625 41.15625 9.640625 48.578125 
Q 14.890625 56 24.609375 56 
Q 29 56 32.484375 53.734375 
Q 35.984375 51.46875 38.625 46.921875 
z
M 18.703125 27.203125 
Q 18.703125 19.28125 21.328125 14.78125 
Q 23.96875 10.296875 28.609375 10.296875 
Q 33.25 10.296875 35.9375 14.78125 
Q 38.625 19.28125 38.625 27.203125 
Q 38.625 35.109375 35.9375 39.59375 
Q 33.25 44.09375 28.609375 44.09375 
Q 23.96875 44.09375 21.328125 39.59375 
Q 18.703125 35.109375 18.703125 27.203125 
z
" id="DejaVuSansMono-Bold-100"/>
     </defs>
     <g style="fill:#222b29;" transform="translate(190.714687 7.552)scale(0.12 -0.12)">
      <use xlink:href="#DejaVuSansMono-Bold-88"/>
      <use x="60.205078" xlink:href="#DejaVuSansMono-Bold-45"/>
      <use x="120.410156" xlink:href="#DejaVuSansMono-Bold-70"/>
      <use x="180.615234" xlink:href="#DejaVuSansMono-Bold-105"/>
      <use x="240.820312" xlink:href="#DejaVuSansMono-Bold-101"/>
      <use x="301.025391" xlink:href="#DejaVuSansMono-Bold-108"/>
      <use x="361.230469" xlink:href="#DejaVuSansMono-Bold-100"/>
     </g>
    </a>
   </g>
  </g>
  <g id="axes_2">
   <g id="patch_6">
    <path d="M 334.8 115.344 
L 550.8 115.344 
L 550.8 15.552 
L 334.8 15.552 
z
" style="fill:#a6c2bc;"/>
   </g>
   <g id="matplotlib.axis_3">
    <g id="xtick_5">
     <g id="line2d_16">
      <path clip-path="url(#pf0521d80c2)" d="M 334.8 115.344 
L 334.8 15.552 
" style="fill:none;stroke:#c8d9cd;stroke-linecap:square;stroke-width:0.8;"/>
     </g>
     <g id="line2d_17">
      <g>
       <use style="stroke:#000000;stroke-width:0.8;" x="334.8" xlink:href="#m35cd143f15" y="115.344"/>
      </g>
     </g>
     <g id="text_11">
      <!-- 00:00 -->
      <g transform="translate(320.390625 129.942437)scale(0.1 -0.1)">
       <use xlink:href="#DejaVuSans-48"/>
       <use x="63.623047" xlink:href="#DejaVuSans-48"/>
       <use x="127.246094" xlink:href="#DejaVuSans-58"/>
       <use x="160.9375" xlink:href="#DejaVuSans-48"/>
       <use x="224.560547" xlink:href="#DejaVuSans-48"/>
      </g>
     </g>
    </g>
    <g id="xtick_6">
     <g id="line2d_18">
      <path clip-path="url(#pf0521d80c2)" d="M 388.8 115.344 
L 388.8 15.552 
" style="fill:none;stroke:#c8d9cd;stroke-linecap:square;stroke-width:0.8;"/>
     </g>
     <g id="line2d_19">
      <g>
       <use style="stroke:#000000;stroke-width:0.8;" x="388.8" xlink:href="#m35cd143f15" y="115.344"/>
      </g>
     </g>
     <g id="text_12">
      <!-- 06:00 -->
      <g transform="translate(374.390625 129.942437)scale(0.1 -0.1)">
       <use xlink:href="#DejaVuSans-48"/>
       <use x="63.623047" xlink:href="#DejaVuSans-54"/>
       <use x="127.246094" xlink:href="#DejaVuSans-58"/>
       <use x="160.9375" xlink:href="#DejaVuSans-48"/>
       <use x="224.560547" xlink:href="#DejaVuSans-48"/>
      </g>
     </g>
    </g>
    <g id="xtick_7">
     <g id="line2d_20">
      <path clip-path="url(#pf0521d80c2)" d="M 442.8 115.344 
L 442.8 15.552 
" style="fill:none;stroke:#c8d9cd;stroke-linecap:square;stroke-width:0.8;"/>
     </g>
     <g id="line2d_21">
      <g>
       <use style="stroke:#000000;stroke-width:0.8;" x="442.8" xlink:href="#m35cd143f15" y="115.344"/>
      </g>
     </g>
     <g id="text_13">
      <!-- 12:00 -->
      <g transform="translate(428.390625 129.942437)scale(0.1 -0.1)">
       <use xlink:href="#DejaVuSans-49"/>
       <use x="63.623047" xlink:href="#DejaVuSans-50"/>
       <use x="127.246094" xlink:href="#DejaVuSans-58"/>
       <use x="160.9375" xlink:href="#DejaVuSans-48"/>
       <use x="224.560547" xlink:href="#DejaVuSans-48"/>
      </g>
     </g>
    </g>
    <g id="xtick_8">
     <g id="line2d_22">
      <path clip-path="url(#pf0521d80c2)" d="M 496.8 115.344 
L 496.8 15.552 
" style="fill:none;stroke:#c8d9cd;stroke-linecap:square;stroke-width:0.8;"/>
     </g>
     <g id="line2d_23">
      <g>
       <use style="stroke:#000000;stroke-width:0.8;" x="496.8" xlink:href="#m35cd143f15" y="115.344"/>
      </g>
     </g>
     <g id="text_14">
      <!-- 18:00 -->
      <g transform="translate(482.390625 129.942437)scale(0.1 -0.1)">
       <use xlink:href="#DejaVuSans-49"/>
       <use x="63.623047" xlink:href="#DejaVuSans-56"/>
       <use x="127.246094" xlink:href="#DejaVuSans-58"/>
       <use x="160.9375" xlink:href="#DejaVuSans-48"/>
       <use x="224.560547" xlink:href="#DejaVuSans-48"/>
      </g>
     </g>
    </g>
    <g id="text_15">
     <!-- UTC in Hours  2019 06 06 -->
     <g transform="translate(370.55625 143.673687)scale(0.1 -0.1)">
      <use xlink:href="#DejaVuSansMono-85"/>
      <use x="60.205078" xlink:href="#DejaVuSansMono-84"/>
      <use x="120.410156" xlink:href="#DejaVuSansMono-67"/>
      <use x="180.615234" xlink:href="#DejaVuSansMono-32"/>
      <use x="240.820312" xlink:href="#DejaVuSansMono-105"/>
      <use x="301.025391" xlink:href="#DejaVuSansMono-110"/>
      <use x="361.230469" xlink:href="#DejaVuSansMono-32"/>
      <use x="421.435547" xlink:href="#DejaVuSansMono-72"/>
      <use x="481.640625" xlink:href="#DejaVuSansMono-111"/>
      <use x="541.845703" xlink:href="#DejaVuSansMono-117"/>
      <use x="602.050781" xlink:href="#DejaVuSansMono-114"/>
      <use x="662.255859" xlink:href="#DejaVuSansMono-115"/>
      <use x="722.460938" xlink:href="#DejaVuSansMono-32"/>
      <use x="782.666016" xlink:href="#DejaVuSansMono-32"/>
      <use x="842.871094" xlink:href="#DejaVuSansMono-50"/>
      <use x="903.076172" xlink:href="#DejaVuSansMono-48"/>
      <use x="963.28125" xlink:href="#DejaVuSansMono-49"/>
      <use x="1023.486328" xlink:href="#DejaVuSansMono-57"/>
      <use x="1083.691406" xlink:href="#DejaVuSansMono-32"/>
      <use x="1143.896484" xlink:href="#DejaVuSansMono-48"/>
      <use x="1204.101562" xlink:href="#DejaVuSansMono-54"/>
      <use x="1264.306641" xlink:href="#DejaVuSansMono-32"/>
      <use x="1324.511719" xlink:href="#DejaVuSansMono-48"/>
      <use x="1384.716797" xlink:href="#DejaVuSansMono-54"/>
     </g>
    </g>
   </g>
   <g id="matplotlib.axis_4">
    <g id="ytick_4">
     <g id="line2d_24">
      <path clip-path="url(#pf0521d80c2)" d="M 334.8 93.166842 
L 550.8 93.166842 
" style="fill:none;stroke:#c8d9cd;stroke-linecap:square;stroke-width:0.8;"/>
     </g>
     <g id="line2d_25">
      <g>
       <use style="stroke:#000000;stroke-width:0.8;" x="334.8" xlink:href="#m40c67ee66d" y="93.166842"/>
      </g>
     </g>
    </g>
    <g id="ytick_5">
     <g id="line2d_26">
      <path clip-path="url(#pf0521d80c2)" d="M 334.8 63.377651 
L 550.8 63.377651 
" style="fill:none;stroke:#c8d9cd;stroke-linecap:square;stroke-width:0.8;"/>
     </g>
     <g id="line2d_27">
      <g>
       <use style="stroke:#000000;stroke-width:0.8;" x="334.8" xlink:href="#m40c67ee66d" y="63.377651"/>
      </g>
     </g>
    </g>
    <g id="ytick_6">
     <g id="line2d_28">
      <path clip-path="url(#pf0521d80c2)" d="M 334.8 33.588461 
L 550.8 33.588461 
" style="fill:none;stroke:#c8d9cd;stroke-linecap:square;stroke-width:0.8;"/>
     </g>
     <g id="line2d_29">
      <g>
       <use style="stroke:#000000;stroke-width:0.8;" x="334.8" xlink:href="#m40c67ee66d" y="33.588461"/>
      </g>
     </g>
    </g>
   </g>
   <g id="line2d_30">
    <path clip-path="url(#pf0521d80c2)" d="M 334.875 33.588461 
L 335.4875 33.969763 
L 335.7925 34.351064 
L 336.2525 34.464263 
L 336.71 35.226866 
L 337.015 35.286445 
L 337.1675 35.089836 
L 337.785 35.816692 
L 338.5525 35.125583 
L 338.86 35.435391 
L 339.015 35.423475 
L 339.1675 35.637957 
L 339.3225 36.323109 
L 339.4775 35.578379 
L 339.63 35.536674 
L 339.94 34.494052 
L 340.2525 34.553631 
L 340.71 33.189286 
L 341.015 32.24199 
L 341.1675 29.257113 
L 341.3225 29.471595 
L 341.475 25.974344 
L 341.63 25.95647 
L 341.7825 23.775902 
L 341.9375 25.110457 
L 342.09 28.923474 
L 342.2425 29.149872 
L 342.3975 28.256196 
L 342.55 29.394143 
L 343.0125 30.53209 
L 343.165 30.025674 
L 343.32 30.454638 
L 343.78 32.992677 
L 343.93 33.04034 
L 344.085 33.552714 
L 344.24 32.313484 
L 344.3925 30.17462 
L 344.7025 29.310733 
L 345.005 29.000926 
L 345.3125 30.275903 
L 345.615 29.34648 
L 345.7675 29.269028 
L 345.9175 29.447764 
L 346.2225 31.675995 
L 346.3725 31.616417 
L 346.685 29.286902 
L 346.8375 29.400101 
L 347.2975 27.040797 
L 347.45 27.380394 
L 347.6025 28.816233 
L 348.0625 28.089377 
L 348.2175 28.85198 
L 348.37 28.869853 
L 348.8325 31.252989 
L 349.1375 35.310276 
L 349.29 36.04309 
L 349.4425 36.037132 
L 349.75 35.578379 
L 349.9025 35.131541 
L 350.67 31.223199 
L 350.975 30.401018 
L 351.4325 31.163621 
L 351.585 31.300651 
L 351.7375 31.27682 
L 351.89 31.503218 
L 352.3475 30.764446 
L 352.5025 31.378103 
L 352.81 34.166371 
L 352.9625 34.333191 
L 353.4225 31.479386 
L 353.5775 30.097168 
L 353.73 30.0078 
L 354.0325 31.902393 
L 354.34 33.737407 
L 354.6475 34.267655 
L 354.95 32.277737 
L 355.2575 32.444556 
L 355.8725 34.613209 
L 356.0225 35.048131 
L 356.175 35.066005 
L 356.3275 36.007343 
L 356.4825 36.180121 
L 357.095 29.555005 
L 357.2475 28.262154 
L 357.4 28.4111 
L 357.5525 28.834106 
L 358.01 26.159037 
L 358.315 29.900559 
L 358.6225 33.677829 
L 358.775 35.101752 
L 359.08 35.304318 
L 359.385 37.53255 
L 359.54 37.895978 
L 359.6925 37.264447 
L 359.8475 37.14529 
L 360.0025 37.967472 
L 360.3075 41.536217 
L 360.46 41.285988 
L 361.0725 30.75253 
L 361.2275 30.544006 
L 361.8425 34.285528 
L 361.9975 35.280487 
L 362.4575 33.642082 
L 362.6125 34.148498 
L 362.765 35.060047 
L 362.92 35.220909 
L 363.5275 33.028424 
L 363.8325 33.934016 
L 364.14 32.766279 
L 364.295 32.694785 
L 364.45 32.796069 
L 364.6025 32.670954 
L 364.7575 33.296527 
L 364.91 33.3144 
L 365.0625 33.475262 
L 365.215 33.242906 
L 365.3675 33.594419 
L 365.6725 33.665913 
L 366.44 37.758948 
L 366.7475 38.622834 
L 366.9 38.533467 
L 367.2025 38.944557 
L 367.355 38.843274 
L 367.6675 39.355648 
L 367.8225 39.421184 
L 368.125 39.141166 
L 368.2775 39.176913 
L 368.585 39.832275 
L 368.8925 39.885896 
L 369.0475 40.09442 
L 369.6625 42.417977 
L 369.9675 42.274989 
L 370.2775 43.824027 
L 370.435 46.082047 
L 370.74 43.478472 
L 370.8925 38.849232 
L 371.045 37.735116 
L 371.1975 63.020181 
L 371.35 64.741996 
L 371.8075 77.557306 
L 371.96 75.841448 
L 372.265 91.254376 
L 372.4175 92.469774 
L 372.5725 97.158593 
L 372.88 110.808 
L 373.1875 108.931281 
L 373.4925 108.186551 
L 373.8 90.521561 
L 374.2575 84.98673 
L 374.4125 84.384988 
L 374.8675 79.571055 
L 375.18 75.072887 
L 375.3325 73.631091 
L 375.79 64.080676 
L 376.405 53.65446 
L 376.8675 51.444102 
L 377.02 51.545385 
L 377.175 48.393689 
L 377.4825 38.390478 
L 377.635 38.146207 
L 377.79 39.65354 
L 378.095 47.09488 
L 378.2475 47.428519 
L 378.4 49.698455 
L 378.555 49.150334 
L 378.705 49.811654 
L 379.01 47.696622 
L 379.1625 46.207162 
L 379.315 45.998638 
L 379.4675 47.01147 
L 379.7725 45.998638 
L 379.9275 47.321278 
L 380.08 47.416603 
L 380.5375 42.721827 
L 380.6925 41.536217 
L 380.995 42.763532 
L 381.1475 41.899645 
L 381.3 42.543092 
L 381.61 49.352901 
L 381.7675 50.985348 
L 381.9225 51.432186 
L 382.3825 58.069218 
L 382.845 48.346026 
L 383.15 49.489931 
L 383.4575 46.153541 
L 383.615 46.725494 
L 383.77 48.066007 
L 384.0775 46.648042 
L 384.23 44.842817 
L 384.3825 45.02751 
L 384.5375 44.50322 
L 384.69 44.681955 
L 384.845 43.544008 
L 385.15 45.051341 
L 385.3025 44.425768 
L 385.455 41.297903 
L 385.6075 40.97618 
L 385.9125 47.643001 
L 386.22 38.90881 
L 386.375 38.730075 
L 386.5275 37.866189 
L 386.6775 37.729158 
L 386.985 40.100378 
L 387.1375 39.826317 
L 387.2925 38.884979 
L 387.445 39.117335 
L 387.7525 43.424852 
L 387.905 41.548133 
L 388.0575 41.530259 
L 388.2125 42.757574 
L 388.5175 40.112294 
L 388.82 37.389562 
L 388.975 37.979388 
L 389.28 43.92531 
L 389.4325 40.153999 
L 389.585 40.880855 
L 389.89 48.661791 
L 390.1925 44.824944 
L 390.345 43.931268 
L 390.65 40.61871 
L 390.9575 39.719076 
L 391.2625 48.72137 
L 391.4175 45.617336 
L 391.57 46.290572 
L 391.725 45.456474 
L 391.88 43.943184 
L 392.0325 44.473431 
L 392.185 43.889563 
L 392.49 42.018802 
L 392.6425 41.405145 
L 392.7925 41.869856 
L 392.945 42.918435 
L 393.25 42.102212 
L 393.7075 44.9441 
L 394.015 44.348317 
L 394.1675 44.747492 
L 394.4725 44.026593 
L 394.7775 44.735576 
L 394.9325 45.319444 
L 395.085 45.128793 
L 395.235 45.277739 
L 395.5425 48.292405 
L 395.6975 48.346026 
L 396.005 43.389105 
L 396.1575 46.409729 
L 396.3125 51.873066 
L 396.4675 51.593048 
L 396.77 55.578841 
L 396.9225 55.924396 
L 397.685 50.067841 
L 397.835 50.008263 
L 398.14 48.935852 
L 398.605 52.045843 
L 399.2175 45.659041 
L 399.3725 45.033468 
L 399.5225 45.128793 
L 399.675 44.902395 
L 399.98 43.269948 
L 400.29 43.710828 
L 400.445 43.305695 
L 400.755 44.270865 
L 401.0575 43.698912 
L 401.215 43.150791 
L 401.6775 40.75574 
L 401.98 39.462889 
L 402.2875 37.818526 
L 402.595 36.448223 
L 403.2075 34.690661 
L 403.36 34.672788 
L 403.5125 34.428516 
L 404.28 32.218158 
L 404.895 31.104043 
L 405.36 32.015592 
L 405.515 31.884519 
L 406.1275 28.560046 
L 406.28 28.714949 
L 406.4325 28.708992 
L 407.2 30.055463 
L 407.355 30.603584 
L 407.5075 30.663163 
L 407.9625 30.222283 
L 408.42 28.655371 
L 408.8825 28.679202 
L 409.0325 28.643455 
L 409.4875 29.048588 
L 410.1025 27.97022 
L 410.405 28.399184 
L 410.5575 28.268112 
L 410.7075 27.898726 
L 410.8625 27.827232 
L 411.17 27.481677 
L 411.3225 27.600834 
L 411.475 27.547213 
L 411.625 27.368478 
L 411.9325 26.808441 
L 412.085 26.713116 
L 412.395 26.873978 
L 412.55 26.695242 
L 412.8575 26.677369 
L 413.0125 26.486718 
L 413.165 26.599917 
L 413.32 26.403308 
L 413.4725 26.403308 
L 413.93 25.974344 
L 414.085 26.099459 
L 414.5475 25.81944 
L 414.7 25.908808 
L 415.16 25.467928 
L 415.625 24.723198 
L 415.7775 24.764903 
L 416.0875 24.484884 
L 416.3925 24.520632 
L 416.6975 24.627873 
L 418.085 23.674619 
L 419.1575 24.312107 
L 420.0775 23.47801 
L 420.38 23.930806 
L 420.6875 24.044004 
L 420.9925 23.984426 
L 421.3025 24.169119 
L 421.765 24.467011 
L 422.2275 24.085709 
L 422.685 23.549504 
L 423.2975 22.87031 
L 423.4525 22.971594 
L 423.755 22.864353 
L 424.065 22.983509 
L 424.22 23.192034 
L 424.525 23.150329 
L 424.68 23.329064 
L 425.14 23.001383 
L 425.7525 23.162244 
L 426.06 23.358853 
L 426.52 23.096708 
L 426.6725 23.180118 
L 426.98 23.025214 
L 427.1325 23.209907 
L 427.285 23.186076 
L 427.745 23.537588 
L 428.0525 23.811649 
L 428.5125 23.865269 
L 429.1275 22.971594 
L 429.745 21.833647 
L 430.355 21.803857 
L 430.5075 21.803857 
L 430.8125 21.952803 
L 431.2775 21.881309 
L 431.5825 21.869394 
L 431.8875 21.76811 
L 432.1925 21.398724 
L 432.8075 20.874435 
L 432.9625 21.148495 
L 433.2675 22.483051 
L 433.4225 22.572418 
L 433.7325 21.815773 
L 433.885 21.374893 
L 434.04 21.321272 
L 434.8025 22.483051 
L 434.955 22.37581 
L 435.2625 21.732363 
L 436.0325 20.129705 
L 436.185 20.350145 
L 436.6425 21.374893 
L 436.7925 20.957844 
L 436.945 20.963802 
L 437.0975 21.214031 
L 437.555 20.838688 
L 437.86 21.184242 
L 438.015 21.059128 
L 438.1675 21.166369 
L 438.475 20.880392 
L 438.6275 21.035296 
L 438.7825 21.023381 
L 438.9375 21.154453 
L 439.24 21.57746 
L 439.7 21.791942 
L 439.855 21.756195 
L 440.1625 21.946845 
L 440.775 21.648954 
L 441.39 22.101749 
L 442.16 22.268569 
L 442.3175 22.2924 
L 442.47 22.471135 
L 442.625 22.381768 
L 442.93 22.769027 
L 443.2375 22.489009 
L 443.545 22.524756 
L 443.85 22.42943 
L 444.7675 23.358853 
L 445.075 23.430347 
L 445.2275 24.4968 
L 445.3825 23.472052 
L 445.535 23.352895 
L 445.8375 23.483968 
L 446.605 24.467011 
L 447.22 24.842355 
L 447.9875 25.318982 
L 448.45 25.503675 
L 448.605 25.348771 
L 448.91 25.420265 
L 449.365 25.027048 
L 449.975 25.700283 
L 450.2825 26.105416 
L 451.045 26.760779 
L 451.81 26.659495 
L 451.965 26.730989 
L 452.12 26.665453 
L 452.575 26.117332 
L 452.88 26.141163 
L 453.0375 26.218615 
L 453.345 26.78461 
L 453.65 27.982135 
L 454.1075 29.876728 
L 454.415 30.281861 
L 454.5675 30.204409 
L 454.875 29.811192 
L 455.03 29.87077 
L 455.3375 29.59671 
L 455.49 29.757571 
L 455.645 29.65033 
L 455.7975 29.829065 
L 455.9475 29.781403 
L 456.2525 30.150788 
L 456.715 30.323566 
L 457.0225 30.538048 
L 457.175 30.222283 
L 457.635 30.865729 
L 457.7875 31.080211 
L 458.095 31.038506 
L 458.4025 31.533007 
L 458.5575 32.146664 
L 458.71 32.116875 
L 458.8625 32.307526 
L 459.0175 32.259863 
L 459.17 32.367104 
L 459.3225 32.265821 
L 459.625 31.920266 
L 460.2475 33.820817 
L 460.5525 33.898269 
L 460.7075 34.267655 
L 461.015 33.612292 
L 461.17 34.565546 
L 461.475 34.976637 
L 461.63 35.494969 
L 461.7875 35.042174 
L 461.9425 35.006426 
L 462.095 35.959681 
L 462.2475 35.322192 
L 462.4 35.369855 
L 462.7075 37.020176 
L 462.8625 36.817609 
L 463.0175 37.139333 
L 463.17 36.936766 
L 463.63 38.336858 
L 463.7825 38.402394 
L 463.9375 38.134291 
L 464.09 38.968389 
L 464.4 38.170038 
L 464.5525 38.289195 
L 464.705 38.122376 
L 464.8575 38.354731 
L 465.01 39.099461 
L 465.1625 39.182871 
L 465.315 39.069672 
L 465.47 39.278196 
L 465.625 39.105419 
L 465.7775 39.445016 
L 465.9325 39.421184 
L 466.24 42.030718 
L 466.5475 40.439975 
L 466.85 42.054549 
L 467.0025 41.321735 
L 467.3075 41.977097 
L 467.4625 41.595795 
L 467.6175 42.763532 
L 467.77 41.971139 
L 467.9225 42.07838 
L 468.075 43.049508 
L 468.2275 43.198454 
L 468.535 43.073339 
L 468.6875 43.78828 
L 468.8425 45.420727 
L 468.995 45.021552 
L 469.1475 45.039426 
L 469.3 44.00872 
L 469.4525 44.479389 
L 469.605 44.264907 
L 469.7575 44.711745 
L 469.91 44.598546 
L 470.2175 44.104045 
L 470.3725 44.115961 
L 470.5275 43.56784 
L 470.6825 44.640251 
L 470.8375 44.681955 
L 471.145 43.949141 
L 471.2975 44.854733 
L 471.45 43.734659 
L 471.605 43.758491 
L 471.755 44.717703 
L 471.9075 44.4496 
L 472.0625 45.063257 
L 472.2175 44.675998 
L 472.37 43.859774 
L 472.525 46.254825 
L 472.68 45.945017 
L 472.8325 45.158583 
L 472.9875 45.289655 
L 473.2925 45.784156 
L 473.755 44.58663 
L 474.06 45.694788 
L 474.2125 46.123752 
L 474.3675 47.928977 
L 474.83 45.230077 
L 475.1375 47.89323 
L 475.2925 47.559591 
L 475.6 46.093963 
L 475.7525 46.326319 
L 476.0625 47.940893 
L 476.215 47.571507 
L 476.52 46.12971 
L 476.6725 46.236951 
L 476.825 46.099921 
L 476.9775 46.21312 
L 477.13 47.357025 
L 477.28 47.088922 
L 477.5875 47.118711 
L 477.745 47.214037 
L 477.9 48.340068 
L 478.5075 46.981681 
L 478.66 46.939976 
L 478.8125 47.088922 
L 479.425 49.025219 
L 479.5775 48.179206 
L 480.0325 49.650792 
L 480.34 49.043093 
L 480.495 49.388648 
L 480.645 50.09763 
L 480.7975 50.026136 
L 480.9525 49.150334 
L 481.1025 49.335027 
L 481.255 49.895064 
L 481.41 49.829528 
L 481.715 49.025219 
L 481.87 48.923936 
L 482.0225 49.043093 
L 482.3275 50.252534 
L 482.48 50.550426 
L 482.6325 50.496805 
L 483.09 49.87719 
L 483.395 48.578382 
L 483.5475 48.512845 
L 483.8525 49.287364 
L 485.0875 50.770866 
L 485.24 50.610004 
L 485.5475 51.056842 
L 485.8525 50.985348 
L 487.07 52.778657 
L 487.22 52.796531 
L 488.445 54.840069 
L 488.905 55.322654 
L 489.0575 55.143919 
L 489.21 55.25116 
L 489.3625 55.626504 
L 489.665 55.382233 
L 489.82 55.483516 
L 490.2825 56.29974 
L 490.435 55.960143 
L 490.59 55.983974 
L 490.8975 56.430812 
L 491.05 56.317613 
L 491.5125 57.264909 
L 492.1275 56.752535 
L 492.4325 56.591674 
L 492.5875 56.514222 
L 492.745 56.847861 
L 493.0475 56.865734 
L 493.2025 56.603589 
L 493.51 57.312572 
L 493.665 57.378108 
L 493.8175 57.270867 
L 494.1225 56.788282 
L 494.2775 56.978933 
L 494.4325 56.853819 
L 494.7375 57.062343 
L 495.045 57.115963 
L 495.1975 57.360235 
L 495.35 57.336403 
L 495.655 57.699832 
L 495.9625 57.699832 
L 496.115 57.634295 
L 496.725 56.663168 
L 497.185 56.919355 
L 497.4925 56.716788 
L 497.6475 56.955102 
L 497.8 56.859776 
L 497.9525 56.615505 
L 498.2575 56.907439 
L 498.7175 57.306614 
L 499.1775 56.663168 
L 499.48 56.162709 
L 499.94 55.352443 
L 500.0925 54.959226 
L 500.245 55.143919 
L 500.5525 54.851985 
L 500.705 54.655376 
L 500.8575 54.911563 
L 501.1625 54.554093 
L 501.6225 53.177833 
L 501.775 52.844194 
L 502.24 52.969308 
L 502.3975 52.546302 
L 502.55 52.725037 
L 502.7025 53.148043 
L 502.8575 53.04676 
L 503.01 52.677374 
L 503.165 52.862067 
L 503.3175 52.760784 
L 503.47 53.058676 
L 503.625 53.005055 
L 503.93 52.236494 
L 504.2375 52.391398 
L 504.545 51.515596 
L 504.85 50.520637 
L 505.0025 50.276365 
L 505.1575 50.300197 
L 505.31 50.169124 
L 505.615 50.526595 
L 505.925 50.329986 
L 506.2325 50.717245 
L 506.385 50.776824 
L 506.69 50.157209 
L 506.995 49.817612 
L 507.1475 50.04401 
L 507.45 49.585256 
L 507.6025 49.60313 
L 507.755 49.82357 
L 507.905 50.270408 
L 508.0575 50.210829 
L 508.365 49.781865 
L 508.515 49.990389 
L 508.67 49.9606 
L 508.825 50.294239 
L 509.4425 49.555467 
L 509.5975 49.090756 
L 509.9025 49.037135 
L 510.0575 49.227786 
L 510.21 49.21587 
L 510.5175 48.673707 
L 511.59 47.720453 
L 511.895 47.559591 
L 512.05 47.041259 
L 512.2025 46.975723 
L 512.51 47.1485 
L 513.13 46.534843 
L 513.2825 46.57059 
L 513.4375 46.469307 
L 513.59 46.201204 
L 513.8925 46.665916 
L 514.0475 46.999554 
L 514.5075 45.790113 
L 514.8175 45.587547 
L 515.1225 44.926227 
L 515.275 44.956016 
L 515.7425 45.712661 
L 516.0525 45.003679 
L 516.3575 44.139792 
L 516.6625 44.235118 
L 516.8175 44.270865 
L 516.97 44.640251 
L 517.1225 44.634293 
L 517.58 42.978014 
L 518.0375 43.287821 
L 518.34 43.162707 
L 518.6475 43.526135 
L 518.8025 43.603587 
L 518.9575 43.460599 
L 519.4175 42.066465 
L 519.8775 43.508261 
L 520.03 43.442725 
L 520.34 42.632459 
L 520.495 42.537134 
L 520.8025 42.829068 
L 521.11 43.18058 
L 521.72 42.173706 
L 522.0275 42.477555 
L 522.4875 42.376272 
L 522.9425 42.191579 
L 523.0925 42.263073 
L 523.55 41.994971 
L 523.855 42.126043 
L 524.1625 41.607711 
L 524.3175 41.178747 
L 524.4725 41.184705 
L 524.6275 41.434934 
L 524.9325 42.215411 
L 525.085 42.114127 
L 525.545 40.219535 
L 525.8525 40.636583 
L 526.005 40.660415 
L 526.4625 40.165914 
L 527.07 40.356565 
L 527.2225 40.291029 
L 527.53 40.648499 
L 527.685 40.642541 
L 527.84 40.499553 
L 527.9925 40.577005 
L 528.455 41.095337 
L 528.61 40.719993 
L 529.07 38.664539 
L 529.2225 38.777738 
L 529.53 39.707161 
L 529.685 39.82036 
L 530.145 37.401477 
L 530.3 37.234658 
L 530.605 37.818526 
L 530.7575 37.818526 
L 530.91 37.657664 
L 531.37 36.561422 
L 531.6775 36.78782 
L 531.9825 37.09167 
L 532.7475 35.637957 
L 532.9 35.512843 
L 533.2075 35.626042 
L 533.6725 36.489928 
L 533.9775 35.852439 
L 534.2875 34.94089 
L 534.44 34.833649 
L 534.9025 34.994511 
L 535.2075 34.833649 
L 535.36 34.851523 
L 535.6675 34.428516 
L 536.1275 34.601293 
L 536.7375 35.399644 
L 537.045 35.113668 
L 537.35 34.505968 
L 537.505 34.434474 
L 537.66 34.625125 
L 537.965 35.316234 
L 538.1175 35.238782 
L 538.2725 35.882229 
L 538.58 35.316234 
L 538.885 35.220909 
L 539.04 35.119625 
L 539.6525 35.203035 
L 540.1125 36.275446 
L 540.4175 36.775904 
L 540.57 36.865272 
L 540.7225 36.626958 
L 541.0275 35.804777 
L 541.18 35.608168 
L 541.4875 35.584337 
L 541.795 35.608168 
L 542.1025 35.792861 
L 542.2575 35.643915 
L 542.4125 35.304318 
L 542.7175 34.255739 
L 543.0225 34.333191 
L 543.48 34.267655 
L 543.635 34.214034 
L 543.785 34.374896 
L 543.94 34.148498 
L 544.09 34.166371 
L 544.2425 34.333191 
L 544.5475 34.339149 
L 544.7 34.565546 
L 544.85 34.547673 
L 545.31 33.56463 
L 545.465 33.70166 
L 545.62 33.487178 
L 545.925 33.528883 
L 546.08 33.695702 
L 546.3875 34.118709 
L 547.1575 33.886353 
L 547.31 34.088919 
L 547.4625 34.05913 
L 548.38 32.694785 
L 548.6825 32.998635 
L 549.1425 33.612292 
L 549.295 33.558672 
L 549.905 32.59946 
L 550.52 32.855647 
L 550.675 32.760322 
L 550.675 32.760322 
" style="fill:none;stroke:#ff0000;stroke-linecap:square;stroke-width:1.5;"/>
   </g>
   <g id="patch_7">
    <path d="M 334.8 115.344 
L 334.8 15.552 
" style="fill:none;stroke:#445753;stroke-linecap:square;stroke-linejoin:miter;stroke-width:3;"/>
   </g>
   <g id="patch_8">
    <path d="M 334.8 115.344 
L 550.8 115.344 
" style="fill:none;stroke:#445753;stroke-linecap:square;stroke-linejoin:miter;stroke-width:3;"/>
   </g>
   <g id="text_16">
    <g id="patch_9">
     <path d="M 413.554688 14.007625 
L 472.045312 14.007625 
L 472.045312 -5.526125 
L 413.554688 -5.526125 
z
" style="fill:#f4f7f7;stroke:#f4f7f7;stroke-linejoin:miter;"/>
    </g>
    <a xlink:href="http://google.com">
     <!-- Y-Field -->
     <defs>
      <path d="M 0.390625 72.90625 
L 15.921875 72.90625 
L 30.078125 43.609375 
L 44.28125 72.90625 
L 59.8125 72.90625 
L 37.3125 28.71875 
L 37.3125 0 
L 22.90625 0 
L 22.90625 28.71875 
z
" id="DejaVuSansMono-Bold-89"/>
     </defs>
     <g style="fill:#222b29;" transform="translate(417.514687 7.552)scale(0.12 -0.12)">
      <use xlink:href="#DejaVuSansMono-Bold-89"/>
      <use x="60.205078" xlink:href="#DejaVuSansMono-Bold-45"/>
      <use x="120.410156" xlink:href="#DejaVuSansMono-Bold-70"/>
      <use x="180.615234" xlink:href="#DejaVuSansMono-Bold-105"/>
      <use x="240.820312" xlink:href="#DejaVuSansMono-Bold-101"/>
      <use x="301.025391" xlink:href="#DejaVuSansMono-Bold-108"/>
      <use x="361.230469" xlink:href="#DejaVuSansMono-Bold-100"/>
     </g>
    </a>
   </g>
  </g>
  <g id="axes_3">
   <g id="patch_10">
    <path d="M 561.6 115.344 
L 777.6 115.344 
L 777.6 15.552 
L 561.6 15.552 
z
" style="fill:#a6c2bc;"/>
   </g>
   <g id="matplotlib.axis_5">
    <g id="xtick_9">
     <g id="line2d_31">
      <path clip-path="url(#pdfb85fcf98)" d="M 561.6 115.344 
L 561.6 15.552 
" style="fill:none;stroke:#c8d9cd;stroke-linecap:square;stroke-width:0.8;"/>
     </g>
     <g id="line2d_32">
      <g>
       <use style="stroke:#000000;stroke-width:0.8;" x="561.6" xlink:href="#m35cd143f15" y="115.344"/>
      </g>
     </g>
     <g id="text_17">
      <!-- 00:00 -->
      <g transform="translate(547.190625 129.942437)scale(0.1 -0.1)">
       <use xlink:href="#DejaVuSans-48"/>
       <use x="63.623047" xlink:href="#DejaVuSans-48"/>
       <use x="127.246094" xlink:href="#DejaVuSans-58"/>
       <use x="160.9375" xlink:href="#DejaVuSans-48"/>
       <use x="224.560547" xlink:href="#DejaVuSans-48"/>
      </g>
     </g>
    </g>
    <g id="xtick_10">
     <g id="line2d_33">
      <path clip-path="url(#pdfb85fcf98)" d="M 615.6 115.344 
L 615.6 15.552 
" style="fill:none;stroke:#c8d9cd;stroke-linecap:square;stroke-width:0.8;"/>
     </g>
     <g id="line2d_34">
      <g>
       <use style="stroke:#000000;stroke-width:0.8;" x="615.6" xlink:href="#m35cd143f15" y="115.344"/>
      </g>
     </g>
     <g id="text_18">
      <!-- 06:00 -->
      <g transform="translate(601.190625 129.942437)scale(0.1 -0.1)">
       <use xlink:href="#DejaVuSans-48"/>
       <use x="63.623047" xlink:href="#DejaVuSans-54"/>
       <use x="127.246094" xlink:href="#DejaVuSans-58"/>
       <use x="160.9375" xlink:href="#DejaVuSans-48"/>
       <use x="224.560547" xlink:href="#DejaVuSans-48"/>
      </g>
     </g>
    </g>
    <g id="xtick_11">
     <g id="line2d_35">
      <path clip-path="url(#pdfb85fcf98)" d="M 669.6 115.344 
L 669.6 15.552 
" style="fill:none;stroke:#c8d9cd;stroke-linecap:square;stroke-width:0.8;"/>
     </g>
     <g id="line2d_36">
      <g>
       <use style="stroke:#000000;stroke-width:0.8;" x="669.6" xlink:href="#m35cd143f15" y="115.344"/>
      </g>
     </g>
     <g id="text_19">
      <!-- 12:00 -->
      <g transform="translate(655.190625 129.942437)scale(0.1 -0.1)">
       <use xlink:href="#DejaVuSans-49"/>
       <use x="63.623047" xlink:href="#DejaVuSans-50"/>
       <use x="127.246094" xlink:href="#DejaVuSans-58"/>
       <use x="160.9375" xlink:href="#DejaVuSans-48"/>
       <use x="224.560547" xlink:href="#DejaVuSans-48"/>
      </g>
     </g>
    </g>
    <g id="xtick_12">
     <g id="line2d_37">
      <path clip-path="url(#pdfb85fcf98)" d="M 723.6 115.344 
L 723.6 15.552 
" style="fill:none;stroke:#c8d9cd;stroke-linecap:square;stroke-width:0.8;"/>
     </g>
     <g id="line2d_38">
      <g>
       <use style="stroke:#000000;stroke-width:0.8;" x="723.6" xlink:href="#m35cd143f15" y="115.344"/>
      </g>
     </g>
     <g id="text_20">
      <!-- 18:00 -->
      <g transform="translate(709.190625 129.942437)scale(0.1 -0.1)">
       <use xlink:href="#DejaVuSans-49"/>
       <use x="63.623047" xlink:href="#DejaVuSans-56"/>
       <use x="127.246094" xlink:href="#DejaVuSans-58"/>
       <use x="160.9375" xlink:href="#DejaVuSans-48"/>
       <use x="224.560547" xlink:href="#DejaVuSans-48"/>
      </g>
     </g>
    </g>
    <g id="text_21">
     <!-- UTC in Hours  2019 06 06 -->
     <g transform="translate(597.35625 143.673687)scale(0.1 -0.1)">
      <use xlink:href="#DejaVuSansMono-85"/>
      <use x="60.205078" xlink:href="#DejaVuSansMono-84"/>
      <use x="120.410156" xlink:href="#DejaVuSansMono-67"/>
      <use x="180.615234" xlink:href="#DejaVuSansMono-32"/>
      <use x="240.820312" xlink:href="#DejaVuSansMono-105"/>
      <use x="301.025391" xlink:href="#DejaVuSansMono-110"/>
      <use x="361.230469" xlink:href="#DejaVuSansMono-32"/>
      <use x="421.435547" xlink:href="#DejaVuSansMono-72"/>
      <use x="481.640625" xlink:href="#DejaVuSansMono-111"/>
      <use x="541.845703" xlink:href="#DejaVuSansMono-117"/>
      <use x="602.050781" xlink:href="#DejaVuSansMono-114"/>
      <use x="662.255859" xlink:href="#DejaVuSansMono-115"/>
      <use x="722.460938" xlink:href="#DejaVuSansMono-32"/>
      <use x="782.666016" xlink:href="#DejaVuSansMono-32"/>
      <use x="842.871094" xlink:href="#DejaVuSansMono-50"/>
      <use x="903.076172" xlink:href="#DejaVuSansMono-48"/>
      <use x="963.28125" xlink:href="#DejaVuSansMono-49"/>
      <use x="1023.486328" xlink:href="#DejaVuSansMono-57"/>
      <use x="1083.691406" xlink:href="#DejaVuSansMono-32"/>
      <use x="1143.896484" xlink:href="#DejaVuSansMono-48"/>
      <use x="1204.101562" xlink:href="#DejaVuSansMono-54"/>
      <use x="1264.306641" xlink:href="#DejaVuSansMono-32"/>
      <use x="1324.511719" xlink:href="#DejaVuSansMono-48"/>
      <use x="1384.716797" xlink:href="#DejaVuSansMono-54"/>
     </g>
    </g>
   </g>
   <g id="matplotlib.axis_6">
    <g id="ytick_7">
     <g id="line2d_39">
      <path clip-path="url(#pdfb85fcf98)" d="M 561.6 93.166842 
L 777.6 93.166842 
" style="fill:none;stroke:#c8d9cd;stroke-linecap:square;stroke-width:0.8;"/>
     </g>
     <g id="line2d_40">
      <g>
       <use style="stroke:#000000;stroke-width:0.8;" x="561.6" xlink:href="#m40c67ee66d" y="93.166842"/>
      </g>
     </g>
    </g>
    <g id="ytick_8">
     <g id="line2d_41">
      <path clip-path="url(#pdfb85fcf98)" d="M 561.6 63.377651 
L 777.6 63.377651 
" style="fill:none;stroke:#c8d9cd;stroke-linecap:square;stroke-width:0.8;"/>
     </g>
     <g id="line2d_42">
      <g>
       <use style="stroke:#000000;stroke-width:0.8;" x="561.6" xlink:href="#m40c67ee66d" y="63.377651"/>
      </g>
     </g>
    </g>
    <g id="ytick_9">
     <g id="line2d_43">
      <path clip-path="url(#pdfb85fcf98)" d="M 561.6 33.588461 
L 777.6 33.588461 
" style="fill:none;stroke:#c8d9cd;stroke-linecap:square;stroke-width:0.8;"/>
     </g>
     <g id="line2d_44">
      <g>
       <use style="stroke:#000000;stroke-width:0.8;" x="561.6" xlink:href="#m40c67ee66d" y="33.588461"/>
      </g>
     </g>
    </g>
    <g id="text_22">
     <g id="patch_11">
      <path d="M 779.95125 52.28544 
L 818.44875 52.28544 
L 818.44875 31.07169 
L 779.95125 31.07169 
z
" style="fill:#222b29;stroke:#222b29;stroke-linejoin:miter;"/>
     </g>
     <!-- INUK -->
     <defs>
      <path d="M 8.40625 60.203125 
L 8.40625 72.90625 
L 51.8125 72.90625 
L 51.8125 60.203125 
L 37.3125 60.203125 
L 37.3125 12.703125 
L 51.8125 12.703125 
L 51.8125 0 
L 8.40625 0 
L 8.40625 12.703125 
L 22.90625 12.703125 
L 22.90625 60.203125 
z
" id="DejaVuSansMono-Bold-73"/>
      <path d="M 5.8125 72.90625 
L 21.296875 72.90625 
L 41.609375 19.921875 
L 41.609375 72.90625 
L 54.296875 72.90625 
L 54.296875 0 
L 38.921875 0 
L 18.5 52.984375 
L 18.5 0 
L 5.8125 0 
z
" id="DejaVuSansMono-Bold-78"/>
      <path d="M 5.171875 26.90625 
L 5.171875 72.90625 
L 19.578125 72.90625 
L 19.578125 23.296875 
Q 19.578125 17.828125 22.359375 14.71875 
Q 25.140625 11.625 30.078125 11.625 
Q 35.015625 11.625 37.796875 14.71875 
Q 40.578125 17.828125 40.578125 23.296875 
L 40.578125 72.90625 
L 54.984375 72.90625 
L 54.984375 26.90625 
Q 54.984375 12.0625 49.078125 5.3125 
Q 43.171875 -1.421875 30.078125 -1.421875 
Q 17.046875 -1.421875 11.109375 5.3125 
Q 5.171875 12.0625 5.171875 26.90625 
z
" id="DejaVuSansMono-Bold-85"/>
      <path d="M 5.71875 72.90625 
L 20.125 72.90625 
L 20.125 44.09375 
L 42.671875 72.90625 
L 58.984375 72.90625 
L 35.984375 44.1875 
L 59.8125 0 
L 43.796875 0 
L 26.515625 32.8125 
L 20.125 24.703125 
L 20.125 0 
L 5.71875 0 
z
" id="DejaVuSansMono-Bold-75"/>
     </defs>
     <g style="fill:#e1eae8;" transform="translate(784.75125 44.989815)scale(0.12 -0.12)">
      <use xlink:href="#DejaVuSansMono-Bold-73"/>
      <use x="60.205078" xlink:href="#DejaVuSansMono-Bold-78"/>
      <use x="120.410156" xlink:href="#DejaVuSansMono-Bold-85"/>
      <use x="180.615234" xlink:href="#DejaVuSansMono-Bold-75"/>
     </g>
    </g>
   </g>
   <g id="line2d_45">
    <path clip-path="url(#pdfb85fcf98)" d="M 561.675 33.588461 
L 561.98 33.546756 
L 562.2875 33.999552 
L 562.5925 34.535757 
L 562.7475 34.434474 
L 562.9 34.494052 
L 563.815 37.073796 
L 563.9675 37.032091 
L 564.1225 37.300194 
L 564.43 38.396436 
L 564.74 38.581129 
L 564.8925 38.396436 
L 565.3525 37.389562 
L 565.66 37.985346 
L 565.815 37.794695 
L 565.9675 38.116418 
L 566.1225 38.944557 
L 566.2775 38.033008 
L 566.43 38.062797 
L 566.585 37.75299 
L 566.74 37.085712 
L 566.895 37.157206 
L 567.0525 37.026134 
L 567.205 36.65079 
L 567.6625 38.128334 
L 567.815 37.169122 
L 567.9675 35.268571 
L 568.1225 35.262614 
L 568.275 35.596252 
L 568.5825 32.289652 
L 568.7375 32.939057 
L 568.89 29.686077 
L 569.0425 29.316691 
L 569.35 27.022923 
L 569.505 27.654454 
L 569.6575 27.148038 
L 569.965 28.899642 
L 570.12 28.053629 
L 570.2725 28.196618 
L 570.425 28.661329 
L 570.58 29.662246 
L 570.885 34.50001 
L 571.1925 34.124666 
L 571.5025 35.780945 
L 571.6525 34.893228 
L 571.805 36.287362 
L 572.1125 35.173246 
L 572.265 37.324025 
L 572.5675 35.912018 
L 572.7175 36.019259 
L 573.3275 38.283237 
L 573.79 38.920726 
L 573.945 37.455098 
L 574.0975 37.687454 
L 574.25 37.014218 
L 574.4025 37.270405 
L 574.555 36.549507 
L 574.71 36.901019 
L 574.8625 37.860231 
L 575.0175 36.418434 
L 575.17 36.489928 
L 575.3225 37.276363 
L 575.4775 36.960597 
L 575.785 35.489011 
L 575.9375 34.976637 
L 576.2425 34.72045 
L 576.3975 35.947765 
L 576.55 36.245657 
L 576.7025 36.180121 
L 576.855 36.352898 
L 577.1625 37.961514 
L 577.315 37.860231 
L 577.775 36.239699 
L 577.9275 35.393686 
L 578.08 35.226866 
L 578.2325 35.751156 
L 578.385 35.578379 
L 578.5375 35.131541 
L 578.69 35.298361 
L 578.995 36.56738 
L 579.1475 36.04309 
L 579.4575 34.648956 
L 579.7625 37.097628 
L 580.2225 41.846025 
L 580.53 39.963348 
L 580.6825 40.058673 
L 580.8325 40.67233 
L 581.14 42.286905 
L 581.4475 44.300654 
L 581.9025 42.894604 
L 582.21 42.388188 
L 582.365 42.525218 
L 582.8225 42.745658 
L 583.4375 38.890937 
L 583.895 38.324942 
L 584.3525 42.858857 
L 585.115 36.543549 
L 585.575 37.80661 
L 585.7275 37.44914 
L 585.88 37.794695 
L 586.0325 37.729158 
L 586.185 38.044924 
L 586.34 38.777738 
L 586.8025 36.317151 
L 586.955 36.865272 
L 587.26 39.856107 
L 587.5675 39.391395 
L 587.7225 39.719076 
L 588.0275 38.485804 
L 588.1825 38.616876 
L 588.335 39.069672 
L 588.4875 38.920726 
L 588.6425 39.242449 
L 588.95 41.017885 
L 589.2575 39.224576 
L 589.4125 38.884979 
L 589.565 39.010094 
L 589.72 39.51651 
L 589.8725 39.081588 
L 590.025 39.07563 
L 590.1775 38.873063 
L 590.3275 39.21266 
L 590.7875 41.625585 
L 591.25 42.966098 
L 591.4025 42.209453 
L 591.5575 42.429893 
L 591.71 42.930351 
L 591.8625 42.852899 
L 592.015 42.531176 
L 592.4725 40.678288 
L 592.625 41.768573 
L 592.7775 41.887729 
L 593.085 39.832275 
L 593.24 39.391395 
L 593.3925 39.29607 
L 593.5475 39.671414 
L 593.7 39.504594 
L 594.155 38.3309 
L 594.31 38.41431 
L 594.6225 39.057756 
L 594.7725 39.027967 
L 595.6925 41.208536 
L 595.8475 41.131084 
L 596 41.208536 
L 596.3075 42.983972 
L 596.9225 48.483056 
L 597.39 58.581592 
L 597.54 59.499099 
L 597.6925 58.444561 
L 597.845 63.955562 
L 597.9975 62.621006 
L 598.15 59.350153 
L 598.455 76.699377 
L 598.6075 76.216792 
L 598.91 59.266743 
L 599.065 74.006434 
L 599.2175 75.049056 
L 599.3725 79.052723 
L 599.525 87.810745 
L 599.68 85.248875 
L 600.14 104.11139 
L 600.2925 96.53302 
L 600.445 82.913402 
L 600.6 86.726419 
L 600.9075 100.518814 
L 601.0575 100.351994 
L 601.2125 100.769043 
L 601.365 96.318538 
L 601.515 99.982608 
L 601.98 93.935403 
L 602.1325 100.137512 
L 602.285 99.762168 
L 602.4375 98.254835 
L 602.74 92.076557 
L 603.205 80.828159 
L 603.3575 81.167756 
L 603.5125 81.048599 
L 603.6675 79.797453 
L 603.975 71.319449 
L 604.2825 61.298366 
L 604.435 63.556386 
L 604.59 63.729164 
L 605.0475 74.316242 
L 605.2 74.280495 
L 605.355 74.882237 
L 605.6575 71.361154 
L 605.81 67.494517 
L 606.2675 69.996809 
L 606.42 68.042638 
L 606.5725 67.953271 
L 606.88 64.158128 
L 607.185 60.202124 
L 607.4925 57.384066 
L 607.645 57.997724 
L 607.795 57.795157 
L 608.1 62.823572 
L 608.41 53.386357 
L 608.7225 51.771783 
L 608.8775 51.58709 
L 609.645 54.363442 
L 609.7975 53.124212 
L 609.95 53.600839 
L 610.1025 53.368483 
L 610.415 53.469767 
L 610.57 53.648502 
L 610.7225 52.534386 
L 610.8775 50.574257 
L 611.03 50.991306 
L 611.49 57.223205 
L 611.645 53.070591 
L 611.7975 55.811197 
L 611.95 56.317613 
L 612.1025 58.843737 
L 612.255 56.448686 
L 612.56 48.363899 
L 612.8675 53.994056 
L 613.02 52.367567 
L 613.3275 58.992682 
L 613.63 53.553176 
L 614.0925 60.863444 
L 614.245 60.142545 
L 614.705 63.824489 
L 614.8575 64.080676 
L 615.0125 65.570136 
L 615.165 65.635672 
L 615.3175 66.952354 
L 615.4675 69.555929 
L 615.62 69.585719 
L 615.9275 71.968854 
L 616.2325 76.88407 
L 616.385 73.928982 
L 616.5375 68.096259 
L 616.69 69.841906 
L 616.84 73.768121 
L 616.9925 73.094885 
L 617.2975 74.483061 
L 617.45 73.911109 
L 617.7575 70.902401 
L 618.0625 59.981684 
L 618.37 71.551805 
L 618.68 75.269496 
L 618.8325 75.430358 
L 619.29 68.489476 
L 619.4425 69.69296 
L 619.745 79.857031 
L 620.05 77.593053 
L 620.3575 85.362074 
L 620.5075 85.242917 
L 620.815 83.169589 
L 621.2725 84.384988 
L 621.425 83.848783 
L 621.5775 83.914319 
L 621.7325 84.641175 
L 621.885 84.212211 
L 622.035 83.44365 
L 622.19 85.939984 
L 622.3425 91.933569 
L 622.4975 90.491772 
L 622.65 86.815786 
L 622.9575 98.522938 
L 623.1125 102.830455 
L 623.2675 103.31304 
L 623.4175 100.00644 
L 623.57 99.875367 
L 623.7225 95.275916 
L 623.875 94.894615 
L 624.0275 97.986733 
L 624.485 94.936319 
L 624.635 94.608638 
L 625.0975 90.545393 
L 625.25 91.07564 
L 625.405 91.063725 
L 625.56 85.689755 
L 625.7125 86.500021 
L 625.865 88.096721 
L 626.0175 87.745209 
L 626.1725 88.233752 
L 626.3225 89.681506 
L 626.475 89.288289 
L 626.78 86.30937 
L 627.09 86.797913 
L 627.4025 84.051349 
L 627.705 85.487188 
L 627.8575 84.885447 
L 628.63 78.570138 
L 628.78 77.896903 
L 629.0875 71.992685 
L 629.395 68.578844 
L 629.5475 67.977102 
L 629.8525 65.504599 
L 630.16 62.936771 
L 631.235 54.989015 
L 631.695 52.498639 
L 631.85 52.808447 
L 632.005 52.844194 
L 632.315 49.829528 
L 632.62 44.223202 
L 632.9275 43.049508 
L 633.08 43.103128 
L 633.2325 43.92531 
L 633.5375 46.451433 
L 633.6925 46.665916 
L 633.8475 46.618253 
L 634.46 47.911104 
L 634.7625 49.13246 
L 635.07 48.328152 
L 635.22 48.167291 
L 635.5275 49.07884 
L 635.8325 49.889106 
L 635.9825 49.901022 
L 636.2875 49.567383 
L 636.5925 48.441351 
L 636.9025 48.506888 
L 637.205 49.829528 
L 637.3575 49.674624 
L 637.5075 49.114587 
L 637.6625 49.424395 
L 637.8175 49.21587 
L 637.97 49.227786 
L 638.425 48.864358 
L 638.5775 48.798822 
L 638.7325 48.935852 
L 639.04 49.311196 
L 639.195 49.257575 
L 639.35 49.358858 
L 639.6575 48.882231 
L 639.965 49.376732 
L 640.12 49.227786 
L 640.425 49.370774 
L 640.73 49.734202 
L 641.195 51.050884 
L 641.655 51.372608 
L 641.8075 51.700289 
L 641.96 51.604963 
L 642.115 51.658584 
L 642.425 51.164083 
L 642.5775 51.122378 
L 643.04 50.157209 
L 643.1925 50.204871 
L 643.6525 49.817612 
L 643.8075 49.805696 
L 643.9625 49.924853 
L 644.885 48.441351 
L 645.6475 47.214037 
L 645.9575 47.333193 
L 646.2625 47.559591 
L 646.415 47.285531 
L 646.725 47.422561 
L 646.8775 47.571507 
L 647.0275 47.494055 
L 647.4875 48.208996 
L 647.7925 48.083881 
L 648.2575 48.465183 
L 648.41 48.578382 
L 648.565 48.369857 
L 648.72 48.47114 
L 648.8725 48.292405 
L 649.0275 48.47114 
L 649.18 48.286447 
L 649.485 48.346026 
L 649.945 48.036218 
L 650.405 47.911104 
L 650.555 47.851525 
L 651.02 48.048134 
L 651.1725 47.881315 
L 651.325 48.006429 
L 651.48 47.958766 
L 651.7875 48.167291 
L 652.0925 48.066007 
L 652.245 48.036218 
L 653.0125 48.548592 
L 653.625 49.21587 
L 653.9325 49.329069 
L 654.545 49.454184 
L 654.6975 49.585256 
L 655.62 51.402397 
L 655.7725 51.390481 
L 656.085 51.515596 
L 656.545 51.396439 
L 657.155 51.277282 
L 657.46 51.515596 
L 657.6125 51.396439 
L 657.7675 51.58709 
L 657.9225 51.378565 
L 658.0775 51.426228 
L 658.3825 51.122378 
L 658.6875 50.550426 
L 658.84 50.532552 
L 659.145 50.055925 
L 659.3 50.026136 
L 659.455 49.758033 
L 659.7625 49.763991 
L 660.0675 51.175999 
L 660.3775 53.439977 
L 660.5325 53.970225 
L 660.9925 54.071508 
L 661.145 53.952351 
L 661.3 53.982141 
L 661.4525 54.309822 
L 661.6025 54.357484 
L 661.755 54.840069 
L 662.3725 54.172791 
L 662.5275 54.226412 
L 662.8325 53.862984 
L 662.985 53.779574 
L 663.5925 55.787366 
L 663.745 55.537136 
L 663.8975 55.519263 
L 664.5075 54.732828 
L 664.66 54.744744 
L 664.9675 55.102214 
L 665.275 55.459685 
L 665.4275 55.459685 
L 666.04 56.025679 
L 666.8075 55.733745 
L 666.9625 55.727787 
L 667.2675 56.275908 
L 667.88 56.21633 
L 668.035 56.061426 
L 668.4975 56.442728 
L 668.805 56.87765 
L 668.96 56.984891 
L 669.5775 56.919355 
L 670.0375 57.050427 
L 670.195 57.092132 
L 670.65 58.128796 
L 671.7225 58.754369 
L 671.875 59.093966 
L 672.0275 59.076092 
L 672.1825 59.3859 
L 672.335 59.3859 
L 672.4875 59.60634 
L 672.6375 59.46931 
L 672.79 59.570593 
L 673.0975 59.46931 
L 673.405 59.850611 
L 673.7125 59.993599 
L 674.02 59.719539 
L 674.4825 59.951894 
L 674.635 60.112756 
L 674.7875 59.981684 
L 675.405 60.643004 
L 675.71 60.923022 
L 675.8625 61.101757 
L 676.0125 61.083884 
L 676.165 61.45327 
L 676.93 61.852445 
L 677.3875 62.573343 
L 677.5375 62.519723 
L 677.69 62.662711 
L 677.845 62.585259 
L 678.15 62.758036 
L 678.455 62.650795 
L 678.765 62.77591 
L 678.92 63.21679 
L 679.2225 63.276368 
L 679.68 64.164086 
L 679.99 65.129256 
L 680.2975 65.03393 
L 680.45 64.801575 
L 680.6025 64.956478 
L 680.755 64.694333 
L 681.0625 65.385443 
L 681.215 65.176918 
L 681.675 66.171877 
L 681.83 66.314865 
L 681.9825 66.82724 
L 682.29 66.690209 
L 682.5975 66.588926 
L 682.9 66.392317 
L 683.515 66.541263 
L 683.6675 66.112299 
L 683.975 65.951437 
L 684.1275 65.510557 
L 684.2825 65.784618 
L 684.435 65.742913 
L 684.5875 65.891859 
L 684.7425 65.86207 
L 685.2025 64.688376 
L 685.51 64.491767 
L 685.8175 65.045846 
L 685.97 64.873069 
L 686.1225 64.950521 
L 686.425 64.45602 
L 686.58 63.907899 
L 686.7375 63.967477 
L 686.8925 64.15217 
L 687.0475 64.122381 
L 687.2 64.485809 
L 687.3525 64.366652 
L 687.5075 64.021098 
L 687.66 64.968394 
L 687.97 63.383609 
L 688.275 64.485809 
L 688.43 64.295158 
L 688.7425 65.47481 
L 688.895 63.913857 
L 689.0475 64.301116 
L 689.2 63.747037 
L 689.3525 63.681501 
L 689.5075 63.335946 
L 689.6625 64.170044 
L 689.8175 64.158128 
L 689.97 63.866194 
L 690.1225 63.967477 
L 690.2775 64.902858 
L 690.43 64.295158 
L 690.5825 64.259411 
L 690.7375 64.855195 
L 690.89 63.639796 
L 691.2 64.986268 
L 691.3525 64.682418 
L 691.505 65.045846 
L 691.81 63.985351 
L 691.9625 64.771785 
L 692.115 64.336863 
L 692.27 64.390484 
L 692.425 64.825406 
L 692.5775 64.831364 
L 692.7325 65.129256 
L 692.8875 63.651712 
L 693.04 64.009182 
L 693.195 64.777743 
L 693.3475 64.604966 
L 693.65 64.056845 
L 693.8025 65.623756 
L 693.955 63.645754 
L 694.1075 64.086634 
L 694.4175 62.948687 
L 694.57 64.313032 
L 694.7225 63.294242 
L 695.0275 63.222747 
L 695.1825 63.669585 
L 695.335 63.395525 
L 695.4875 62.835488 
L 695.6425 62.698458 
L 696.1 64.807532 
L 696.2525 64.09855 
L 696.405 65.450979 
L 696.5575 63.764911 
L 696.71 64.557303 
L 697.0175 63.43723 
L 697.1725 64.033013 
L 697.6375 64.283243 
L 697.945 65.224581 
L 698.0975 63.192958 
L 698.25 64.086634 
L 698.405 62.662711 
L 698.555 63.764911 
L 698.7075 62.323114 
L 698.8625 62.585259 
L 699.0175 62.436313 
L 699.17 62.752078 
L 699.325 60.905148 
L 699.48 62.990392 
L 699.6325 61.917981 
L 699.7875 62.704416 
L 699.94 62.436313 
L 700.0925 62.77591 
L 700.2475 63.669585 
L 700.4 62.430355 
L 700.555 63.306157 
L 700.7075 61.870318 
L 700.86 61.959686 
L 701.0125 61.685625 
L 701.1675 60.249786 
L 701.3225 61.411565 
L 701.4775 60.446395 
L 701.63 61.310281 
L 701.785 59.576551 
L 701.9375 61.024305 
L 702.0925 61.36986 
L 702.245 60.958769 
L 702.4 60.92898 
L 702.7075 59.862527 
L 702.8625 60.654919 
L 703.015 59.802948 
L 703.1675 60.112756 
L 703.32 59.582508 
L 703.4725 58.629254 
L 703.625 59.600382 
L 703.7775 59.046303 
L 704.08 57.276825 
L 704.2325 57.45556 
L 704.3875 57.175542 
L 704.8525 58.545845 
L 705.155 57.592591 
L 705.3075 57.84282 
L 705.765 55.620546 
L 705.92 55.358401 
L 706.0725 54.190665 
L 706.225 54.238328 
L 706.8325 53.517429 
L 706.985 53.62467 
L 707.14 52.534386 
L 707.445 53.011013 
L 707.7525 52.653543 
L 707.9025 52.891856 
L 708.21 52.796531 
L 708.8225 51.741994 
L 708.975 51.736036 
L 709.28 52.188831 
L 709.7375 52.999097 
L 709.89 52.796531 
L 710.0425 52.313946 
L 710.6525 49.001388 
L 711.5825 47.130627 
L 711.735 47.082964 
L 711.8875 47.23191 
L 712.1925 47.780031 
L 712.3475 47.666832 
L 712.955 46.528885 
L 713.1075 46.57059 
L 713.7175 47.803863 
L 714.02 48.214953 
L 714.33 48.572424 
L 714.635 48.63796 
L 714.94 48.208996 
L 715.245 47.934935 
L 716.01 48.310279 
L 716.315 48.024303 
L 717.6975 45.545842 
L 717.85 45.629252 
L 718.3125 46.117794 
L 718.4675 46.034385 
L 719.545 43.722744 
L 719.695 43.633376 
L 720.0025 43.740617 
L 720.31 43.746575 
L 720.465 44.00872 
L 720.6175 43.990846 
L 721.69 42.995887 
L 722.3025 43.544008 
L 722.7625 43.454641 
L 723.0675 42.727785 
L 723.6775 40.809361 
L 723.985 40.75574 
L 724.4475 40.45189 
L 724.7525 41.029801 
L 725.365 42.274989 
L 725.67 42.042633 
L 725.9775 41.756657 
L 726.74 40.016968 
L 726.8925 39.975263 
L 727.045 40.058673 
L 727.2 39.921643 
L 727.6575 40.845108 
L 728.115 39.725034 
L 728.575 37.925767 
L 728.73 37.729158 
L 728.8825 37.925767 
L 729.5025 39.510552 
L 729.6575 39.468847 
L 729.965 40.267197 
L 730.1175 40.273155 
L 730.27 40.636583 
L 730.5775 40.332734 
L 730.885 40.934475 
L 731.0375 41.36344 
L 731.19 40.982138 
L 731.4975 39.707161 
L 731.65 39.409269 
L 731.8025 39.629709 
L 732.11 40.499553 
L 732.725 41.214494 
L 733.0325 42.155832 
L 733.185 42.012844 
L 733.6425 40.690204 
L 733.9475 40.594879 
L 734.25 39.993137 
L 734.4025 40.356565 
L 734.705 40.505511 
L 735.0125 40.821276 
L 735.315 40.874897 
L 735.7775 41.262156 
L 736.0875 41.035759 
L 736.3975 41.405145 
L 736.55 41.274072 
L 736.8575 41.631542 
L 737.3175 40.857023 
L 737.47 40.862981 
L 737.7775 40.988096 
L 737.93 40.898728 
L 738.5425 41.160873 
L 739.4625 40.165914 
L 739.6175 40.189746 
L 740.2375 41.494512 
L 740.39 41.381313 
L 740.5425 41.208536 
L 740.6925 40.773614 
L 741.0025 41.959223 
L 741.155 41.983055 
L 741.3075 42.310736 
L 741.4625 42.036675 
L 741.77 40.207619 
L 741.9225 40.308902 
L 742.075 41.125126 
L 742.3875 41.190662 
L 742.5425 41.071506 
L 742.8525 40.571047 
L 743.31 40.291029 
L 743.9225 39.147124 
L 744.23 37.955556 
L 744.685 38.533467 
L 744.9875 37.901936 
L 745.14 37.991303 
L 745.295 38.265364 
L 745.7575 37.967472 
L 745.91 37.901936 
L 746.065 38.021093 
L 746.37 39.016051 
L 746.6775 40.255282 
L 746.985 40.505511 
L 747.14 40.743825 
L 747.4475 42.197537 
L 747.7575 43.341442 
L 747.91 43.305695 
L 748.215 42.715869 
L 748.3675 42.608628 
L 748.52 42.864815 
L 748.8275 43.847858 
L 748.9825 43.972973 
L 749.135 43.92531 
L 749.59 44.604504 
L 749.8925 45.140709 
L 750.35 45.218161 
L 750.655 45.569673 
L 750.9625 44.646208 
L 751.1175 44.610461 
L 751.7325 45.897354 
L 751.885 45.522011 
L 752.345 43.579755 
L 752.805 44.568757 
L 752.9575 44.479389 
L 753.415 43.585713 
L 753.5675 43.597629 
L 754.485 45.128793 
L 754.9475 45.158583 
L 755.1 44.759407 
L 755.41 42.912478 
L 755.715 40.308902 
L 756.0225 39.701203 
L 756.175 39.695245 
L 756.33 39.868022 
L 756.64 40.761698 
L 756.7925 41.202578 
L 756.945 41.089379 
L 757.1 40.821276 
L 757.255 40.862981 
L 757.71 41.524301 
L 757.8625 41.446849 
L 758.17 40.970222 
L 758.7825 40.666373 
L 759.09 40.273155 
L 759.24 40.225493 
L 759.7 40.773614 
L 760.3175 42.662248 
L 760.4725 42.948225 
L 761.0875 42.286905 
L 761.855 45.075173 
L 762.16 44.36619 
L 762.4675 43.204412 
L 762.775 42.954182 
L 762.9275 42.972056 
L 763.6925 44.187455 
L 763.9975 44.75345 
L 764.305 44.997721 
L 764.6125 44.729618 
L 765.0725 46.29653 
L 765.225 46.177373 
L 765.5325 45.438601 
L 765.685 45.462432 
L 765.84 45.355191 
L 766.3 46.147584 
L 766.605 45.718619 
L 766.7575 45.796071 
L 767.0675 46.648042 
L 767.37 47.345109 
L 767.5225 47.559591 
L 767.8275 47.249784 
L 767.98 47.23191 
L 768.135 47.327236 
L 768.2875 47.273615 
L 768.4425 47.482139 
L 768.9025 46.79103 
L 769.0575 47.45235 
L 769.2125 47.154458 
L 769.8225 43.299737 
L 769.975 42.882688 
L 770.1275 42.995887 
L 770.28 42.90652 
L 770.585 42.614586 
L 771.0425 43.18058 
L 771.3475 43.305695 
L 771.5 43.109086 
L 772.11 41.452807 
L 772.265 41.262156 
L 772.42 41.303861 
L 772.5725 41.643458 
L 772.725 41.703036 
L 772.88 41.613669 
L 773.035 41.780488 
L 773.1875 41.714952 
L 773.34 41.846025 
L 773.6475 42.358399 
L 774.2625 41.428976 
L 774.57 40.833192 
L 774.875 40.39827 
L 775.7875 40.320818 
L 776.095 40.058673 
L 776.5525 39.772697 
L 777.475 37.8364 
L 777.475 37.8364 
" style="fill:none;stroke:#008000;stroke-linecap:square;stroke-width:1.5;"/>
   </g>
   <g id="patch_12">
    <path d="M 561.6 115.344 
L 561.6 15.552 
" style="fill:none;stroke:#445753;stroke-linecap:square;stroke-linejoin:miter;stroke-width:3;"/>
   </g>
   <g id="patch_13">
    <path d="M 561.6 115.344 
L 777.6 115.344 
" style="fill:none;stroke:#445753;stroke-linecap:square;stroke-linejoin:miter;stroke-width:3;"/>
   </g>
   <g id="text_23">
    <g id="patch_14">
     <path d="M 640.354687 14.007625 
L 698.845312 14.007625 
L 698.845312 -5.526125 
L 640.354687 -5.526125 
z
" style="fill:#f4f7f7;stroke:#f4f7f7;stroke-linejoin:miter;"/>
    </g>
    <a xlink:href="http://google.com">
     <!-- Z-Field -->
     <defs>
      <path d="M 6.6875 72.90625 
L 56 72.90625 
L 56 60.984375 
L 22.21875 12.703125 
L 56.6875 12.703125 
L 56.6875 0 
L 5.609375 0 
L 5.609375 11.921875 
L 38.375 60.203125 
L 6.6875 60.203125 
z
" id="DejaVuSansMono-Bold-90"/>
     </defs>
     <g style="fill:#222b29;" transform="translate(644.314687 7.552)scale(0.12 -0.12)">
      <use xlink:href="#DejaVuSansMono-Bold-90"/>
      <use x="60.205078" xlink:href="#DejaVuSansMono-Bold-45"/>
      <use x="120.410156" xlink:href="#DejaVuSansMono-Bold-70"/>
      <use x="180.615234" xlink:href="#DejaVuSansMono-Bold-105"/>
      <use x="240.820312" xlink:href="#DejaVuSansMono-Bold-101"/>
      <use x="301.025391" xlink:href="#DejaVuSansMono-Bold-108"/>
      <use x="361.230469" xlink:href="#DejaVuSansMono-Bold-100"/>
     </g>
    </a>
   </g>
  </g>
 </g>
 <defs>
  <clipPath id="p054ba6745c">
   <rect height="99.792" width="216" x="108" y="15.552"/>
  </clipPath>
  <clipPath id="pf0521d80c2">
   <rect height="99.792" width="216" x="334.8" y="15.552"/>
  </clipPath>
  <clipPath id="pdfb85fcf98">
   <rect height="99.792" width="216" x="561.6" y="15.552"/>
  </clipPath>
 </defs>
</svg>
