<?xml version="1.0" encoding="utf-8" standalone="no"?>
<!DOCTYPE svg PUBLIC "-//W3C//DTD SVG 1.1//EN"
  "http://www.w3.org/Graphics/SVG/1.1/DTD/svg11.dtd">
<!-- Created with matplotlib (https://matplotlib.org/) -->
<svg height="86.4pt" version="1.1" viewBox="0 0 864 86.4" width="864pt" xmlns="http://www.w3.org/2000/svg" xmlns:xlink="http://www.w3.org/1999/xlink">
 <defs>
  <style type="text/css">
*{stroke-linecap:butt;stroke-linejoin:round;}
  </style>
 </defs>
 <g id="figure_1">
  <g id="patch_1">
   <path d="M 0 86.4 
L 864 86.4 
L 864 0 
L 0 0 
z
" style="fill:#f4f7f7;"/>
  </g>
  <g id="axes_1">
   <g id="patch_2">
    <path d="M 108 76.896 
L 324 76.896 
L 324 10.368 
L 108 10.368 
z
" style="fill:#a6c2bc;"/>
   </g>
   <g id="matplotlib.axis_1">
    <g id="xtick_1">
     <g id="line2d_1">
      <path clip-path="url(#pc2af67b7ec)" d="M 108 76.896 
L 108 10.368 
" style="fill:none;stroke:#c8d9cd;stroke-linecap:square;stroke-width:0.8;"/>
     </g>
     <g id="line2d_2">
      <defs>
       <path d="M 0 0 
L 0 3.5 
" id="m451f2a4e0c" style="stroke:#000000;stroke-width:0.8;"/>
      </defs>
      <g>
       <use style="stroke:#000000;stroke-width:0.8;" x="108" xlink:href="#m451f2a4e0c" y="76.896"/>
      </g>
     </g>
     <g id="text_1">
      <!-- 00:00 -->
      <defs>
       <path d="M 31.78125 66.40625 
Q 24.171875 66.40625 20.328125 58.90625 
Q 16.5 51.421875 16.5 36.375 
Q 16.5 21.390625 20.328125 13.890625 
Q 24.171875 6.390625 31.78125 6.390625 
Q 39.453125 6.390625 43.28125 13.890625 
Q 47.125 21.390625 47.125 36.375 
Q 47.125 51.421875 43.28125 58.90625 
Q 39.453125 66.40625 31.78125 66.40625 
z
M 31.78125 74.21875 
Q 44.046875 74.21875 50.515625 64.515625 
Q 56.984375 54.828125 56.984375 36.375 
Q 56.984375 17.96875 50.515625 8.265625 
Q 44.046875 -1.421875 31.78125 -1.421875 
Q 19.53125 -1.421875 13.0625 8.265625 
Q 6.59375 17.96875 6.59375 36.375 
Q 6.59375 54.828125 13.0625 64.515625 
Q 19.53125 74.21875 31.78125 74.21875 
z
" id="DejaVuSans-48"/>
       <path d="M 11.71875 12.40625 
L 22.015625 12.40625 
L 22.015625 0 
L 11.71875 0 
z
M 11.71875 51.703125 
L 22.015625 51.703125 
L 22.015625 39.3125 
L 11.71875 39.3125 
z
" id="DejaVuSans-58"/>
      </defs>
      <g transform="translate(93.590625 91.494437)scale(0.1 -0.1)">
       <use xlink:href="#DejaVuSans-48"/>
       <use x="63.623047" xlink:href="#DejaVuSans-48"/>
       <use x="127.246094" xlink:href="#DejaVuSans-58"/>
       <use x="160.9375" xlink:href="#DejaVuSans-48"/>
       <use x="224.560547" xlink:href="#DejaVuSans-48"/>
      </g>
     </g>
    </g>
    <g id="xtick_2">
     <g id="line2d_3">
      <path clip-path="url(#pc2af67b7ec)" d="M 162 76.896 
L 162 10.368 
" style="fill:none;stroke:#c8d9cd;stroke-linecap:square;stroke-width:0.8;"/>
     </g>
     <g id="line2d_4">
      <g>
       <use style="stroke:#000000;stroke-width:0.8;" x="162" xlink:href="#m451f2a4e0c" y="76.896"/>
      </g>
     </g>
     <g id="text_2">
      <!-- 06:00 -->
      <defs>
       <path d="M 33.015625 40.375 
Q 26.375 40.375 22.484375 35.828125 
Q 18.609375 31.296875 18.609375 23.390625 
Q 18.609375 15.53125 22.484375 10.953125 
Q 26.375 6.390625 33.015625 6.390625 
Q 39.65625 6.390625 43.53125 10.953125 
Q 47.40625 15.53125 47.40625 23.390625 
Q 47.40625 31.296875 43.53125 35.828125 
Q 39.65625 40.375 33.015625 40.375 
z
M 52.59375 71.296875 
L 52.59375 62.3125 
Q 48.875 64.0625 45.09375 64.984375 
Q 41.3125 65.921875 37.59375 65.921875 
Q 27.828125 65.921875 22.671875 59.328125 
Q 17.53125 52.734375 16.796875 39.40625 
Q 19.671875 43.65625 24.015625 45.921875 
Q 28.375 48.1875 33.59375 48.1875 
Q 44.578125 48.1875 50.953125 41.515625 
Q 57.328125 34.859375 57.328125 23.390625 
Q 57.328125 12.15625 50.6875 5.359375 
Q 44.046875 -1.421875 33.015625 -1.421875 
Q 20.359375 -1.421875 13.671875 8.265625 
Q 6.984375 17.96875 6.984375 36.375 
Q 6.984375 53.65625 15.1875 63.9375 
Q 23.390625 74.21875 37.203125 74.21875 
Q 40.921875 74.21875 44.703125 73.484375 
Q 48.484375 72.75 52.59375 71.296875 
z
" id="DejaVuSans-54"/>
      </defs>
      <g transform="translate(147.590625 91.494437)scale(0.1 -0.1)">
       <use xlink:href="#DejaVuSans-48"/>
       <use x="63.623047" xlink:href="#DejaVuSans-54"/>
       <use x="127.246094" xlink:href="#DejaVuSans-58"/>
       <use x="160.9375" xlink:href="#DejaVuSans-48"/>
       <use x="224.560547" xlink:href="#DejaVuSans-48"/>
      </g>
     </g>
    </g>
    <g id="xtick_3">
     <g id="line2d_5">
      <path clip-path="url(#pc2af67b7ec)" d="M 216 76.896 
L 216 10.368 
" style="fill:none;stroke:#c8d9cd;stroke-linecap:square;stroke-width:0.8;"/>
     </g>
     <g id="line2d_6">
      <g>
       <use style="stroke:#000000;stroke-width:0.8;" x="216" xlink:href="#m451f2a4e0c" y="76.896"/>
      </g>
     </g>
     <g id="text_3">
      <!-- 12:00 -->
      <defs>
       <path d="M 12.40625 8.296875 
L 28.515625 8.296875 
L 28.515625 63.921875 
L 10.984375 60.40625 
L 10.984375 69.390625 
L 28.421875 72.90625 
L 38.28125 72.90625 
L 38.28125 8.296875 
L 54.390625 8.296875 
L 54.390625 0 
L 12.40625 0 
z
" id="DejaVuSans-49"/>
       <path d="M 19.1875 8.296875 
L 53.609375 8.296875 
L 53.609375 0 
L 7.328125 0 
L 7.328125 8.296875 
Q 12.9375 14.109375 22.625 23.890625 
Q 32.328125 33.6875 34.8125 36.53125 
Q 39.546875 41.84375 41.421875 45.53125 
Q 43.3125 49.21875 43.3125 52.78125 
Q 43.3125 58.59375 39.234375 62.25 
Q 35.15625 65.921875 28.609375 65.921875 
Q 23.96875 65.921875 18.8125 64.3125 
Q 13.671875 62.703125 7.8125 59.421875 
L 7.8125 69.390625 
Q 13.765625 71.78125 18.9375 73 
Q 24.125 74.21875 28.421875 74.21875 
Q 39.75 74.21875 46.484375 68.546875 
Q 53.21875 62.890625 53.21875 53.421875 
Q 53.21875 48.921875 51.53125 44.890625 
Q 49.859375 40.875 45.40625 35.40625 
Q 44.1875 33.984375 37.640625 27.21875 
Q 31.109375 20.453125 19.1875 8.296875 
z
" id="DejaVuSans-50"/>
      </defs>
      <g transform="translate(201.590625 91.494437)scale(0.1 -0.1)">
       <use xlink:href="#DejaVuSans-49"/>
       <use x="63.623047" xlink:href="#DejaVuSans-50"/>
       <use x="127.246094" xlink:href="#DejaVuSans-58"/>
       <use x="160.9375" xlink:href="#DejaVuSans-48"/>
       <use x="224.560547" xlink:href="#DejaVuSans-48"/>
      </g>
     </g>
    </g>
    <g id="xtick_4">
     <g id="line2d_7">
      <path clip-path="url(#pc2af67b7ec)" d="M 270 76.896 
L 270 10.368 
" style="fill:none;stroke:#c8d9cd;stroke-linecap:square;stroke-width:0.8;"/>
     </g>
     <g id="line2d_8">
      <g>
       <use style="stroke:#000000;stroke-width:0.8;" x="270" xlink:href="#m451f2a4e0c" y="76.896"/>
      </g>
     </g>
     <g id="text_4">
      <!-- 18:00 -->
      <defs>
       <path d="M 31.78125 34.625 
Q 24.75 34.625 20.71875 30.859375 
Q 16.703125 27.09375 16.703125 20.515625 
Q 16.703125 13.921875 20.71875 10.15625 
Q 24.75 6.390625 31.78125 6.390625 
Q 38.8125 6.390625 42.859375 10.171875 
Q 46.921875 13.96875 46.921875 20.515625 
Q 46.921875 27.09375 42.890625 30.859375 
Q 38.875 34.625 31.78125 34.625 
z
M 21.921875 38.8125 
Q 15.578125 40.375 12.03125 44.71875 
Q 8.5 49.078125 8.5 55.328125 
Q 8.5 64.0625 14.71875 69.140625 
Q 20.953125 74.21875 31.78125 74.21875 
Q 42.671875 74.21875 48.875 69.140625 
Q 55.078125 64.0625 55.078125 55.328125 
Q 55.078125 49.078125 51.53125 44.71875 
Q 48 40.375 41.703125 38.8125 
Q 48.828125 37.15625 52.796875 32.3125 
Q 56.78125 27.484375 56.78125 20.515625 
Q 56.78125 9.90625 50.3125 4.234375 
Q 43.84375 -1.421875 31.78125 -1.421875 
Q 19.734375 -1.421875 13.25 4.234375 
Q 6.78125 9.90625 6.78125 20.515625 
Q 6.78125 27.484375 10.78125 32.3125 
Q 14.796875 37.15625 21.921875 38.8125 
z
M 18.3125 54.390625 
Q 18.3125 48.734375 21.84375 45.5625 
Q 25.390625 42.390625 31.78125 42.390625 
Q 38.140625 42.390625 41.71875 45.5625 
Q 45.3125 48.734375 45.3125 54.390625 
Q 45.3125 60.0625 41.71875 63.234375 
Q 38.140625 66.40625 31.78125 66.40625 
Q 25.390625 66.40625 21.84375 63.234375 
Q 18.3125 60.0625 18.3125 54.390625 
z
" id="DejaVuSans-56"/>
      </defs>
      <g transform="translate(255.590625 91.494437)scale(0.1 -0.1)">
       <use xlink:href="#DejaVuSans-49"/>
       <use x="63.623047" xlink:href="#DejaVuSans-56"/>
       <use x="127.246094" xlink:href="#DejaVuSans-58"/>
       <use x="160.9375" xlink:href="#DejaVuSans-48"/>
       <use x="224.560547" xlink:href="#DejaVuSans-48"/>
      </g>
     </g>
    </g>
    <g id="text_5">
     <!-- UTC in Hours  2019 06 06 -->
     <defs>
      <path d="M 7.171875 27.984375 
L 7.171875 72.90625 
L 17.09375 72.90625 
L 17.09375 23.484375 
Q 17.09375 18.171875 17.375 15.890625 
Q 17.671875 13.625 18.40625 12.40625 
Q 19.96875 9.515625 22.921875 8.046875 
Q 25.875 6.59375 30.078125 6.59375 
Q 34.328125 6.59375 37.25 8.046875 
Q 40.1875 9.515625 41.796875 12.40625 
Q 42.53125 13.625 42.8125 15.859375 
Q 43.109375 18.109375 43.109375 23.390625 
L 43.109375 72.90625 
L 52.984375 72.90625 
L 52.984375 27.984375 
Q 52.984375 16.796875 51.59375 12.078125 
Q 50.203125 7.375 46.78125 4.296875 
Q 43.5625 1.421875 39.40625 0 
Q 35.25 -1.421875 30.078125 -1.421875 
Q 24.953125 -1.421875 20.796875 0 
Q 16.65625 1.421875 13.375 4.296875 
Q 10.015625 7.328125 8.59375 12.125 
Q 7.171875 16.9375 7.171875 27.984375 
z
" id="DejaVuSansMono-85"/>
      <path d="M 2.296875 72.90625 
L 57.90625 72.90625 
L 57.90625 64.59375 
L 35.109375 64.59375 
L 35.109375 0 
L 25.203125 0 
L 25.203125 64.59375 
L 2.296875 64.59375 
z
" id="DejaVuSansMono-84"/>
      <path d="M 52.390625 2.59375 
Q 48.640625 0.59375 44.671875 -0.40625 
Q 40.71875 -1.421875 36.28125 -1.421875 
Q 22.265625 -1.421875 14.515625 8.484375 
Q 6.78125 18.40625 6.78125 36.375 
Q 6.78125 54.25 14.5625 64.234375 
Q 22.359375 74.21875 36.28125 74.21875 
Q 40.71875 74.21875 44.671875 73.21875 
Q 48.640625 72.21875 52.390625 70.21875 
L 52.390625 60.109375 
Q 48.78125 63.09375 44.625 64.65625 
Q 40.484375 66.21875 36.28125 66.21875 
Q 26.65625 66.21875 21.875 58.796875 
Q 17.09375 51.375 17.09375 36.375 
Q 17.09375 21.4375 21.875 14.015625 
Q 26.65625 6.59375 36.28125 6.59375 
Q 40.578125 6.59375 44.703125 8.15625 
Q 48.828125 9.71875 52.390625 12.703125 
z
" id="DejaVuSansMono-67"/>
      <path id="DejaVuSansMono-32"/>
      <path d="M 12.5 54.6875 
L 35.5 54.6875 
L 35.5 6.984375 
L 53.328125 6.984375 
L 53.328125 0 
L 8.6875 0 
L 8.6875 6.984375 
L 26.515625 6.984375 
L 26.515625 47.703125 
L 12.5 47.703125 
z
M 26.515625 75.984375 
L 35.5 75.984375 
L 35.5 64.59375 
L 26.515625 64.59375 
z
" id="DejaVuSansMono-105"/>
      <path d="M 51.3125 33.890625 
L 51.3125 0 
L 42.28125 0 
L 42.28125 33.890625 
Q 42.28125 41.265625 39.6875 44.71875 
Q 37.109375 48.1875 31.59375 48.1875 
Q 25.296875 48.1875 21.890625 43.71875 
Q 18.5 39.265625 18.5 30.90625 
L 18.5 0 
L 9.515625 0 
L 9.515625 54.6875 
L 18.5 54.6875 
L 18.5 46.484375 
Q 20.90625 51.171875 25 53.578125 
Q 29.109375 56 34.71875 56 
Q 43.0625 56 47.1875 50.5 
Q 51.3125 45.015625 51.3125 33.890625 
z
" id="DejaVuSansMono-110"/>
      <path d="M 6.6875 72.90625 
L 16.609375 72.90625 
L 16.609375 43.015625 
L 43.609375 43.015625 
L 43.609375 72.90625 
L 53.515625 72.90625 
L 53.515625 0 
L 43.609375 0 
L 43.609375 34.71875 
L 16.609375 34.71875 
L 16.609375 0 
L 6.6875 0 
z
" id="DejaVuSansMono-72"/>
      <path d="M 30.078125 48.390625 
Q 23.25 48.390625 19.734375 43.0625 
Q 16.21875 37.75 16.21875 27.296875 
Q 16.21875 16.890625 19.734375 11.546875 
Q 23.25 6.203125 30.078125 6.203125 
Q 36.96875 6.203125 40.484375 11.546875 
Q 44 16.890625 44 27.296875 
Q 44 37.75 40.484375 43.0625 
Q 36.96875 48.390625 30.078125 48.390625 
z
M 30.078125 56 
Q 41.453125 56 47.484375 48.625 
Q 53.515625 41.265625 53.515625 27.296875 
Q 53.515625 13.28125 47.5 5.921875 
Q 41.5 -1.421875 30.078125 -1.421875 
Q 18.703125 -1.421875 12.6875 5.921875 
Q 6.6875 13.28125 6.6875 27.296875 
Q 6.6875 41.265625 12.6875 48.625 
Q 18.703125 56 30.078125 56 
z
" id="DejaVuSansMono-111"/>
      <path d="M 9.515625 20.703125 
L 9.515625 54.59375 
L 18.5 54.59375 
L 18.5 20.703125 
Q 18.5 13.328125 21.109375 9.859375 
Q 23.734375 6.390625 29.203125 6.390625 
Q 35.546875 6.390625 38.90625 10.859375 
Q 42.28125 15.328125 42.28125 23.6875 
L 42.28125 54.59375 
L 51.3125 54.59375 
L 51.3125 0 
L 42.28125 0 
L 42.28125 8.203125 
Q 39.890625 3.46875 35.765625 1.015625 
Q 31.640625 -1.421875 26.125 -1.421875 
Q 17.71875 -1.421875 13.609375 4.078125 
Q 9.515625 9.578125 9.515625 20.703125 
z
" id="DejaVuSansMono-117"/>
      <path d="M 56.390625 43.40625 
Q 53.515625 45.65625 50.53125 46.671875 
Q 47.5625 47.703125 44 47.703125 
Q 35.59375 47.703125 31.140625 42.421875 
Q 26.703125 37.15625 26.703125 27.203125 
L 26.703125 0 
L 17.671875 0 
L 17.671875 54.6875 
L 26.703125 54.6875 
L 26.703125 44 
Q 28.953125 49.8125 33.609375 52.90625 
Q 38.28125 56 44.671875 56 
Q 48 56 50.875 55.171875 
Q 53.765625 54.34375 56.390625 52.59375 
z
" id="DejaVuSansMono-114"/>
      <path d="M 47.515625 52.78125 
L 47.515625 44 
Q 43.65625 46.234375 39.75 47.359375 
Q 35.84375 48.484375 31.78125 48.484375 
Q 25.6875 48.484375 22.671875 46.5 
Q 19.671875 44.53125 19.671875 40.484375 
Q 19.671875 36.8125 21.921875 35 
Q 24.171875 33.203125 33.109375 31.5 
L 36.71875 30.8125 
Q 43.40625 29.546875 46.84375 25.734375 
Q 50.296875 21.921875 50.296875 15.828125 
Q 50.296875 7.71875 44.53125 3.140625 
Q 38.765625 -1.421875 28.515625 -1.421875 
Q 24.46875 -1.421875 20.015625 -0.5625 
Q 15.578125 0.296875 10.40625 2 
L 10.40625 11.28125 
Q 15.4375 8.6875 20.015625 7.390625 
Q 24.609375 6.109375 28.71875 6.109375 
Q 34.671875 6.109375 37.9375 8.515625 
Q 41.21875 10.9375 41.21875 15.28125 
Q 41.21875 21.53125 29.25 23.921875 
L 28.859375 24.03125 
L 25.484375 24.703125 
Q 17.71875 26.21875 14.15625 29.8125 
Q 10.59375 33.40625 10.59375 39.59375 
Q 10.59375 47.46875 15.90625 51.734375 
Q 21.234375 56 31.109375 56 
Q 35.5 56 39.546875 55.1875 
Q 43.609375 54.390625 47.515625 52.78125 
z
" id="DejaVuSansMono-115"/>
      <path d="M 18.21875 8.296875 
L 51.703125 8.296875 
L 51.703125 0 
L 7.421875 0 
L 7.421875 8.296875 
Q 16.546875 17.921875 23.375 25.296875 
Q 30.21875 32.671875 32.8125 35.6875 
Q 37.703125 41.65625 39.40625 45.34375 
Q 41.109375 49.03125 41.109375 52.875 
Q 41.109375 58.984375 37.515625 62.453125 
Q 33.9375 65.921875 27.6875 65.921875 
Q 23.25 65.921875 18.359375 64.3125 
Q 13.484375 62.703125 8.015625 59.421875 
L 8.015625 69.390625 
Q 13.03125 71.78125 17.890625 73 
Q 22.75 74.21875 27.484375 74.21875 
Q 38.1875 74.21875 44.703125 68.53125 
Q 51.21875 62.84375 51.21875 53.609375 
Q 51.21875 48.921875 49.046875 44.234375 
Q 46.875 39.546875 42 33.890625 
Q 39.265625 30.71875 34.0625 25.09375 
Q 28.859375 19.484375 18.21875 8.296875 
z
" id="DejaVuSansMono-50"/>
      <path d="M 23.578125 36.625 
Q 23.578125 39.3125 25.453125 41.265625 
Q 27.34375 43.21875 29.984375 43.21875 
Q 32.71875 43.21875 34.671875 41.265625 
Q 36.625 39.3125 36.625 36.625 
Q 36.625 33.890625 34.6875 31.984375 
Q 32.765625 30.078125 29.984375 30.078125 
Q 27.25 30.078125 25.40625 31.9375 
Q 23.578125 33.796875 23.578125 36.625 
z
M 30.078125 66.40625 
Q 23.1875 66.40625 19.796875 58.984375 
Q 16.40625 51.5625 16.40625 36.375 
Q 16.40625 21.234375 19.796875 13.8125 
Q 23.1875 6.390625 30.078125 6.390625 
Q 37.015625 6.390625 40.40625 13.8125 
Q 43.796875 21.234375 43.796875 36.375 
Q 43.796875 51.5625 40.40625 58.984375 
Q 37.015625 66.40625 30.078125 66.40625 
z
M 30.078125 74.21875 
Q 41.75 74.21875 47.734375 64.640625 
Q 53.71875 55.078125 53.71875 36.375 
Q 53.71875 17.71875 47.734375 8.140625 
Q 41.75 -1.421875 30.078125 -1.421875 
Q 18.40625 -1.421875 12.453125 8.140625 
Q 6.5 17.71875 6.5 36.375 
Q 6.5 55.078125 12.453125 64.640625 
Q 18.40625 74.21875 30.078125 74.21875 
z
" id="DejaVuSansMono-48"/>
      <path d="M 13.1875 8.296875 
L 28.515625 8.296875 
L 28.515625 64.015625 
L 12.015625 60.296875 
L 12.015625 69.28125 
L 28.421875 72.90625 
L 38.28125 72.90625 
L 38.28125 8.296875 
L 53.421875 8.296875 
L 53.421875 0 
L 13.1875 0 
z
" id="DejaVuSansMono-49"/>
      <path d="M 29.109375 32.328125 
Q 35.40625 32.328125 38.984375 36.859375 
Q 42.578125 41.40625 42.578125 49.421875 
Q 42.578125 57.421875 38.984375 61.953125 
Q 35.40625 66.5 29.109375 66.5 
Q 22.5625 66.5 19.234375 62.171875 
Q 15.921875 57.859375 15.921875 49.421875 
Q 15.921875 40.921875 19.21875 36.625 
Q 22.515625 32.328125 29.109375 32.328125 
z
M 11.53125 1.515625 
L 11.53125 10.59375 
Q 14.59375 8.796875 18.0625 7.84375 
Q 21.53125 6.890625 25.296875 6.890625 
Q 34.671875 6.890625 39.46875 13.9375 
Q 44.28125 21 44.28125 34.71875 
Q 42 29.828125 37.84375 27.21875 
Q 33.6875 24.609375 28.328125 24.609375 
Q 17.78125 24.609375 11.984375 31.09375 
Q 6.203125 37.59375 6.203125 49.515625 
Q 6.203125 61.28125 12.125 67.75 
Q 18.0625 74.21875 28.90625 74.21875 
Q 41.609375 74.21875 47.515625 65.078125 
Q 53.421875 55.953125 53.421875 36.375 
Q 53.421875 17.96875 46.3125 8.265625 
Q 39.203125 -1.421875 25.6875 -1.421875 
Q 22.125 -1.421875 18.5 -0.65625 
Q 14.890625 0.09375 11.53125 1.515625 
z
" id="DejaVuSansMono-57"/>
      <path d="M 48.390625 71.296875 
L 48.390625 62.203125 
Q 45.3125 64.015625 41.84375 64.96875 
Q 38.375 65.921875 34.625 65.921875 
Q 25.25 65.921875 20.40625 58.859375 
Q 15.578125 51.8125 15.578125 38.09375 
Q 17.921875 42.96875 22.0625 45.578125 
Q 26.21875 48.1875 31.59375 48.1875 
Q 42.140625 48.1875 47.921875 41.71875 
Q 53.71875 35.25 53.71875 23.390625 
Q 53.71875 11.578125 47.75 5.078125 
Q 41.796875 -1.421875 31 -1.421875 
Q 18.3125 -1.421875 12.40625 7.6875 
Q 6.5 16.796875 6.5 36.375 
Q 6.5 54.828125 13.59375 64.515625 
Q 20.703125 74.21875 34.1875 74.21875 
Q 37.796875 74.21875 41.40625 73.453125 
Q 45.015625 72.703125 48.390625 71.296875 
z
M 30.8125 40.484375 
Q 24.515625 40.484375 20.890625 35.9375 
Q 17.28125 31.390625 17.28125 23.390625 
Q 17.28125 15.375 20.890625 10.828125 
Q 24.515625 6.296875 30.8125 6.296875 
Q 37.359375 6.296875 40.671875 10.609375 
Q 44 14.9375 44 23.390625 
Q 44 31.890625 40.671875 36.1875 
Q 37.359375 40.484375 30.8125 40.484375 
z
" id="DejaVuSansMono-54"/>
     </defs>
     <g transform="translate(143.75625 105.225687)scale(0.1 -0.1)">
      <use xlink:href="#DejaVuSansMono-85"/>
      <use x="60.205078" xlink:href="#DejaVuSansMono-84"/>
      <use x="120.410156" xlink:href="#DejaVuSansMono-67"/>
      <use x="180.615234" xlink:href="#DejaVuSansMono-32"/>
      <use x="240.820312" xlink:href="#DejaVuSansMono-105"/>
      <use x="301.025391" xlink:href="#DejaVuSansMono-110"/>
      <use x="361.230469" xlink:href="#DejaVuSansMono-32"/>
      <use x="421.435547" xlink:href="#DejaVuSansMono-72"/>
      <use x="481.640625" xlink:href="#DejaVuSansMono-111"/>
      <use x="541.845703" xlink:href="#DejaVuSansMono-117"/>
      <use x="602.050781" xlink:href="#DejaVuSansMono-114"/>
      <use x="662.255859" xlink:href="#DejaVuSansMono-115"/>
      <use x="722.460938" xlink:href="#DejaVuSansMono-32"/>
      <use x="782.666016" xlink:href="#DejaVuSansMono-32"/>
      <use x="842.871094" xlink:href="#DejaVuSansMono-50"/>
      <use x="903.076172" xlink:href="#DejaVuSansMono-48"/>
      <use x="963.28125" xlink:href="#DejaVuSansMono-49"/>
      <use x="1023.486328" xlink:href="#DejaVuSansMono-57"/>
      <use x="1083.691406" xlink:href="#DejaVuSansMono-32"/>
      <use x="1143.896484" xlink:href="#DejaVuSansMono-48"/>
      <use x="1204.101562" xlink:href="#DejaVuSansMono-54"/>
      <use x="1264.306641" xlink:href="#DejaVuSansMono-32"/>
      <use x="1324.511719" xlink:href="#DejaVuSansMono-48"/>
      <use x="1384.716797" xlink:href="#DejaVuSansMono-54"/>
     </g>
    </g>
   </g>
   <g id="matplotlib.axis_2">
    <g id="ytick_1">
     <g id="line2d_9">
      <path clip-path="url(#pc2af67b7ec)" d="M 108 62.111228 
L 324 62.111228 
" style="fill:none;stroke:#c8d9cd;stroke-linecap:square;stroke-width:0.8;"/>
     </g>
     <g id="line2d_10">
      <defs>
       <path d="M 0 0 
L -3.5 0 
" id="md454a14147" style="stroke:#000000;stroke-width:0.8;"/>
      </defs>
      <g>
       <use style="stroke:#000000;stroke-width:0.8;" x="108" xlink:href="#md454a14147" y="62.111228"/>
      </g>
     </g>
     <g id="text_6">
      <!-- −100 -->
      <defs>
       <path d="M 10.59375 35.5 
L 73.1875 35.5 
L 73.1875 27.203125 
L 10.59375 27.203125 
z
" id="DejaVuSans-8722"/>
      </defs>
      <g transform="translate(73.532813 65.910446)scale(0.1 -0.1)">
       <use xlink:href="#DejaVuSans-8722"/>
       <use x="83.789062" xlink:href="#DejaVuSans-49"/>
       <use x="147.412109" xlink:href="#DejaVuSans-48"/>
       <use x="211.035156" xlink:href="#DejaVuSans-48"/>
      </g>
     </g>
    </g>
    <g id="ytick_2">
     <g id="line2d_11">
      <path clip-path="url(#pc2af67b7ec)" d="M 108 22.392307 
L 324 22.392307 
" style="fill:none;stroke:#c8d9cd;stroke-linecap:square;stroke-width:0.8;"/>
     </g>
     <g id="line2d_12">
      <g>
       <use style="stroke:#000000;stroke-width:0.8;" x="108" xlink:href="#md454a14147" y="22.392307"/>
      </g>
     </g>
     <g id="text_7">
      <!-- 0 -->
      <g transform="translate(94.6375 26.191526)scale(0.1 -0.1)">
       <use xlink:href="#DejaVuSans-48"/>
      </g>
     </g>
    </g>
    <g id="text_8">
     <!-- nt -->
     <defs>
      <path d="M 29.984375 70.21875 
L 29.984375 54.6875 
L 50.390625 54.6875 
L 50.390625 47.703125 
L 29.984375 47.703125 
L 29.984375 18.015625 
Q 29.984375 11.96875 32.28125 9.5625 
Q 34.578125 7.171875 40.28125 7.171875 
L 50.390625 7.171875 
L 50.390625 0 
L 39.40625 0 
Q 29.296875 0 25.140625 4.046875 
Q 21 8.109375 21 18.015625 
L 21 47.703125 
L 6.390625 47.703125 
L 6.390625 54.6875 
L 21 54.6875 
L 21 70.21875 
z
" id="DejaVuSansMono-116"/>
     </defs>
     <g transform="translate(59.5125 41.552312)scale(0.1 -0.1)">
      <use xlink:href="#DejaVuSansMono-110"/>
      <use x="60.205078" xlink:href="#DejaVuSansMono-116"/>
     </g>
    </g>
   </g>
   <g id="line2d_13">
    <path clip-path="url(#pc2af67b7ec)" d="M 108.075 22.392307 
L 108.38 22.364504 
L 109.1475 22.956316 
L 109.3 22.996035 
L 110.215 24.715864 
L 110.3675 24.688061 
L 110.5225 24.866796 
L 110.83 25.597624 
L 111.14 25.720753 
L 111.445 25.343423 
L 111.7525 24.926374 
L 112.06 25.323564 
L 112.215 25.196463 
L 112.3675 25.410945 
L 112.5225 25.963038 
L 112.6775 25.355339 
L 112.83 25.375198 
L 112.985 25.16866 
L 113.14 24.723808 
L 113.295 24.771471 
L 113.4525 24.684089 
L 113.605 24.43386 
L 114.0625 25.418889 
L 114.215 24.779414 
L 114.3675 23.512381 
L 114.5225 23.508409 
L 114.675 23.730835 
L 114.9825 21.526435 
L 115.1375 21.959371 
L 115.29 19.790718 
L 115.4425 19.544461 
L 115.75 18.015282 
L 115.905 18.436303 
L 116.0575 18.098692 
L 116.365 19.266428 
L 116.52 18.70242 
L 116.6725 18.797745 
L 116.825 19.107553 
L 116.98 19.77483 
L 117.285 23.000007 
L 117.5925 22.749778 
L 117.9025 23.853964 
L 118.0525 23.262152 
L 118.205 24.191574 
L 118.5125 23.448831 
L 118.665 24.882684 
L 118.9675 23.941345 
L 119.1175 24.012839 
L 119.7275 25.522158 
L 120.19 25.947151 
L 120.345 24.970065 
L 120.4975 25.124969 
L 120.65 24.676145 
L 120.8025 24.846937 
L 120.955 24.366338 
L 121.11 24.600679 
L 121.2625 25.240154 
L 121.4175 24.278956 
L 121.57 24.326619 
L 121.7225 24.850909 
L 121.8775 24.640398 
L 122.185 23.659341 
L 122.3375 23.317758 
L 122.6425 23.146967 
L 122.7975 23.965177 
L 122.95 24.163771 
L 123.1025 24.12008 
L 123.255 24.235265 
L 123.5625 25.307676 
L 123.715 25.240154 
L 124.175 24.159799 
L 124.3275 23.595791 
L 124.48 23.484578 
L 124.6325 23.834104 
L 124.785 23.718919 
L 124.9375 23.421027 
L 125.09 23.53224 
L 125.395 24.378253 
L 125.5475 24.028727 
L 125.8575 23.099304 
L 126.1625 24.731752 
L 126.6225 27.89735 
L 126.93 26.642232 
L 127.0825 26.705782 
L 127.2325 27.114887 
L 127.54 28.19127 
L 127.8475 29.533769 
L 128.3025 28.596403 
L 128.765 28.350145 
L 129.2225 28.497105 
L 129.8375 25.927291 
L 130.295 25.549962 
L 130.7525 28.572571 
L 131.515 24.362366 
L 131.975 25.204407 
L 132.1275 24.966093 
L 132.28 25.196463 
L 132.4325 25.152772 
L 132.585 25.363283 
L 132.74 25.851825 
L 133.2025 24.211434 
L 133.355 24.576848 
L 133.66 26.570738 
L 133.9675 26.26093 
L 134.1225 26.479384 
L 134.4275 25.657203 
L 134.5825 25.744584 
L 134.735 26.046448 
L 134.8875 25.947151 
L 135.0425 26.161633 
L 135.35 27.345257 
L 135.6575 26.149717 
L 135.8125 25.923319 
L 135.965 26.006729 
L 136.12 26.34434 
L 136.2725 26.054392 
L 136.425 26.05042 
L 136.5775 25.915376 
L 136.7275 26.141773 
L 137.1875 27.75039 
L 137.65 28.644065 
L 137.8025 28.139635 
L 137.9575 28.286595 
L 138.11 28.620234 
L 138.2625 28.568599 
L 138.415 28.354117 
L 138.8725 27.118859 
L 139.025 27.845715 
L 139.1775 27.925153 
L 139.485 26.55485 
L 139.7925 26.19738 
L 139.9475 26.447609 
L 140.1 26.336396 
L 140.555 25.553933 
L 140.71 25.60954 
L 141.63 26.844798 
L 141.9375 27.472357 
L 142.4 27.472357 
L 142.7075 28.655981 
L 143.3225 32.322037 
L 143.79 39.054394 
L 143.94 39.666066 
L 144.0925 38.963041 
L 144.245 42.637041 
L 144.3975 41.747337 
L 144.55 39.566769 
L 144.855 51.132918 
L 145.0075 50.811195 
L 145.31 39.511162 
L 145.465 49.337623 
L 145.6175 50.032704 
L 145.7725 52.701815 
L 145.925 58.540497 
L 146.08 56.832583 
L 146.54 69.407593 
L 146.6925 64.355347 
L 146.845 55.275601 
L 147 57.817612 
L 147.3075 67.012542 
L 147.4575 66.901329 
L 147.6125 67.179362 
L 147.765 64.212359 
L 147.915 66.655072 
L 148.38 62.623602 
L 148.5325 66.758341 
L 148.685 66.508112 
L 148.8375 65.503223 
L 149.14 61.384371 
L 149.605 53.885439 
L 149.7575 54.111837 
L 149.9125 54.032399 
L 150.0675 53.198302 
L 150.375 47.5463 
L 150.6825 40.865577 
L 150.835 42.370924 
L 150.99 42.486109 
L 151.4475 49.544161 
L 151.6 49.52033 
L 151.755 49.921491 
L 152.0575 47.574103 
L 152.21 44.996345 
L 152.6675 46.66454 
L 152.82 45.361759 
L 152.9725 45.302181 
L 153.28 42.772085 
L 153.585 40.134749 
L 153.8925 38.256044 
L 154.045 38.665149 
L 154.195 38.530105 
L 154.5 41.882382 
L 154.81 35.590905 
L 155.1225 34.514522 
L 155.2775 34.391393 
L 156.045 36.242295 
L 156.1975 35.416141 
L 156.35 35.733893 
L 156.5025 35.578989 
L 156.97 35.765668 
L 157.2775 33.716172 
L 157.43 33.994204 
L 157.89 38.148803 
L 158.045 35.380394 
L 158.1975 37.207465 
L 158.35 37.545075 
L 158.5025 39.229158 
L 158.655 37.632457 
L 158.96 32.2426 
L 159.2675 35.996038 
L 159.42 34.911711 
L 159.7275 39.328455 
L 160.03 35.702118 
L 160.4925 40.575629 
L 160.645 40.09503 
L 161.105 42.549659 
L 161.2575 42.720451 
L 161.4125 43.713424 
L 161.565 43.757115 
L 161.7175 44.634903 
L 161.8675 46.37062 
L 162.02 46.390479 
L 162.3275 47.979236 
L 162.6325 51.256047 
L 162.785 49.285988 
L 162.9375 45.397506 
L 163.09 46.56127 
L 163.24 49.178747 
L 163.3925 48.729923 
L 163.6975 49.655374 
L 163.85 49.274073 
L 164.1575 47.268267 
L 164.4625 39.987789 
L 164.77 47.701203 
L 165.08 50.179664 
L 165.2325 50.286905 
L 165.69 45.659651 
L 165.8425 46.461973 
L 166.145 53.238021 
L 166.45 51.728702 
L 166.7575 56.908049 
L 166.9075 56.828611 
L 167.215 55.446393 
L 167.6725 56.256659 
L 167.825 55.899189 
L 167.9775 55.942879 
L 168.1325 56.42745 
L 168.435 55.6291 
L 168.59 57.293323 
L 168.7425 61.289046 
L 168.8975 60.327848 
L 169.05 57.877191 
L 169.3575 65.681959 
L 169.5125 68.553637 
L 169.6675 68.87536 
L 169.8175 66.67096 
L 169.97 66.583578 
L 170.1225 63.517277 
L 170.275 63.263076 
L 170.4275 65.324488 
L 170.885 63.29088 
L 171.035 63.072426 
L 171.4975 60.363595 
L 171.65 60.717094 
L 171.805 60.70915 
L 171.96 57.126503 
L 172.1125 57.666681 
L 172.265 58.731148 
L 172.4175 58.496806 
L 172.5725 58.822501 
L 172.7225 59.787671 
L 172.875 59.525526 
L 173.18 57.53958 
L 173.49 57.865275 
L 173.8025 56.034233 
L 174.105 56.991459 
L 174.2575 56.590298 
L 175.03 52.380092 
L 175.18 51.931268 
L 175.4875 47.995123 
L 175.795 45.719229 
L 175.9475 45.318068 
L 176.2525 43.669733 
L 176.56 41.957848 
L 177.635 36.659344 
L 178.095 34.999093 
L 178.405 35.229462 
L 178.715 33.219685 
L 179.02 29.482135 
L 179.3275 28.699672 
L 179.48 28.735419 
L 179.6325 29.28354 
L 179.9375 30.967622 
L 180.0925 31.11061 
L 180.2475 31.078835 
L 180.86 31.940736 
L 181.1625 32.754974 
L 181.47 32.218768 
L 181.62 32.111527 
L 181.9275 32.719227 
L 182.2325 33.259404 
L 182.3825 33.267348 
L 182.6875 33.044922 
L 182.9925 32.294234 
L 183.3025 32.337925 
L 183.605 33.219685 
L 183.7575 33.116416 
L 183.9075 32.743058 
L 184.0625 32.949596 
L 184.37 32.818524 
L 184.9775 32.532548 
L 185.75 32.905906 
L 186.0575 32.588154 
L 186.365 32.917821 
L 186.6725 32.850299 
L 187.13 33.156135 
L 187.595 34.033923 
L 188.055 34.248405 
L 188.2075 34.466859 
L 188.9775 34.081586 
L 189.44 33.438139 
L 189.5925 33.469914 
L 190.0525 33.211741 
L 190.515 33.096556 
L 190.67 33.04095 
L 191.1325 32.449138 
L 192.2025 31.479996 
L 192.6625 31.706394 
L 192.815 31.523687 
L 193.125 31.615041 
L 193.2775 31.714338 
L 193.4275 31.662703 
L 193.8875 32.13933 
L 194.1925 32.055921 
L 194.81 32.385588 
L 194.965 32.246571 
L 195.12 32.314094 
L 195.2725 32.194937 
L 195.4275 32.314094 
L 195.7325 32.202881 
L 196.0375 32.147274 
L 196.955 31.901017 
L 197.42 32.032089 
L 197.5725 31.920876 
L 197.88 31.972511 
L 198.34 32.032089 
L 199.1075 32.202881 
L 199.4125 32.365728 
L 200.025 32.81058 
L 200.3325 32.886046 
L 200.945 32.969456 
L 201.2525 33.27132 
L 201.7125 33.942569 
L 202.02 34.268265 
L 203.7075 34.272236 
L 203.86 34.34373 
L 204.0125 34.264293 
L 204.1675 34.391393 
L 204.3225 34.252377 
L 204.63 34.224574 
L 205.855 33.172022 
L 206.1625 33.175994 
L 206.4675 34.117333 
L 206.7775 35.626652 
L 206.9325 35.98015 
L 207.3925 36.047672 
L 207.7 35.988094 
L 208.155 36.560046 
L 209.385 35.853049 
L 209.9925 37.191577 
L 210.2975 37.012842 
L 211.06 36.496496 
L 211.52 36.857938 
L 212.1375 37.211437 
L 212.2875 37.207465 
L 212.44 37.350453 
L 213.3625 37.151858 
L 213.6675 37.517272 
L 214.745 37.5133 
L 215.5175 37.966096 
L 216.595 38.061421 
L 217.05 38.752531 
L 218.1225 39.169579 
L 218.275 39.395977 
L 218.4275 39.384061 
L 218.5825 39.5906 
L 218.735 39.5906 
L 218.8875 39.73756 
L 219.0375 39.646206 
L 219.345 39.681953 
L 219.4975 39.646206 
L 219.805 39.900407 
L 220.265 39.880548 
L 220.5725 39.856717 
L 221.65 40.245962 
L 221.9575 40.583573 
L 222.4125 40.722589 
L 222.7175 41.020481 
L 223.635 41.461361 
L 223.7875 41.715562 
L 223.9375 41.679815 
L 224.09 41.77514 
L 224.245 41.723506 
L 224.55 41.838691 
L 224.855 41.767197 
L 225.165 41.850606 
L 225.32 42.144526 
L 225.6225 42.184245 
L 226.08 42.776057 
L 226.39 43.419504 
L 227.155 43.129556 
L 227.4625 43.590295 
L 227.615 43.451279 
L 228.075 44.114585 
L 228.23 44.20991 
L 228.3825 44.551493 
L 228.845 44.44028 
L 229.4525 44.29332 
L 229.915 44.360842 
L 230.0675 44.074866 
L 230.375 43.967625 
L 230.5275 43.673705 
L 230.6825 43.856412 
L 230.835 43.828609 
L 231.1425 43.908046 
L 231.6025 43.125584 
L 231.91 42.994511 
L 232.2175 43.363897 
L 232.37 43.248712 
L 232.5225 43.300347 
L 232.825 42.97068 
L 232.98 42.605266 
L 233.4475 42.748254 
L 233.6 42.990539 
L 233.7525 42.911102 
L 233.9075 42.680732 
L 234.06 43.312263 
L 234.37 42.255739 
L 234.675 42.990539 
L 234.83 42.863439 
L 235.1425 43.649874 
L 235.295 42.609238 
L 235.4475 42.867411 
L 235.6 42.498025 
L 235.7525 42.454334 
L 235.9075 42.223964 
L 236.0625 42.780029 
L 236.2175 42.772085 
L 236.37 42.577463 
L 236.5225 42.644985 
L 236.6775 43.268572 
L 236.83 42.863439 
L 236.9825 42.839608 
L 237.1375 43.236797 
L 237.29 42.426531 
L 237.6 43.324178 
L 237.7525 43.121612 
L 237.905 43.363897 
L 238.21 42.656901 
L 238.3625 43.18119 
L 238.515 42.891242 
L 238.67 42.926989 
L 238.825 43.216937 
L 238.9775 43.220909 
L 239.1325 43.419504 
L 239.2875 42.434475 
L 239.44 42.672788 
L 239.595 43.185162 
L 239.7475 43.069977 
L 240.05 42.704563 
L 240.2025 43.749171 
L 240.355 42.430503 
L 240.5075 42.724423 
L 240.8175 41.965791 
L 240.97 42.875355 
L 241.1225 42.196161 
L 241.4275 42.148498 
L 241.5825 42.44639 
L 241.735 42.263683 
L 242.0425 41.798972 
L 242.5 43.205022 
L 242.6525 42.732366 
L 242.805 43.633986 
L 242.9575 42.509941 
L 243.11 43.038202 
L 243.4175 42.291486 
L 243.5725 42.688676 
L 244.19 43.157359 
L 244.345 43.483054 
L 244.4975 42.128639 
L 244.65 42.724423 
L 244.805 41.77514 
L 244.955 42.509941 
L 245.1075 41.548743 
L 245.2625 41.723506 
L 245.4175 41.624209 
L 245.57 41.834719 
L 245.725 40.603432 
L 245.88 41.993595 
L 246.0325 41.278654 
L 246.1875 41.802944 
L 246.34 41.624209 
L 246.4925 41.850606 
L 246.6475 42.44639 
L 246.8 41.620237 
L 246.955 42.204105 
L 247.1075 41.246879 
L 247.26 41.306457 
L 247.4125 41.12375 
L 247.5675 40.166524 
L 247.7225 40.941043 
L 247.8775 40.297597 
L 248.03 40.873521 
L 248.185 39.7177 
L 248.3375 40.68287 
L 248.4925 40.91324 
L 248.645 40.639179 
L 248.8 40.61932 
L 249.1075 39.908351 
L 249.2625 40.436613 
L 249.415 39.868632 
L 249.5675 40.075171 
L 249.72 39.721672 
L 249.8725 39.08617 
L 250.025 39.733588 
L 250.1775 39.364202 
L 250.48 38.18455 
L 250.6325 38.303707 
L 250.7875 38.117028 
L 251.2525 39.030563 
L 251.555 38.39506 
L 251.7075 38.56188 
L 252.165 37.080364 
L 252.32 36.905601 
L 252.4725 36.12711 
L 252.625 36.158885 
L 253.2325 35.678286 
L 253.385 35.74978 
L 253.54 35.022924 
L 253.845 35.340675 
L 254.1525 35.102362 
L 254.3025 35.261238 
L 254.61 35.197687 
L 255.2225 34.494662 
L 255.5275 34.589988 
L 256.1375 35.332732 
L 256.29 35.197687 
L 256.4425 34.875964 
L 257.0525 32.667592 
L 257.9825 31.420418 
L 258.135 31.388643 
L 258.44 31.710366 
L 258.5925 31.853354 
L 258.9 31.591209 
L 259.355 31.019257 
L 259.5075 31.04706 
L 260.1175 31.869242 
L 260.42 32.143302 
L 260.8825 32.43325 
L 261.1875 32.326009 
L 261.4925 32.000314 
L 261.8 32.024146 
L 262.105 32.238628 
L 262.715 32.016202 
L 264.0975 30.363895 
L 264.405 30.566461 
L 264.56 30.741224 
L 264.8675 30.68959 
L 265.945 29.148496 
L 266.095 29.088917 
L 266.4025 29.160411 
L 266.71 29.164383 
L 266.865 29.339147 
L 267.17 29.21999 
L 268.09 28.663925 
L 268.855 29.005508 
L 269.1625 28.969761 
L 269.4675 28.48519 
L 270.0775 27.20624 
L 270.385 27.170493 
L 270.8475 26.967927 
L 271.1525 27.3532 
L 271.765 28.183326 
L 272.2225 27.956928 
L 272.53 27.58357 
L 272.9875 26.729613 
L 273.2925 26.650176 
L 273.445 26.705782 
L 273.6 26.614429 
L 274.0575 27.230072 
L 274.515 26.483356 
L 274.975 25.283845 
L 275.13 25.152772 
L 275.2825 25.283845 
L 275.9025 26.340368 
L 276.0575 26.312565 
L 276.365 26.844798 
L 276.5175 26.84877 
L 276.67 27.091056 
L 276.9775 26.888489 
L 277.285 27.28965 
L 277.4375 27.575626 
L 277.59 27.321425 
L 277.8975 26.47144 
L 278.05 26.272846 
L 278.2025 26.419806 
L 278.51 26.999702 
L 279.125 27.476329 
L 279.4325 28.103888 
L 279.585 28.008563 
L 280.0425 27.126803 
L 280.3475 27.063252 
L 280.65 26.662091 
L 280.8025 26.904377 
L 281.105 27.003674 
L 281.4125 27.214184 
L 281.87 27.349229 
L 282.1775 27.508104 
L 282.4875 27.357172 
L 282.7975 27.60343 
L 282.95 27.516048 
L 283.2575 27.754362 
L 283.7175 27.238016 
L 284.635 27.345257 
L 284.79 27.500161 
L 285.25 27.285678 
L 285.8625 26.777276 
L 286.0175 26.793164 
L 286.79 27.587542 
L 286.9425 27.472357 
L 287.0925 27.182409 
L 287.4025 27.972816 
L 287.555 27.988703 
L 287.7075 28.207157 
L 287.8625 28.02445 
L 288.17 26.805079 
L 288.3225 26.872602 
L 288.475 27.416751 
L 288.7875 27.460442 
L 289.0975 27.190353 
L 289.405 27.007646 
L 289.5575 27.031477 
L 290.3225 26.098083 
L 290.63 25.303704 
L 291.085 25.688978 
L 291.3875 25.267957 
L 291.54 25.327536 
L 291.695 25.510243 
L 292.31 25.267957 
L 292.465 25.347395 
L 292.77 26.010701 
L 293.0775 26.836855 
L 293.54 27.16255 
L 293.8475 28.131691 
L 294.1575 28.894295 
L 294.31 28.870463 
L 294.7675 28.405752 
L 294.92 28.576543 
L 295.2275 29.231905 
L 295.99 29.736336 
L 296.2925 30.093806 
L 296.75 30.145441 
L 297.055 30.379782 
L 297.3625 29.764139 
L 297.5175 29.740308 
L 298.1325 30.598236 
L 298.285 30.348007 
L 298.745 29.05317 
L 299.3575 29.652926 
L 299.815 29.057142 
L 299.9675 29.065086 
L 300.885 30.085862 
L 301.3475 30.105722 
L 301.655 29.34709 
L 302.27 26.582653 
L 302.575 26.463497 
L 302.885 26.809051 
L 303.1925 27.468385 
L 303.655 27.241988 
L 304.11 27.682868 
L 304.415 27.464413 
L 304.7225 27.273763 
L 305.64 26.816995 
L 306.1 27.182409 
L 306.7175 28.441499 
L 306.8725 28.63215 
L 307.4875 28.19127 
L 308.255 30.050115 
L 308.56 29.57746 
L 308.8675 28.802941 
L 309.175 28.636122 
L 309.3275 28.648037 
L 310.0925 29.458303 
L 310.3975 29.835633 
L 310.705 29.998481 
L 311.0125 29.819745 
L 311.4725 30.864353 
L 311.625 30.784915 
L 311.9325 30.292401 
L 312.395 30.423473 
L 312.7 30.765056 
L 313.005 30.47908 
L 313.1575 30.530714 
L 313.9225 31.706394 
L 314.2275 31.499856 
L 314.6875 31.515743 
L 314.8425 31.65476 
L 315.3025 31.19402 
L 315.4575 31.6349 
L 315.6125 31.436306 
L 316.2225 28.866491 
L 316.375 28.588459 
L 316.5275 28.663925 
L 316.985 28.409724 
L 317.4425 28.787054 
L 317.7475 28.870463 
L 317.9 28.739391 
L 318.51 27.635205 
L 318.665 27.508104 
L 318.82 27.535908 
L 319.125 27.802024 
L 319.28 27.742446 
L 319.435 27.853659 
L 319.5875 27.809968 
L 319.74 27.89735 
L 320.0475 28.238932 
L 320.6625 27.619317 
L 320.97 27.222128 
L 321.275 26.93218 
L 322.1875 26.880545 
L 322.495 26.705782 
L 322.9525 26.515131 
L 323.875 25.224266 
L 323.875 25.224266 
" style="fill:none;stroke:#0000ff;stroke-linecap:square;stroke-width:1.5;"/>
   </g>
   <g id="patch_3">
    <path d="M 108 76.896 
L 108 10.368 
" style="fill:none;stroke:#445753;stroke-linecap:square;stroke-linejoin:miter;stroke-width:3;"/>
   </g>
   <g id="patch_4">
    <path d="M 108 76.896 
L 324 76.896 
" style="fill:none;stroke:#445753;stroke-linecap:square;stroke-linejoin:miter;stroke-width:3;"/>
   </g>
   <g id="text_9">
    <g id="patch_5">
     <path d="M 186.754687 8.823625 
L 245.245313 8.823625 
L 245.245313 -10.710125 
L 186.754687 -10.710125 
z
" style="fill:#f4f7f7;stroke:#f4f7f7;stroke-linejoin:miter;"/>
    </g>
    <a xlink:href="http://google.com">
     <!-- X-Field -->
     <defs>
      <path d="M 58.890625 0 
L 44 0 
L 30.078125 24.125 
L 16.21875 0 
L 1.3125 0 
L 22.703125 37.015625 
L 1.90625 72.90625 
L 16.796875 72.90625 
L 30.078125 49.703125 
L 43.40625 72.90625 
L 58.296875 72.90625 
L 37.59375 37.015625 
z
" id="DejaVuSansMono-Bold-88"/>
      <path d="M 14.703125 35.890625 
L 45.515625 35.890625 
L 45.515625 21.6875 
L 14.703125 21.6875 
z
" id="DejaVuSansMono-Bold-45"/>
      <path d="M 54.296875 60.203125 
L 23.296875 60.203125 
L 23.296875 44.484375 
L 51.515625 44.484375 
L 51.515625 31.78125 
L 23.296875 31.78125 
L 23.296875 0 
L 8.890625 0 
L 8.890625 72.90625 
L 54.296875 72.90625 
z
" id="DejaVuSansMono-Bold-70"/>
      <path d="M 10.796875 54.6875 
L 39.109375 54.6875 
L 39.109375 10.984375 
L 56.890625 10.984375 
L 56.890625 0 
L 6.984375 0 
L 6.984375 10.984375 
L 24.8125 10.984375 
L 24.8125 43.703125 
L 10.796875 43.703125 
z
M 24.8125 81.296875 
L 39.109375 81.296875 
L 39.109375 64.59375 
L 24.8125 64.59375 
z
" id="DejaVuSansMono-Bold-105"/>
      <path d="M 53.8125 2.6875 
Q 48.828125 0.640625 43.65625 -0.390625 
Q 38.484375 -1.421875 32.71875 -1.421875 
Q 19 -1.421875 11.75 5.921875 
Q 4.5 13.28125 4.5 27.09375 
Q 4.5 40.484375 11.46875 48.234375 
Q 18.453125 56 30.515625 56 
Q 42.671875 56 49.390625 48.796875 
Q 56.109375 41.609375 56.109375 28.515625 
L 56.109375 22.703125 
L 19.046875 22.703125 
Q 19.09375 16.265625 22.84375 13.078125 
Q 26.609375 9.90625 34.078125 9.90625 
Q 39.015625 9.90625 43.796875 11.328125 
Q 48.578125 12.75 53.8125 15.828125 
z
M 41.703125 33.453125 
Q 41.609375 39.109375 38.796875 42.015625 
Q 35.984375 44.921875 30.515625 44.921875 
Q 25.59375 44.921875 22.65625 41.921875 
Q 19.734375 38.921875 19.1875 33.40625 
z
" id="DejaVuSansMono-Bold-101"/>
      <path d="M 18.890625 22.796875 
L 18.890625 64.984375 
L 4.390625 64.984375 
L 4.390625 75.984375 
L 33.203125 75.984375 
L 33.203125 22.796875 
Q 33.203125 16.359375 35.203125 13.671875 
Q 37.203125 10.984375 42 10.984375 
L 53.421875 10.984375 
L 53.421875 0 
L 37.984375 0 
Q 27.78125 0 23.328125 5.265625 
Q 18.890625 10.546875 18.890625 22.796875 
z
" id="DejaVuSansMono-Bold-108"/>
      <path d="M 38.625 46.921875 
L 38.625 75.984375 
L 52.875 75.984375 
L 52.875 0 
L 38.625 0 
L 38.625 8.109375 
Q 36.328125 3.375 32.6875 0.96875 
Q 29.046875 -1.421875 24.125 -1.421875 
Q 14.75 -1.421875 9.5625 6.09375 
Q 4.390625 13.625 4.390625 27.296875 
Q 4.390625 41.15625 9.640625 48.578125 
Q 14.890625 56 24.609375 56 
Q 29 56 32.484375 53.734375 
Q 35.984375 51.46875 38.625 46.921875 
z
M 18.703125 27.203125 
Q 18.703125 19.28125 21.328125 14.78125 
Q 23.96875 10.296875 28.609375 10.296875 
Q 33.25 10.296875 35.9375 14.78125 
Q 38.625 19.28125 38.625 27.203125 
Q 38.625 35.109375 35.9375 39.59375 
Q 33.25 44.09375 28.609375 44.09375 
Q 23.96875 44.09375 21.328125 39.59375 
Q 18.703125 35.109375 18.703125 27.203125 
z
" id="DejaVuSansMono-Bold-100"/>
     </defs>
     <g style="fill:#222b29;" transform="translate(190.714687 2.368)scale(0.12 -0.12)">
      <use xlink:href="#DejaVuSansMono-Bold-88"/>
      <use x="60.205078" xlink:href="#DejaVuSansMono-Bold-45"/>
      <use x="120.410156" xlink:href="#DejaVuSansMono-Bold-70"/>
      <use x="180.615234" xlink:href="#DejaVuSansMono-Bold-105"/>
      <use x="240.820312" xlink:href="#DejaVuSansMono-Bold-101"/>
      <use x="301.025391" xlink:href="#DejaVuSansMono-Bold-108"/>
      <use x="361.230469" xlink:href="#DejaVuSansMono-Bold-100"/>
     </g>
    </a>
   </g>
  </g>
  <g id="axes_2">
   <g id="patch_6">
    <path d="M 334.8 76.896 
L 550.8 76.896 
L 550.8 10.368 
L 334.8 10.368 
z
" style="fill:#a6c2bc;"/>
   </g>
   <g id="matplotlib.axis_3">
    <g id="xtick_5">
     <g id="line2d_14">
      <path clip-path="url(#p9c8ab0f074)" d="M 334.8 76.896 
L 334.8 10.368 
" style="fill:none;stroke:#c8d9cd;stroke-linecap:square;stroke-width:0.8;"/>
     </g>
     <g id="line2d_15">
      <g>
       <use style="stroke:#000000;stroke-width:0.8;" x="334.8" xlink:href="#m451f2a4e0c" y="76.896"/>
      </g>
     </g>
     <g id="text_10">
      <!-- 00:00 -->
      <g transform="translate(320.390625 91.494437)scale(0.1 -0.1)">
       <use xlink:href="#DejaVuSans-48"/>
       <use x="63.623047" xlink:href="#DejaVuSans-48"/>
       <use x="127.246094" xlink:href="#DejaVuSans-58"/>
       <use x="160.9375" xlink:href="#DejaVuSans-48"/>
       <use x="224.560547" xlink:href="#DejaVuSans-48"/>
      </g>
     </g>
    </g>
    <g id="xtick_6">
     <g id="line2d_16">
      <path clip-path="url(#p9c8ab0f074)" d="M 388.8 76.896 
L 388.8 10.368 
" style="fill:none;stroke:#c8d9cd;stroke-linecap:square;stroke-width:0.8;"/>
     </g>
     <g id="line2d_17">
      <g>
       <use style="stroke:#000000;stroke-width:0.8;" x="388.8" xlink:href="#m451f2a4e0c" y="76.896"/>
      </g>
     </g>
     <g id="text_11">
      <!-- 06:00 -->
      <g transform="translate(374.390625 91.494437)scale(0.1 -0.1)">
       <use xlink:href="#DejaVuSans-48"/>
       <use x="63.623047" xlink:href="#DejaVuSans-54"/>
       <use x="127.246094" xlink:href="#DejaVuSans-58"/>
       <use x="160.9375" xlink:href="#DejaVuSans-48"/>
       <use x="224.560547" xlink:href="#DejaVuSans-48"/>
      </g>
     </g>
    </g>
    <g id="xtick_7">
     <g id="line2d_18">
      <path clip-path="url(#p9c8ab0f074)" d="M 442.8 76.896 
L 442.8 10.368 
" style="fill:none;stroke:#c8d9cd;stroke-linecap:square;stroke-width:0.8;"/>
     </g>
     <g id="line2d_19">
      <g>
       <use style="stroke:#000000;stroke-width:0.8;" x="442.8" xlink:href="#m451f2a4e0c" y="76.896"/>
      </g>
     </g>
     <g id="text_12">
      <!-- 12:00 -->
      <g transform="translate(428.390625 91.494437)scale(0.1 -0.1)">
       <use xlink:href="#DejaVuSans-49"/>
       <use x="63.623047" xlink:href="#DejaVuSans-50"/>
       <use x="127.246094" xlink:href="#DejaVuSans-58"/>
       <use x="160.9375" xlink:href="#DejaVuSans-48"/>
       <use x="224.560547" xlink:href="#DejaVuSans-48"/>
      </g>
     </g>
    </g>
    <g id="xtick_8">
     <g id="line2d_20">
      <path clip-path="url(#p9c8ab0f074)" d="M 496.8 76.896 
L 496.8 10.368 
" style="fill:none;stroke:#c8d9cd;stroke-linecap:square;stroke-width:0.8;"/>
     </g>
     <g id="line2d_21">
      <g>
       <use style="stroke:#000000;stroke-width:0.8;" x="496.8" xlink:href="#m451f2a4e0c" y="76.896"/>
      </g>
     </g>
     <g id="text_13">
      <!-- 18:00 -->
      <g transform="translate(482.390625 91.494437)scale(0.1 -0.1)">
       <use xlink:href="#DejaVuSans-49"/>
       <use x="63.623047" xlink:href="#DejaVuSans-56"/>
       <use x="127.246094" xlink:href="#DejaVuSans-58"/>
       <use x="160.9375" xlink:href="#DejaVuSans-48"/>
       <use x="224.560547" xlink:href="#DejaVuSans-48"/>
      </g>
     </g>
    </g>
    <g id="text_14">
     <!-- UTC in Hours  2019 06 06 -->
     <g transform="translate(370.55625 105.225687)scale(0.1 -0.1)">
      <use xlink:href="#DejaVuSansMono-85"/>
      <use x="60.205078" xlink:href="#DejaVuSansMono-84"/>
      <use x="120.410156" xlink:href="#DejaVuSansMono-67"/>
      <use x="180.615234" xlink:href="#DejaVuSansMono-32"/>
      <use x="240.820312" xlink:href="#DejaVuSansMono-105"/>
      <use x="301.025391" xlink:href="#DejaVuSansMono-110"/>
      <use x="361.230469" xlink:href="#DejaVuSansMono-32"/>
      <use x="421.435547" xlink:href="#DejaVuSansMono-72"/>
      <use x="481.640625" xlink:href="#DejaVuSansMono-111"/>
      <use x="541.845703" xlink:href="#DejaVuSansMono-117"/>
      <use x="602.050781" xlink:href="#DejaVuSansMono-114"/>
      <use x="662.255859" xlink:href="#DejaVuSansMono-115"/>
      <use x="722.460938" xlink:href="#DejaVuSansMono-32"/>
      <use x="782.666016" xlink:href="#DejaVuSansMono-32"/>
      <use x="842.871094" xlink:href="#DejaVuSansMono-50"/>
      <use x="903.076172" xlink:href="#DejaVuSansMono-48"/>
      <use x="963.28125" xlink:href="#DejaVuSansMono-49"/>
      <use x="1023.486328" xlink:href="#DejaVuSansMono-57"/>
      <use x="1083.691406" xlink:href="#DejaVuSansMono-32"/>
      <use x="1143.896484" xlink:href="#DejaVuSansMono-48"/>
      <use x="1204.101562" xlink:href="#DejaVuSansMono-54"/>
      <use x="1264.306641" xlink:href="#DejaVuSansMono-32"/>
      <use x="1324.511719" xlink:href="#DejaVuSansMono-48"/>
      <use x="1384.716797" xlink:href="#DejaVuSansMono-54"/>
     </g>
    </g>
   </g>
   <g id="matplotlib.axis_4">
    <g id="ytick_3">
     <g id="line2d_22">
      <path clip-path="url(#p9c8ab0f074)" d="M 334.8 62.111228 
L 550.8 62.111228 
" style="fill:none;stroke:#c8d9cd;stroke-linecap:square;stroke-width:0.8;"/>
     </g>
     <g id="line2d_23">
      <g>
       <use style="stroke:#000000;stroke-width:0.8;" x="334.8" xlink:href="#md454a14147" y="62.111228"/>
      </g>
     </g>
    </g>
    <g id="ytick_4">
     <g id="line2d_24">
      <path clip-path="url(#p9c8ab0f074)" d="M 334.8 22.392307 
L 550.8 22.392307 
" style="fill:none;stroke:#c8d9cd;stroke-linecap:square;stroke-width:0.8;"/>
     </g>
     <g id="line2d_25">
      <g>
       <use style="stroke:#000000;stroke-width:0.8;" x="334.8" xlink:href="#md454a14147" y="22.392307"/>
      </g>
     </g>
    </g>
   </g>
   <g id="line2d_26">
    <path clip-path="url(#p9c8ab0f074)" d="M 334.875 22.392307 
L 335.64 22.805384 
L 335.9475 22.932485 
L 336.2525 22.976175 
L 336.71 23.484578 
L 337.015 23.524297 
L 337.1675 23.393224 
L 337.785 23.877795 
L 338.5525 23.417055 
L 338.86 23.623594 
L 339.015 23.61565 
L 339.1675 23.758638 
L 339.3225 24.215406 
L 339.4775 23.718919 
L 339.63 23.691116 
L 339.94 22.996035 
L 340.2525 23.035754 
L 340.71 22.126191 
L 341.015 21.49466 
L 341.1675 19.504742 
L 341.3225 19.64773 
L 341.475 17.316229 
L 341.63 17.304314 
L 341.7825 15.850601 
L 341.9375 16.740305 
L 342.09 19.282316 
L 342.2425 19.433248 
L 342.3975 18.837464 
L 342.55 19.596095 
L 343.0125 20.354727 
L 343.165 20.017116 
L 343.32 20.303092 
L 343.78 21.995118 
L 343.93 22.026893 
L 344.085 22.368476 
L 344.24 21.542322 
L 344.3925 20.116413 
L 344.7025 19.540489 
L 345.005 19.33395 
L 345.3125 20.183935 
L 345.615 19.56432 
L 345.7675 19.512686 
L 345.9175 19.631842 
L 346.2225 21.11733 
L 346.3725 21.077611 
L 346.685 19.524601 
L 346.8375 19.600067 
L 347.2975 18.027198 
L 347.45 18.253596 
L 347.6025 19.210822 
L 348.0625 18.726251 
L 348.2175 19.234653 
L 348.37 19.246569 
L 348.8325 20.835326 
L 349.1375 23.540184 
L 349.29 24.028727 
L 349.4425 24.024755 
L 349.75 23.718919 
L 349.9025 23.421027 
L 350.67 20.815466 
L 350.975 20.267345 
L 351.4325 20.775747 
L 351.89 21.002145 
L 352.3475 20.509631 
L 352.5025 20.918735 
L 352.81 22.777581 
L 352.9625 22.888794 
L 353.4225 20.986258 
L 353.5775 20.064779 
L 353.73 20.0052 
L 354.0325 21.268262 
L 354.34 22.491605 
L 354.6475 22.845103 
L 354.95 21.518491 
L 355.2575 21.629704 
L 355.8725 23.075473 
L 356.0225 23.365421 
L 356.175 23.377337 
L 356.3275 24.004896 
L 356.4825 24.12008 
L 357.095 19.703336 
L 357.2475 18.841436 
L 357.4 18.940733 
L 357.5525 19.222738 
L 358.01 17.439358 
L 358.315 19.933706 
L 358.6225 22.451886 
L 358.775 23.401168 
L 359.08 23.536212 
L 359.385 25.0217 
L 359.54 25.263985 
L 359.6925 24.842965 
L 359.8475 24.763527 
L 360.0025 25.311648 
L 360.3075 27.690811 
L 360.46 27.523992 
L 361.0725 20.501687 
L 361.2275 20.362671 
L 361.8425 22.857019 
L 361.9975 23.520325 
L 362.4575 22.428054 
L 362.6125 22.765665 
L 362.765 23.373365 
L 362.92 23.480606 
L 363.5275 22.018949 
L 363.8325 22.622677 
L 364.14 21.844186 
L 364.6025 21.780636 
L 364.7575 22.197685 
L 365.215 22.161938 
L 365.3675 22.396279 
L 365.6725 22.443942 
L 366.44 25.172632 
L 366.7475 25.748556 
L 366.9 25.688978 
L 367.2025 25.963038 
L 367.355 25.895516 
L 367.8225 26.28079 
L 368.2775 26.117942 
L 368.585 26.55485 
L 369.0475 26.729613 
L 369.6625 28.278651 
L 369.9675 28.183326 
L 370.2775 29.216018 
L 370.435 30.721365 
L 370.74 28.985648 
L 370.8925 25.899488 
L 371.045 25.156744 
L 371.1975 42.013454 
L 371.35 43.161331 
L 371.8075 51.704871 
L 371.96 50.560966 
L 372.265 60.83625 
L 372.4175 61.646516 
L 372.5725 64.772395 
L 372.88 73.872 
L 373.1875 72.620854 
L 373.4925 72.124368 
L 373.8 60.347708 
L 374.2575 56.65782 
L 374.4125 56.256659 
L 374.8675 53.04737 
L 375.18 50.048592 
L 375.3325 49.087394 
L 375.79 42.720451 
L 376.405 35.76964 
L 376.8675 34.296068 
L 377.02 34.36359 
L 377.175 32.262459 
L 377.4825 25.593652 
L 377.635 25.430805 
L 377.79 26.435693 
L 378.095 31.396587 
L 378.2475 31.619013 
L 378.4 33.132303 
L 378.555 32.766889 
L 378.705 33.207769 
L 379.01 31.797748 
L 379.1625 30.804775 
L 379.315 30.665758 
L 379.4675 31.34098 
L 379.7725 30.665758 
L 379.9275 31.547518 
L 380.08 31.611069 
L 380.5375 28.481218 
L 380.6925 27.690811 
L 380.995 28.509021 
L 381.1475 27.933097 
L 381.3 28.362061 
L 381.61 32.901934 
L 382.3825 38.712812 
L 382.845 32.230684 
L 383.15 32.993287 
L 383.4575 30.769028 
L 383.615 31.150329 
L 383.77 32.044005 
L 384.0775 31.098695 
L 384.23 29.895211 
L 384.3825 30.01834 
L 384.5375 29.668814 
L 384.69 29.78797 
L 384.845 29.029339 
L 385.15 30.034228 
L 385.3025 29.617179 
L 385.455 27.531936 
L 385.6075 27.317453 
L 385.9125 31.762001 
L 386.22 25.939207 
L 386.375 25.82005 
L 386.5275 25.244126 
L 386.6775 25.152772 
L 386.985 26.733585 
L 387.1375 26.550878 
L 387.2925 25.923319 
L 387.445 26.078223 
L 387.7525 28.949901 
L 387.905 27.698755 
L 388.0575 27.686839 
L 388.2125 28.505049 
L 388.5175 26.741529 
L 388.82 24.926374 
L 388.975 25.319592 
L 389.28 29.28354 
L 389.4325 26.769332 
L 389.585 27.253903 
L 389.89 32.441194 
L 390.1925 29.883296 
L 390.345 29.287512 
L 390.65 27.07914 
L 390.9575 26.479384 
L 391.2625 32.480913 
L 391.4175 30.411557 
L 391.57 30.860381 
L 391.725 30.304316 
L 391.88 29.295456 
L 392.0325 29.648954 
L 392.185 29.259709 
L 392.49 28.012535 
L 392.6425 27.60343 
L 392.7925 27.913237 
L 392.945 28.61229 
L 393.25 28.068141 
L 393.7075 29.962734 
L 394.015 29.565544 
L 394.1675 29.831661 
L 394.4725 29.351062 
L 394.7775 29.823717 
L 394.9325 30.212963 
L 395.085 30.085862 
L 395.235 30.18516 
L 395.5425 32.194937 
L 395.6975 32.230684 
L 396.005 28.92607 
L 396.1575 30.939819 
L 396.3125 34.582044 
L 396.4675 34.395365 
L 396.77 37.052561 
L 396.9225 37.282931 
L 397.685 33.378561 
L 397.835 33.338842 
L 398.14 32.623901 
L 398.605 34.697229 
L 399.2175 30.439361 
L 399.3725 30.022312 
L 399.5225 30.085862 
L 399.675 29.93493 
L 399.98 28.846632 
L 400.29 29.140552 
L 400.445 28.870463 
L 400.755 29.51391 
L 401.0575 29.132608 
L 401.215 28.767194 
L 401.6775 27.170493 
L 401.98 26.308593 
L 402.2875 25.212351 
L 402.595 24.298816 
L 403.36 23.115192 
L 403.5125 22.952344 
L 404.28 21.478772 
L 404.895 20.736028 
L 405.36 21.343728 
L 405.515 21.256346 
L 406.1275 19.04003 
L 406.28 19.1433 
L 406.4325 19.139328 
L 407.5075 20.442108 
L 407.9625 20.148188 
L 408.42 19.103581 
L 409.64 19.190962 
L 409.9475 18.734195 
L 410.1025 18.646813 
L 410.405 18.932789 
L 410.5575 18.845408 
L 410.8625 18.551488 
L 411.17 18.321118 
L 411.475 18.364809 
L 411.625 18.245652 
L 411.9325 17.872294 
L 412.24 17.844491 
L 412.395 17.915985 
L 412.705 17.796828 
L 412.8575 17.784913 
L 413.0125 17.657812 
L 413.165 17.733278 
L 413.4725 17.602206 
L 413.93 17.316229 
L 414.085 17.399639 
L 414.5475 17.21296 
L 414.7 17.272539 
L 415.16 16.978619 
L 415.625 16.482132 
L 415.7775 16.509935 
L 416.0875 16.323256 
L 416.3925 16.347088 
L 416.6975 16.418582 
L 418.085 15.783079 
L 419.1575 16.208071 
L 420.0775 15.652007 
L 420.38 15.95387 
L 420.6875 16.029336 
L 421.1475 16.021393 
L 421.765 16.311341 
L 422.2275 16.05714 
L 422.685 15.699669 
L 423.2975 15.246874 
L 423.605 15.262761 
L 423.91 15.274677 
L 424.8325 15.4693 
L 425.5975 15.314396 
L 426.06 15.572569 
L 426.52 15.397805 
L 426.6725 15.453412 
L 426.98 15.350143 
L 427.285 15.457384 
L 427.745 15.691725 
L 428.0525 15.874433 
L 428.5125 15.91018 
L 429.1275 15.314396 
L 429.745 14.555764 
L 430.5075 14.535905 
L 430.8125 14.635202 
L 431.2775 14.58754 
L 431.5825 14.579596 
L 431.8875 14.512074 
L 432.1925 14.265816 
L 432.8075 13.91629 
L 432.9625 14.098997 
L 433.2675 14.988701 
L 433.4225 15.048279 
L 433.7325 14.543849 
L 433.885 14.249929 
L 434.04 14.214182 
L 434.8025 14.988701 
L 435.1075 14.754359 
L 435.8775 13.392 
L 436.0325 13.419803 
L 436.3375 13.860683 
L 436.6425 14.249929 
L 436.7925 13.971896 
L 436.945 13.975868 
L 437.0975 14.142688 
L 437.555 13.892458 
L 437.86 14.122828 
L 438.015 14.039418 
L 438.1675 14.110912 
L 438.6275 14.023531 
L 438.9375 14.102969 
L 439.24 14.384973 
L 440.1625 14.63123 
L 440.775 14.432636 
L 441.39 14.7345 
L 442.3175 14.8616 
L 442.47 14.980757 
L 442.625 14.921178 
L 442.93 15.179351 
L 443.395 15.044307 
L 443.85 14.952954 
L 444.9225 15.592428 
L 445.075 15.620231 
L 445.2275 16.3312 
L 445.3825 15.648035 
L 445.6875 15.5964 
L 445.99 15.810882 
L 446.45 16.283537 
L 447.065 16.442413 
L 447.6825 16.799883 
L 448.45 17.00245 
L 448.7575 16.930956 
L 448.91 16.946843 
L 449.365 16.684698 
L 449.975 17.133522 
L 450.2825 17.403611 
L 451.045 17.840519 
L 451.81 17.772997 
L 452.12 17.776969 
L 452.575 17.411555 
L 452.88 17.427442 
L 453.19 17.622065 
L 453.4975 18.174158 
L 454.1075 19.917819 
L 454.415 20.187907 
L 454.5675 20.136273 
L 454.875 19.874128 
L 455.03 19.913847 
L 455.3375 19.73114 
L 455.49 19.838381 
L 455.645 19.766887 
L 455.7975 19.886043 
L 455.9475 19.854268 
L 456.405 20.116413 
L 457.0225 20.358699 
L 457.175 20.148188 
L 457.635 20.577153 
L 457.7875 20.720141 
L 458.095 20.692338 
L 458.4025 21.022005 
L 458.5575 21.431109 
L 458.71 21.41125 
L 458.8625 21.538351 
L 459.625 21.280178 
L 460.2475 22.547211 
L 460.5525 22.598846 
L 460.7075 22.845103 
L 461.015 22.408195 
L 461.17 23.043698 
L 461.475 23.317758 
L 461.63 23.663313 
L 461.7875 23.361449 
L 461.9425 23.337618 
L 462.095 23.97312 
L 462.2475 23.548128 
L 462.4 23.579903 
L 462.7075 24.680117 
L 462.8625 24.545073 
L 463.0175 24.759555 
L 463.17 24.624511 
L 463.63 25.557905 
L 463.7825 25.601596 
L 463.9375 25.422861 
L 464.09 25.978926 
L 464.4 25.446692 
L 464.5525 25.52613 
L 464.705 25.414917 
L 464.8575 25.569821 
L 465.01 26.066307 
L 465.1625 26.121914 
L 465.315 26.046448 
L 465.47 26.185464 
L 465.625 26.070279 
L 465.7775 26.296677 
L 465.9325 26.28079 
L 466.24 28.020478 
L 466.5475 26.959983 
L 466.85 28.036366 
L 467.0025 27.547823 
L 467.3075 27.984731 
L 467.4625 27.73053 
L 467.6175 28.509021 
L 467.77 27.980759 
L 467.9225 28.052253 
L 468.075 28.699672 
L 468.2275 28.798969 
L 468.535 28.715559 
L 468.6875 29.192187 
L 468.8425 30.280485 
L 468.995 30.014368 
L 469.1475 30.026284 
L 469.3 29.339147 
L 469.4525 29.652926 
L 469.605 29.509938 
L 469.7575 29.80783 
L 470.065 29.533769 
L 470.5275 29.045227 
L 470.6825 29.760167 
L 470.8375 29.78797 
L 471.145 29.299428 
L 471.2975 29.903155 
L 471.45 29.156439 
L 471.605 29.172327 
L 471.755 29.811802 
L 471.9075 29.633067 
L 472.0625 30.042171 
L 472.2175 29.783998 
L 472.37 29.239849 
L 472.525 30.83655 
L 472.68 30.630011 
L 472.8325 30.105722 
L 472.9875 30.193103 
L 473.2925 30.52277 
L 473.755 29.72442 
L 474.06 30.463192 
L 474.2125 30.749168 
L 474.3675 31.952651 
L 474.83 30.153384 
L 475.1375 31.92882 
L 475.2925 31.706394 
L 475.6 30.729309 
L 475.7525 30.884213 
L 476.0625 31.960595 
L 476.215 31.714338 
L 476.52 30.75314 
L 476.6725 30.824634 
L 476.825 30.733281 
L 476.9775 30.808747 
L 477.13 31.57135 
L 477.4325 31.368783 
L 477.745 31.476024 
L 477.9 32.226712 
L 478.5075 31.321121 
L 478.66 31.293317 
L 478.8125 31.392615 
L 479.425 32.68348 
L 479.5775 32.119471 
L 480.0325 33.100528 
L 480.34 32.695395 
L 480.495 32.925765 
L 480.645 33.39842 
L 480.7975 33.350757 
L 480.9525 32.766889 
L 481.1025 32.890018 
L 481.255 33.263376 
L 481.41 33.219685 
L 481.715 32.68348 
L 481.87 32.615957 
L 482.0225 32.695395 
L 482.3275 33.501689 
L 482.48 33.700284 
L 482.9375 33.517577 
L 483.09 33.25146 
L 483.395 32.385588 
L 483.5475 32.341897 
L 483.8525 32.858243 
L 485.0875 33.847244 
L 485.24 33.740003 
L 485.5475 34.037895 
L 486.0025 34.15308 
L 486.46 34.701201 
L 486.9175 35.090446 
L 487.6825 35.658427 
L 487.9875 36.250239 
L 488.14 36.270098 
L 488.7525 36.794388 
L 488.905 36.881769 
L 489.0575 36.762613 
L 489.21 36.834107 
L 489.3625 37.084336 
L 489.665 36.921488 
L 489.82 36.989011 
L 490.2825 37.53316 
L 490.435 37.306762 
L 490.59 37.32265 
L 490.8975 37.620541 
L 491.05 37.545075 
L 491.5125 38.176606 
L 492.1275 37.835024 
L 492.5875 37.676148 
L 492.895 37.926377 
L 493.0475 37.91049 
L 493.2025 37.735726 
L 493.51 38.208381 
L 493.8175 38.180578 
L 494.1225 37.858855 
L 494.2775 37.985955 
L 494.4325 37.902546 
L 494.7375 38.041562 
L 495.045 38.077309 
L 495.1975 38.240157 
L 495.35 38.224269 
L 495.655 38.466554 
L 495.9625 38.466554 
L 496.2675 38.275904 
L 496.8775 37.823108 
L 497.3375 37.82708 
L 497.4925 37.811192 
L 497.6475 37.970068 
L 498.105 37.803248 
L 498.7175 38.20441 
L 499.635 37.278959 
L 500.0925 36.639484 
L 500.245 36.762613 
L 500.5525 36.56799 
L 500.705 36.436918 
L 500.8575 36.607709 
L 501.1625 36.369395 
L 501.6225 35.451888 
L 501.775 35.229462 
L 502.24 35.312872 
L 502.3975 35.030868 
L 502.55 35.150025 
L 502.7025 35.432029 
L 502.8575 35.364507 
L 503.01 35.118249 
L 503.165 35.241378 
L 503.3175 35.173856 
L 503.47 35.372451 
L 503.625 35.336703 
L 503.93 34.824329 
L 504.2375 34.927599 
L 504.545 34.34373 
L 504.85 33.680425 
L 505.0025 33.517577 
L 505.925 33.553324 
L 506.2325 33.811497 
L 506.385 33.851216 
L 506.69 33.438139 
L 506.995 33.211741 
L 507.1475 33.362673 
L 507.45 33.056837 
L 507.6025 33.068753 
L 508.0575 33.473886 
L 508.365 33.18791 
L 508.515 33.326926 
L 508.67 33.307067 
L 508.825 33.529493 
L 509.4425 33.036978 
L 509.5975 32.72717 
L 509.9025 32.691423 
L 510.21 32.81058 
L 510.5175 32.449138 
L 511.59 31.813635 
L 511.895 31.706394 
L 512.05 31.36084 
L 512.355 31.384671 
L 512.51 31.432334 
L 513.13 31.023229 
L 513.4375 30.979538 
L 513.59 30.800803 
L 513.8925 31.11061 
L 514.0475 31.333036 
L 514.5075 30.526742 
L 514.8175 30.391698 
L 515.1225 29.950818 
L 515.275 29.970677 
L 515.7425 30.475108 
L 516.0525 30.002452 
L 516.3575 29.426528 
L 517.1225 29.756195 
L 517.58 28.652009 
L 518.0375 28.858548 
L 518.34 28.775138 
L 518.6475 29.017423 
L 518.8025 29.069058 
L 518.9575 28.973732 
L 519.4175 28.04431 
L 520.03 28.961817 
L 520.34 28.421639 
L 520.495 28.358089 
L 521.11 28.787054 
L 521.72 28.115804 
L 522.0275 28.31837 
L 522.64 28.211129 
L 522.9425 28.127719 
L 523.0925 28.175382 
L 523.55 27.996647 
L 523.855 28.084029 
L 524.1625 27.738474 
L 524.3175 27.452498 
L 524.4725 27.45647 
L 524.7825 27.945012 
L 524.9325 28.143607 
L 525.085 28.076085 
L 525.545 26.813023 
L 525.8525 27.091056 
L 526.005 27.106943 
L 526.4625 26.777276 
L 527.07 26.904377 
L 527.2225 26.860686 
L 527.53 27.098999 
L 527.9925 27.051337 
L 528.455 27.396891 
L 528.61 27.146662 
L 529.07 25.776359 
L 529.2225 25.851825 
L 529.53 26.47144 
L 529.685 26.546906 
L 530.145 24.934318 
L 530.3 24.823105 
L 530.605 25.212351 
L 530.91 25.10511 
L 531.37 24.374281 
L 531.6775 24.525213 
L 531.9825 24.72778 
L 532.7475 23.758638 
L 533.055 23.707004 
L 533.2075 23.750694 
L 533.6725 24.326619 
L 533.9775 23.901626 
L 534.2875 23.293927 
L 534.44 23.222433 
L 534.9025 23.329674 
L 535.2075 23.222433 
L 535.36 23.234348 
L 535.6675 22.952344 
L 536.28 23.222433 
L 536.585 23.603734 
L 536.8925 23.520325 
L 537.1975 23.19463 
L 537.505 22.956316 
L 537.66 23.083417 
L 537.965 23.544156 
L 538.1175 23.492521 
L 538.2725 23.921486 
L 538.58 23.544156 
L 539.6525 23.46869 
L 540.1125 24.183631 
L 540.4175 24.51727 
L 540.57 24.576848 
L 540.7225 24.417972 
L 541.0275 23.869851 
L 541.18 23.738779 
L 541.4875 23.722891 
L 541.795 23.738779 
L 542.1025 23.861907 
L 542.4125 23.536212 
L 542.7175 22.837159 
L 543.175 22.896738 
L 543.48 22.845103 
L 543.635 22.809356 
L 543.785 22.916597 
L 543.94 22.765665 
L 544.5475 22.892766 
L 544.7 23.043698 
L 544.85 23.031782 
L 545.31 22.37642 
L 545.465 22.467773 
L 545.7725 22.320813 
L 546.08 22.463801 
L 546.3875 22.745806 
L 547.1575 22.590902 
L 547.31 22.725946 
L 547.4625 22.706087 
L 548.38 21.796524 
L 548.6825 21.99909 
L 549.1425 22.408195 
L 549.295 22.372448 
L 549.905 21.732973 
L 550.52 21.903765 
L 550.675 21.840214 
L 550.675 21.840214 
" style="fill:none;stroke:#ff0000;stroke-linecap:square;stroke-width:1.5;"/>
   </g>
   <g id="patch_7">
    <path d="M 334.8 76.896 
L 334.8 10.368 
" style="fill:none;stroke:#445753;stroke-linecap:square;stroke-linejoin:miter;stroke-width:3;"/>
   </g>
   <g id="patch_8">
    <path d="M 334.8 76.896 
L 550.8 76.896 
" style="fill:none;stroke:#445753;stroke-linecap:square;stroke-linejoin:miter;stroke-width:3;"/>
   </g>
   <g id="text_15">
    <g id="patch_9">
     <path d="M 413.554688 8.823625 
L 472.045312 8.823625 
L 472.045312 -10.710125 
L 413.554688 -10.710125 
z
" style="fill:#f4f7f7;stroke:#f4f7f7;stroke-linejoin:miter;"/>
    </g>
    <a xlink:href="http://google.com">
     <!-- Y-Field -->
     <defs>
      <path d="M 0.390625 72.90625 
L 15.921875 72.90625 
L 30.078125 43.609375 
L 44.28125 72.90625 
L 59.8125 72.90625 
L 37.3125 28.71875 
L 37.3125 0 
L 22.90625 0 
L 22.90625 28.71875 
z
" id="DejaVuSansMono-Bold-89"/>
     </defs>
     <g style="fill:#222b29;" transform="translate(417.514687 2.368)scale(0.12 -0.12)">
      <use xlink:href="#DejaVuSansMono-Bold-89"/>
      <use x="60.205078" xlink:href="#DejaVuSansMono-Bold-45"/>
      <use x="120.410156" xlink:href="#DejaVuSansMono-Bold-70"/>
      <use x="180.615234" xlink:href="#DejaVuSansMono-Bold-105"/>
      <use x="240.820312" xlink:href="#DejaVuSansMono-Bold-101"/>
      <use x="301.025391" xlink:href="#DejaVuSansMono-Bold-108"/>
      <use x="361.230469" xlink:href="#DejaVuSansMono-Bold-100"/>
     </g>
    </a>
   </g>
  </g>
  <g id="axes_3">
   <g id="patch_10">
    <path d="M 561.6 76.896 
L 777.6 76.896 
L 777.6 10.368 
L 561.6 10.368 
z
" style="fill:#a6c2bc;"/>
   </g>
   <g id="matplotlib.axis_5">
    <g id="xtick_9">
     <g id="line2d_27">
      <path clip-path="url(#p48272e34df)" d="M 561.6 76.896 
L 561.6 10.368 
" style="fill:none;stroke:#c8d9cd;stroke-linecap:square;stroke-width:0.8;"/>
     </g>
     <g id="line2d_28">
      <g>
       <use style="stroke:#000000;stroke-width:0.8;" x="561.6" xlink:href="#m451f2a4e0c" y="76.896"/>
      </g>
     </g>
     <g id="text_16">
      <!-- 00:00 -->
      <g transform="translate(547.190625 91.494437)scale(0.1 -0.1)">
       <use xlink:href="#DejaVuSans-48"/>
       <use x="63.623047" xlink:href="#DejaVuSans-48"/>
       <use x="127.246094" xlink:href="#DejaVuSans-58"/>
       <use x="160.9375" xlink:href="#DejaVuSans-48"/>
       <use x="224.560547" xlink:href="#DejaVuSans-48"/>
      </g>
     </g>
    </g>
    <g id="xtick_10">
     <g id="line2d_29">
      <path clip-path="url(#p48272e34df)" d="M 615.6 76.896 
L 615.6 10.368 
" style="fill:none;stroke:#c8d9cd;stroke-linecap:square;stroke-width:0.8;"/>
     </g>
     <g id="line2d_30">
      <g>
       <use style="stroke:#000000;stroke-width:0.8;" x="615.6" xlink:href="#m451f2a4e0c" y="76.896"/>
      </g>
     </g>
     <g id="text_17">
      <!-- 06:00 -->
      <g transform="translate(601.190625 91.494437)scale(0.1 -0.1)">
       <use xlink:href="#DejaVuSans-48"/>
       <use x="63.623047" xlink:href="#DejaVuSans-54"/>
       <use x="127.246094" xlink:href="#DejaVuSans-58"/>
       <use x="160.9375" xlink:href="#DejaVuSans-48"/>
       <use x="224.560547" xlink:href="#DejaVuSans-48"/>
      </g>
     </g>
    </g>
    <g id="xtick_11">
     <g id="line2d_31">
      <path clip-path="url(#p48272e34df)" d="M 669.6 76.896 
L 669.6 10.368 
" style="fill:none;stroke:#c8d9cd;stroke-linecap:square;stroke-width:0.8;"/>
     </g>
     <g id="line2d_32">
      <g>
       <use style="stroke:#000000;stroke-width:0.8;" x="669.6" xlink:href="#m451f2a4e0c" y="76.896"/>
      </g>
     </g>
     <g id="text_18">
      <!-- 12:00 -->
      <g transform="translate(655.190625 91.494437)scale(0.1 -0.1)">
       <use xlink:href="#DejaVuSans-49"/>
       <use x="63.623047" xlink:href="#DejaVuSans-50"/>
       <use x="127.246094" xlink:href="#DejaVuSans-58"/>
       <use x="160.9375" xlink:href="#DejaVuSans-48"/>
       <use x="224.560547" xlink:href="#DejaVuSans-48"/>
      </g>
     </g>
    </g>
    <g id="xtick_12">
     <g id="line2d_33">
      <path clip-path="url(#p48272e34df)" d="M 723.6 76.896 
L 723.6 10.368 
" style="fill:none;stroke:#c8d9cd;stroke-linecap:square;stroke-width:0.8;"/>
     </g>
     <g id="line2d_34">
      <g>
       <use style="stroke:#000000;stroke-width:0.8;" x="723.6" xlink:href="#m451f2a4e0c" y="76.896"/>
      </g>
     </g>
     <g id="text_19">
      <!-- 18:00 -->
      <g transform="translate(709.190625 91.494437)scale(0.1 -0.1)">
       <use xlink:href="#DejaVuSans-49"/>
       <use x="63.623047" xlink:href="#DejaVuSans-56"/>
       <use x="127.246094" xlink:href="#DejaVuSans-58"/>
       <use x="160.9375" xlink:href="#DejaVuSans-48"/>
       <use x="224.560547" xlink:href="#DejaVuSans-48"/>
      </g>
     </g>
    </g>
    <g id="text_20">
     <!-- UTC in Hours  2019 06 06 -->
     <g transform="translate(597.35625 105.225687)scale(0.1 -0.1)">
      <use xlink:href="#DejaVuSansMono-85"/>
      <use x="60.205078" xlink:href="#DejaVuSansMono-84"/>
      <use x="120.410156" xlink:href="#DejaVuSansMono-67"/>
      <use x="180.615234" xlink:href="#DejaVuSansMono-32"/>
      <use x="240.820312" xlink:href="#DejaVuSansMono-105"/>
      <use x="301.025391" xlink:href="#DejaVuSansMono-110"/>
      <use x="361.230469" xlink:href="#DejaVuSansMono-32"/>
      <use x="421.435547" xlink:href="#DejaVuSansMono-72"/>
      <use x="481.640625" xlink:href="#DejaVuSansMono-111"/>
      <use x="541.845703" xlink:href="#DejaVuSansMono-117"/>
      <use x="602.050781" xlink:href="#DejaVuSansMono-114"/>
      <use x="662.255859" xlink:href="#DejaVuSansMono-115"/>
      <use x="722.460938" xlink:href="#DejaVuSansMono-32"/>
      <use x="782.666016" xlink:href="#DejaVuSansMono-32"/>
      <use x="842.871094" xlink:href="#DejaVuSansMono-50"/>
      <use x="903.076172" xlink:href="#DejaVuSansMono-48"/>
      <use x="963.28125" xlink:href="#DejaVuSansMono-49"/>
      <use x="1023.486328" xlink:href="#DejaVuSansMono-57"/>
      <use x="1083.691406" xlink:href="#DejaVuSansMono-32"/>
      <use x="1143.896484" xlink:href="#DejaVuSansMono-48"/>
      <use x="1204.101562" xlink:href="#DejaVuSansMono-54"/>
      <use x="1264.306641" xlink:href="#DejaVuSansMono-32"/>
      <use x="1324.511719" xlink:href="#DejaVuSansMono-48"/>
      <use x="1384.716797" xlink:href="#DejaVuSansMono-54"/>
     </g>
    </g>
   </g>
   <g id="matplotlib.axis_6">
    <g id="ytick_5">
     <g id="line2d_35">
      <path clip-path="url(#p48272e34df)" d="M 561.6 62.111228 
L 777.6 62.111228 
" style="fill:none;stroke:#c8d9cd;stroke-linecap:square;stroke-width:0.8;"/>
     </g>
     <g id="line2d_36">
      <g>
       <use style="stroke:#000000;stroke-width:0.8;" x="561.6" xlink:href="#md454a14147" y="62.111228"/>
      </g>
     </g>
    </g>
    <g id="ytick_6">
     <g id="line2d_37">
      <path clip-path="url(#p48272e34df)" d="M 561.6 22.392307 
L 777.6 22.392307 
" style="fill:none;stroke:#c8d9cd;stroke-linecap:square;stroke-width:0.8;"/>
     </g>
     <g id="line2d_38">
      <g>
       <use style="stroke:#000000;stroke-width:0.8;" x="561.6" xlink:href="#md454a14147" y="22.392307"/>
      </g>
     </g>
    </g>
    <g id="text_21">
     <g id="patch_11">
      <path d="M 779.95125 36.45696 
L 818.44875 36.45696 
L 818.44875 15.24321 
L 779.95125 15.24321 
z
" style="fill:#222b29;stroke:#222b29;stroke-linejoin:miter;"/>
     </g>
     <!-- INUK -->
     <defs>
      <path d="M 8.40625 60.203125 
L 8.40625 72.90625 
L 51.8125 72.90625 
L 51.8125 60.203125 
L 37.3125 60.203125 
L 37.3125 12.703125 
L 51.8125 12.703125 
L 51.8125 0 
L 8.40625 0 
L 8.40625 12.703125 
L 22.90625 12.703125 
L 22.90625 60.203125 
z
" id="DejaVuSansMono-Bold-73"/>
      <path d="M 5.8125 72.90625 
L 21.296875 72.90625 
L 41.609375 19.921875 
L 41.609375 72.90625 
L 54.296875 72.90625 
L 54.296875 0 
L 38.921875 0 
L 18.5 52.984375 
L 18.5 0 
L 5.8125 0 
z
" id="DejaVuSansMono-Bold-78"/>
      <path d="M 5.171875 26.90625 
L 5.171875 72.90625 
L 19.578125 72.90625 
L 19.578125 23.296875 
Q 19.578125 17.828125 22.359375 14.71875 
Q 25.140625 11.625 30.078125 11.625 
Q 35.015625 11.625 37.796875 14.71875 
Q 40.578125 17.828125 40.578125 23.296875 
L 40.578125 72.90625 
L 54.984375 72.90625 
L 54.984375 26.90625 
Q 54.984375 12.0625 49.078125 5.3125 
Q 43.171875 -1.421875 30.078125 -1.421875 
Q 17.046875 -1.421875 11.109375 5.3125 
Q 5.171875 12.0625 5.171875 26.90625 
z
" id="DejaVuSansMono-Bold-85"/>
      <path d="M 5.71875 72.90625 
L 20.125 72.90625 
L 20.125 44.09375 
L 42.671875 72.90625 
L 58.984375 72.90625 
L 35.984375 44.1875 
L 59.8125 0 
L 43.796875 0 
L 26.515625 32.8125 
L 20.125 24.703125 
L 20.125 0 
L 5.71875 0 
z
" id="DejaVuSansMono-Bold-75"/>
     </defs>
     <g style="fill:#e1eae8;" transform="translate(784.75125 29.161335)scale(0.12 -0.12)">
      <use xlink:href="#DejaVuSansMono-Bold-73"/>
      <use x="60.205078" xlink:href="#DejaVuSansMono-Bold-78"/>
      <use x="120.410156" xlink:href="#DejaVuSansMono-Bold-85"/>
      <use x="180.615234" xlink:href="#DejaVuSansMono-Bold-75"/>
     </g>
    </g>
   </g>
   <g id="line2d_39">
    <path clip-path="url(#p48272e34df)" d="M 561.675 22.392307 
L 561.98 22.364504 
L 562.7475 22.956316 
L 562.9 22.996035 
L 563.815 24.715864 
L 563.9675 24.688061 
L 564.1225 24.866796 
L 564.43 25.597624 
L 564.74 25.720753 
L 565.045 25.343423 
L 565.3525 24.926374 
L 565.66 25.323564 
L 565.815 25.196463 
L 565.9675 25.410945 
L 566.1225 25.963038 
L 566.2775 25.355339 
L 566.43 25.375198 
L 566.585 25.16866 
L 566.74 24.723808 
L 566.895 24.771471 
L 567.0525 24.684089 
L 567.205 24.43386 
L 567.6625 25.418889 
L 567.815 24.779414 
L 567.9675 23.512381 
L 568.1225 23.508409 
L 568.275 23.730835 
L 568.5825 21.526435 
L 568.7375 21.959371 
L 568.89 19.790718 
L 569.0425 19.544461 
L 569.35 18.015282 
L 569.505 18.436303 
L 569.6575 18.098692 
L 569.965 19.266428 
L 570.12 18.70242 
L 570.2725 18.797745 
L 570.425 19.107553 
L 570.58 19.77483 
L 570.885 23.000007 
L 571.1925 22.749778 
L 571.5025 23.853964 
L 571.6525 23.262152 
L 571.805 24.191574 
L 572.1125 23.448831 
L 572.265 24.882684 
L 572.5675 23.941345 
L 572.7175 24.012839 
L 573.3275 25.522158 
L 573.79 25.947151 
L 573.945 24.970065 
L 574.0975 25.124969 
L 574.25 24.676145 
L 574.4025 24.846937 
L 574.555 24.366338 
L 574.71 24.600679 
L 574.8625 25.240154 
L 575.0175 24.278956 
L 575.17 24.326619 
L 575.3225 24.850909 
L 575.4775 24.640398 
L 575.785 23.659341 
L 575.9375 23.317758 
L 576.2425 23.146967 
L 576.3975 23.965177 
L 576.55 24.163771 
L 576.7025 24.12008 
L 576.855 24.235265 
L 577.1625 25.307676 
L 577.315 25.240154 
L 577.775 24.159799 
L 577.9275 23.595791 
L 578.08 23.484578 
L 578.2325 23.834104 
L 578.385 23.718919 
L 578.5375 23.421027 
L 578.69 23.53224 
L 578.995 24.378253 
L 579.1475 24.028727 
L 579.4575 23.099304 
L 579.7625 24.731752 
L 580.2225 27.89735 
L 580.53 26.642232 
L 580.6825 26.705782 
L 580.8325 27.114887 
L 581.14 28.19127 
L 581.4475 29.533769 
L 581.9025 28.596403 
L 582.365 28.350145 
L 582.8225 28.497105 
L 583.4375 25.927291 
L 583.895 25.549962 
L 584.3525 28.572571 
L 585.115 24.362366 
L 585.575 25.204407 
L 585.7275 24.966093 
L 585.88 25.196463 
L 586.0325 25.152772 
L 586.185 25.363283 
L 586.34 25.851825 
L 586.8025 24.211434 
L 586.955 24.576848 
L 587.26 26.570738 
L 587.5675 26.26093 
L 587.7225 26.479384 
L 588.0275 25.657203 
L 588.1825 25.744584 
L 588.335 26.046448 
L 588.4875 25.947151 
L 588.6425 26.161633 
L 588.95 27.345257 
L 589.2575 26.149717 
L 589.4125 25.923319 
L 589.565 26.006729 
L 589.72 26.34434 
L 589.8725 26.054392 
L 590.025 26.05042 
L 590.1775 25.915376 
L 590.3275 26.141773 
L 590.7875 27.75039 
L 591.25 28.644065 
L 591.4025 28.139635 
L 591.5575 28.286595 
L 591.71 28.620234 
L 591.8625 28.568599 
L 592.015 28.354117 
L 592.4725 27.118859 
L 592.625 27.845715 
L 592.7775 27.925153 
L 593.085 26.55485 
L 593.3925 26.19738 
L 593.5475 26.447609 
L 593.7 26.336396 
L 594.155 25.553933 
L 594.31 25.60954 
L 595.23 26.844798 
L 595.5375 27.472357 
L 596 27.472357 
L 596.3075 28.655981 
L 596.9225 32.322037 
L 597.39 39.054394 
L 597.54 39.666066 
L 597.6925 38.963041 
L 597.845 42.637041 
L 597.9975 41.747337 
L 598.15 39.566769 
L 598.455 51.132918 
L 598.6075 50.811195 
L 598.91 39.511162 
L 599.065 49.337623 
L 599.2175 50.032704 
L 599.3725 52.701815 
L 599.525 58.540497 
L 599.68 56.832583 
L 600.14 69.407593 
L 600.2925 64.355347 
L 600.445 55.275601 
L 600.6 57.817612 
L 600.9075 67.012542 
L 601.0575 66.901329 
L 601.2125 67.179362 
L 601.365 64.212359 
L 601.515 66.655072 
L 601.98 62.623602 
L 602.1325 66.758341 
L 602.285 66.508112 
L 602.4375 65.503223 
L 602.74 61.384371 
L 603.205 53.885439 
L 603.3575 54.111837 
L 603.5125 54.032399 
L 603.6675 53.198302 
L 603.975 47.5463 
L 604.2825 40.865577 
L 604.435 42.370924 
L 604.59 42.486109 
L 605.0475 49.544161 
L 605.2 49.52033 
L 605.355 49.921491 
L 605.6575 47.574103 
L 605.81 44.996345 
L 606.2675 46.66454 
L 606.42 45.361759 
L 606.5725 45.302181 
L 606.88 42.772085 
L 607.185 40.134749 
L 607.4925 38.256044 
L 607.645 38.665149 
L 607.795 38.530105 
L 608.1 41.882382 
L 608.41 35.590905 
L 608.7225 34.514522 
L 608.8775 34.391393 
L 609.645 36.242295 
L 609.7975 35.416141 
L 609.95 35.733893 
L 610.1025 35.578989 
L 610.57 35.765668 
L 610.8775 33.716172 
L 611.03 33.994204 
L 611.49 38.148803 
L 611.645 35.380394 
L 611.7975 37.207465 
L 611.95 37.545075 
L 612.1025 39.229158 
L 612.255 37.632457 
L 612.56 32.2426 
L 612.8675 35.996038 
L 613.02 34.911711 
L 613.3275 39.328455 
L 613.63 35.702118 
L 614.0925 40.575629 
L 614.245 40.09503 
L 614.705 42.549659 
L 614.8575 42.720451 
L 615.0125 43.713424 
L 615.165 43.757115 
L 615.3175 44.634903 
L 615.4675 46.37062 
L 615.62 46.390479 
L 615.9275 47.979236 
L 616.2325 51.256047 
L 616.385 49.285988 
L 616.5375 45.397506 
L 616.69 46.56127 
L 616.84 49.178747 
L 616.9925 48.729923 
L 617.2975 49.655374 
L 617.45 49.274073 
L 617.7575 47.268267 
L 618.0625 39.987789 
L 618.37 47.701203 
L 618.68 50.179664 
L 618.8325 50.286905 
L 619.29 45.659651 
L 619.4425 46.461973 
L 619.745 53.238021 
L 620.05 51.728702 
L 620.3575 56.908049 
L 620.5075 56.828611 
L 620.815 55.446393 
L 621.2725 56.256659 
L 621.425 55.899189 
L 621.5775 55.942879 
L 621.7325 56.42745 
L 622.035 55.6291 
L 622.19 57.293323 
L 622.3425 61.289046 
L 622.4975 60.327848 
L 622.65 57.877191 
L 622.9575 65.681959 
L 623.1125 68.553637 
L 623.2675 68.87536 
L 623.4175 66.67096 
L 623.57 66.583578 
L 623.7225 63.517277 
L 623.875 63.263076 
L 624.0275 65.324488 
L 624.485 63.29088 
L 624.635 63.072426 
L 625.0975 60.363595 
L 625.25 60.717094 
L 625.405 60.70915 
L 625.56 57.126503 
L 625.7125 57.666681 
L 625.865 58.731148 
L 626.0175 58.496806 
L 626.1725 58.822501 
L 626.3225 59.787671 
L 626.475 59.525526 
L 626.78 57.53958 
L 627.09 57.865275 
L 627.4025 56.034233 
L 627.705 56.991459 
L 627.8575 56.590298 
L 628.63 52.380092 
L 628.78 51.931268 
L 629.0875 47.995123 
L 629.395 45.719229 
L 629.5475 45.318068 
L 629.8525 43.669733 
L 630.16 41.957848 
L 631.235 36.659344 
L 631.695 34.999093 
L 632.005 35.229462 
L 632.315 33.219685 
L 632.62 29.482135 
L 632.9275 28.699672 
L 633.08 28.735419 
L 633.2325 29.28354 
L 633.5375 30.967622 
L 633.6925 31.11061 
L 633.8475 31.078835 
L 634.46 31.940736 
L 634.7625 32.754974 
L 635.07 32.218768 
L 635.22 32.111527 
L 635.5275 32.719227 
L 635.8325 33.259404 
L 635.9825 33.267348 
L 636.2875 33.044922 
L 636.5925 32.294234 
L 636.9025 32.337925 
L 637.205 33.219685 
L 637.3575 33.116416 
L 637.5075 32.743058 
L 637.6625 32.949596 
L 637.97 32.818524 
L 638.5775 32.532548 
L 639.35 32.905906 
L 639.6575 32.588154 
L 639.965 32.917821 
L 640.2725 32.850299 
L 640.73 33.156135 
L 641.195 34.033923 
L 641.655 34.248405 
L 641.8075 34.466859 
L 642.5775 34.081586 
L 643.04 33.438139 
L 643.1925 33.469914 
L 643.6525 33.211741 
L 644.115 33.096556 
L 644.27 33.04095 
L 644.7325 32.449138 
L 645.8025 31.479996 
L 646.2625 31.706394 
L 646.415 31.523687 
L 646.725 31.615041 
L 646.8775 31.714338 
L 647.0275 31.662703 
L 647.4875 32.13933 
L 647.7925 32.055921 
L 648.41 32.385588 
L 648.565 32.246571 
L 648.72 32.314094 
L 648.8725 32.194937 
L 649.0275 32.314094 
L 649.3325 32.202881 
L 649.6375 32.147274 
L 650.555 31.901017 
L 651.02 32.032089 
L 651.1725 31.920876 
L 651.48 31.972511 
L 651.94 32.032089 
L 652.7075 32.202881 
L 653.0125 32.365728 
L 653.625 32.81058 
L 653.9325 32.886046 
L 654.545 32.969456 
L 654.8525 33.27132 
L 655.3125 33.942569 
L 655.62 34.268265 
L 657.3075 34.272236 
L 657.46 34.34373 
L 657.6125 34.264293 
L 657.7675 34.391393 
L 657.9225 34.252377 
L 658.23 34.224574 
L 659.455 33.172022 
L 659.7625 33.175994 
L 660.0675 34.117333 
L 660.3775 35.626652 
L 660.5325 35.98015 
L 660.9925 36.047672 
L 661.3 35.988094 
L 661.755 36.560046 
L 662.985 35.853049 
L 663.5925 37.191577 
L 663.8975 37.012842 
L 664.66 36.496496 
L 665.12 36.857938 
L 665.7375 37.211437 
L 665.8875 37.207465 
L 666.04 37.350453 
L 666.9625 37.151858 
L 667.2675 37.517272 
L 668.345 37.5133 
L 669.1175 37.966096 
L 670.195 38.061421 
L 670.65 38.752531 
L 671.7225 39.169579 
L 671.875 39.395977 
L 672.0275 39.384061 
L 672.1825 39.5906 
L 672.335 39.5906 
L 672.4875 39.73756 
L 672.6375 39.646206 
L 672.945 39.681953 
L 673.0975 39.646206 
L 673.405 39.900407 
L 673.865 39.880548 
L 674.1725 39.856717 
L 675.25 40.245962 
L 675.5575 40.583573 
L 676.0125 40.722589 
L 676.3175 41.020481 
L 677.235 41.461361 
L 677.3875 41.715562 
L 677.5375 41.679815 
L 677.69 41.77514 
L 677.845 41.723506 
L 678.15 41.838691 
L 678.455 41.767197 
L 678.765 41.850606 
L 678.92 42.144526 
L 679.2225 42.184245 
L 679.68 42.776057 
L 679.99 43.419504 
L 680.755 43.129556 
L 681.0625 43.590295 
L 681.215 43.451279 
L 681.675 44.114585 
L 681.83 44.20991 
L 681.9825 44.551493 
L 682.445 44.44028 
L 683.0525 44.29332 
L 683.515 44.360842 
L 683.6675 44.074866 
L 683.975 43.967625 
L 684.1275 43.673705 
L 684.2825 43.856412 
L 684.435 43.828609 
L 684.7425 43.908046 
L 685.2025 43.125584 
L 685.51 42.994511 
L 685.8175 43.363897 
L 685.97 43.248712 
L 686.1225 43.300347 
L 686.425 42.97068 
L 686.58 42.605266 
L 687.0475 42.748254 
L 687.2 42.990539 
L 687.3525 42.911102 
L 687.5075 42.680732 
L 687.66 43.312263 
L 687.97 42.255739 
L 688.275 42.990539 
L 688.43 42.863439 
L 688.7425 43.649874 
L 688.895 42.609238 
L 689.0475 42.867411 
L 689.2 42.498025 
L 689.3525 42.454334 
L 689.5075 42.223964 
L 689.6625 42.780029 
L 689.8175 42.772085 
L 689.97 42.577463 
L 690.1225 42.644985 
L 690.2775 43.268572 
L 690.43 42.863439 
L 690.5825 42.839608 
L 690.7375 43.236797 
L 690.89 42.426531 
L 691.2 43.324178 
L 691.3525 43.121612 
L 691.505 43.363897 
L 691.81 42.656901 
L 691.9625 43.18119 
L 692.115 42.891242 
L 692.27 42.926989 
L 692.425 43.216937 
L 692.5775 43.220909 
L 692.7325 43.419504 
L 692.8875 42.434475 
L 693.04 42.672788 
L 693.195 43.185162 
L 693.3475 43.069977 
L 693.65 42.704563 
L 693.8025 43.749171 
L 693.955 42.430503 
L 694.1075 42.724423 
L 694.4175 41.965791 
L 694.57 42.875355 
L 694.7225 42.196161 
L 695.0275 42.148498 
L 695.1825 42.44639 
L 695.335 42.263683 
L 695.6425 41.798972 
L 696.1 43.205022 
L 696.2525 42.732366 
L 696.405 43.633986 
L 696.5575 42.509941 
L 696.71 43.038202 
L 697.0175 42.291486 
L 697.1725 42.688676 
L 697.79 43.157359 
L 697.945 43.483054 
L 698.0975 42.128639 
L 698.25 42.724423 
L 698.405 41.77514 
L 698.555 42.509941 
L 698.7075 41.548743 
L 698.8625 41.723506 
L 699.0175 41.624209 
L 699.17 41.834719 
L 699.325 40.603432 
L 699.48 41.993595 
L 699.6325 41.278654 
L 699.7875 41.802944 
L 699.94 41.624209 
L 700.0925 41.850606 
L 700.2475 42.44639 
L 700.4 41.620237 
L 700.555 42.204105 
L 700.7075 41.246879 
L 700.86 41.306457 
L 701.0125 41.12375 
L 701.1675 40.166524 
L 701.3225 40.941043 
L 701.4775 40.297597 
L 701.63 40.873521 
L 701.785 39.7177 
L 701.9375 40.68287 
L 702.0925 40.91324 
L 702.245 40.639179 
L 702.4 40.61932 
L 702.7075 39.908351 
L 702.8625 40.436613 
L 703.015 39.868632 
L 703.1675 40.075171 
L 703.32 39.721672 
L 703.4725 39.08617 
L 703.625 39.733588 
L 703.7775 39.364202 
L 704.08 38.18455 
L 704.2325 38.303707 
L 704.3875 38.117028 
L 704.8525 39.030563 
L 705.155 38.39506 
L 705.3075 38.56188 
L 705.765 37.080364 
L 705.92 36.905601 
L 706.0725 36.12711 
L 706.225 36.158885 
L 706.8325 35.678286 
L 706.985 35.74978 
L 707.14 35.022924 
L 707.445 35.340675 
L 707.7525 35.102362 
L 707.9025 35.261238 
L 708.21 35.197687 
L 708.8225 34.494662 
L 709.1275 34.589988 
L 709.7375 35.332732 
L 709.89 35.197687 
L 710.0425 34.875964 
L 710.6525 32.667592 
L 711.5825 31.420418 
L 711.735 31.388643 
L 712.04 31.710366 
L 712.1925 31.853354 
L 712.5 31.591209 
L 712.955 31.019257 
L 713.1075 31.04706 
L 713.7175 31.869242 
L 714.02 32.143302 
L 714.4825 32.43325 
L 714.7875 32.326009 
L 715.0925 32.000314 
L 715.4 32.024146 
L 715.705 32.238628 
L 716.315 32.016202 
L 717.6975 30.363895 
L 718.005 30.566461 
L 718.16 30.741224 
L 718.4675 30.68959 
L 719.545 29.148496 
L 719.695 29.088917 
L 720.0025 29.160411 
L 720.31 29.164383 
L 720.465 29.339147 
L 720.77 29.21999 
L 721.69 28.663925 
L 722.455 29.005508 
L 722.7625 28.969761 
L 723.0675 28.48519 
L 723.6775 27.20624 
L 723.985 27.170493 
L 724.4475 26.967927 
L 724.7525 27.3532 
L 725.365 28.183326 
L 725.8225 27.956928 
L 726.13 27.58357 
L 726.5875 26.729613 
L 726.8925 26.650176 
L 727.045 26.705782 
L 727.2 26.614429 
L 727.6575 27.230072 
L 728.115 26.483356 
L 728.575 25.283845 
L 728.73 25.152772 
L 728.8825 25.283845 
L 729.5025 26.340368 
L 729.6575 26.312565 
L 729.965 26.844798 
L 730.1175 26.84877 
L 730.27 27.091056 
L 730.5775 26.888489 
L 730.885 27.28965 
L 731.0375 27.575626 
L 731.19 27.321425 
L 731.4975 26.47144 
L 731.65 26.272846 
L 731.8025 26.419806 
L 732.11 26.999702 
L 732.725 27.476329 
L 733.0325 28.103888 
L 733.185 28.008563 
L 733.6425 27.126803 
L 733.9475 27.063252 
L 734.25 26.662091 
L 734.4025 26.904377 
L 734.705 27.003674 
L 735.0125 27.214184 
L 735.47 27.349229 
L 735.7775 27.508104 
L 736.0875 27.357172 
L 736.3975 27.60343 
L 736.55 27.516048 
L 736.8575 27.754362 
L 737.3175 27.238016 
L 738.235 27.345257 
L 738.39 27.500161 
L 738.85 27.285678 
L 739.4625 26.777276 
L 739.6175 26.793164 
L 740.39 27.587542 
L 740.5425 27.472357 
L 740.6925 27.182409 
L 741.0025 27.972816 
L 741.155 27.988703 
L 741.3075 28.207157 
L 741.4625 28.02445 
L 741.77 26.805079 
L 741.9225 26.872602 
L 742.075 27.416751 
L 742.3875 27.460442 
L 742.6975 27.190353 
L 743.005 27.007646 
L 743.1575 27.031477 
L 743.9225 26.098083 
L 744.23 25.303704 
L 744.685 25.688978 
L 744.9875 25.267957 
L 745.14 25.327536 
L 745.295 25.510243 
L 745.91 25.267957 
L 746.065 25.347395 
L 746.37 26.010701 
L 746.6775 26.836855 
L 747.14 27.16255 
L 747.4475 28.131691 
L 747.7575 28.894295 
L 747.91 28.870463 
L 748.3675 28.405752 
L 748.52 28.576543 
L 748.8275 29.231905 
L 749.59 29.736336 
L 749.8925 30.093806 
L 750.35 30.145441 
L 750.655 30.379782 
L 750.9625 29.764139 
L 751.1175 29.740308 
L 751.7325 30.598236 
L 751.885 30.348007 
L 752.345 29.05317 
L 752.9575 29.652926 
L 753.415 29.057142 
L 753.5675 29.065086 
L 754.485 30.085862 
L 754.9475 30.105722 
L 755.255 29.34709 
L 755.87 26.582653 
L 756.175 26.463497 
L 756.485 26.809051 
L 756.7925 27.468385 
L 757.255 27.241988 
L 757.71 27.682868 
L 758.015 27.464413 
L 758.3225 27.273763 
L 759.24 26.816995 
L 759.7 27.182409 
L 760.3175 28.441499 
L 760.4725 28.63215 
L 761.0875 28.19127 
L 761.855 30.050115 
L 762.16 29.57746 
L 762.4675 28.802941 
L 762.775 28.636122 
L 762.9275 28.648037 
L 763.6925 29.458303 
L 763.9975 29.835633 
L 764.305 29.998481 
L 764.6125 29.819745 
L 765.0725 30.864353 
L 765.225 30.784915 
L 765.5325 30.292401 
L 765.995 30.423473 
L 766.3 30.765056 
L 766.605 30.47908 
L 766.7575 30.530714 
L 767.5225 31.706394 
L 767.8275 31.499856 
L 768.2875 31.515743 
L 768.4425 31.65476 
L 768.9025 31.19402 
L 769.0575 31.6349 
L 769.2125 31.436306 
L 769.8225 28.866491 
L 769.975 28.588459 
L 770.1275 28.663925 
L 770.585 28.409724 
L 771.0425 28.787054 
L 771.3475 28.870463 
L 771.5 28.739391 
L 772.11 27.635205 
L 772.265 27.508104 
L 772.42 27.535908 
L 772.725 27.802024 
L 772.88 27.742446 
L 773.035 27.853659 
L 773.1875 27.809968 
L 773.34 27.89735 
L 773.6475 28.238932 
L 774.2625 27.619317 
L 774.57 27.222128 
L 774.875 26.93218 
L 775.7875 26.880545 
L 776.095 26.705782 
L 776.5525 26.515131 
L 777.475 25.224266 
L 777.475 25.224266 
" style="fill:none;stroke:#008000;stroke-linecap:square;stroke-width:1.5;"/>
   </g>
   <g id="patch_12">
    <path d="M 561.6 76.896 
L 561.6 10.368 
" style="fill:none;stroke:#445753;stroke-linecap:square;stroke-linejoin:miter;stroke-width:3;"/>
   </g>
   <g id="patch_13">
    <path d="M 561.6 76.896 
L 777.6 76.896 
" style="fill:none;stroke:#445753;stroke-linecap:square;stroke-linejoin:miter;stroke-width:3;"/>
   </g>
   <g id="text_22">
    <g id="patch_14">
     <path d="M 640.354687 8.823625 
L 698.845312 8.823625 
L 698.845312 -10.710125 
L 640.354687 -10.710125 
z
" style="fill:#f4f7f7;stroke:#f4f7f7;stroke-linejoin:miter;"/>
    </g>
    <a xlink:href="http://google.com">
     <!-- Z-Field -->
     <defs>
      <path d="M 6.6875 72.90625 
L 56 72.90625 
L 56 60.984375 
L 22.21875 12.703125 
L 56.6875 12.703125 
L 56.6875 0 
L 5.609375 0 
L 5.609375 11.921875 
L 38.375 60.203125 
L 6.6875 60.203125 
z
" id="DejaVuSansMono-Bold-90"/>
     </defs>
     <g style="fill:#222b29;" transform="translate(644.314687 2.368)scale(0.12 -0.12)">
      <use xlink:href="#DejaVuSansMono-Bold-90"/>
      <use x="60.205078" xlink:href="#DejaVuSansMono-Bold-45"/>
      <use x="120.410156" xlink:href="#DejaVuSansMono-Bold-70"/>
      <use x="180.615234" xlink:href="#DejaVuSansMono-Bold-105"/>
      <use x="240.820312" xlink:href="#DejaVuSansMono-Bold-101"/>
      <use x="301.025391" xlink:href="#DejaVuSansMono-Bold-108"/>
      <use x="361.230469" xlink:href="#DejaVuSansMono-Bold-100"/>
     </g>
    </a>
   </g>
  </g>
 </g>
 <defs>
  <clipPath id="pc2af67b7ec">
   <rect height="66.528" width="216" x="108" y="10.368"/>
  </clipPath>
  <clipPath id="p9c8ab0f074">
   <rect height="66.528" width="216" x="334.8" y="10.368"/>
  </clipPath>
  <clipPath id="p48272e34df">
   <rect height="66.528" width="216" x="561.6" y="10.368"/>
  </clipPath>
 </defs>
</svg>
